%TF.GenerationSoftware,KiCad,Pcbnew,(5.1.6-0-10_14)*%
%TF.CreationDate,2021-01-13T18:01:30-08:00*%
%TF.ProjectId,MCP35461DevBoard,4d435033-3534-4363-9144-6576426f6172,rev?*%
%TF.SameCoordinates,Original*%
%TF.FileFunction,Copper,L2,Bot*%
%TF.FilePolarity,Positive*%
%FSLAX46Y46*%
G04 Gerber Fmt 4.6, Leading zero omitted, Abs format (unit mm)*
G04 Created by KiCad (PCBNEW (5.1.6-0-10_14)) date 2021-01-13 18:01:30*
%MOMM*%
%LPD*%
G01*
G04 APERTURE LIST*
%TA.AperFunction,ComponentPad*%
%ADD10C,2.000000*%
%TD*%
%TA.AperFunction,ComponentPad*%
%ADD11O,3.500000X7.000000*%
%TD*%
%TA.AperFunction,ComponentPad*%
%ADD12O,1.600000X2.500000*%
%TD*%
%TA.AperFunction,ComponentPad*%
%ADD13O,3.960000X1.980000*%
%TD*%
%TA.AperFunction,ComponentPad*%
%ADD14R,3.960000X1.980000*%
%TD*%
%TA.AperFunction,ComponentPad*%
%ADD15C,1.300000*%
%TD*%
%TA.AperFunction,ComponentPad*%
%ADD16C,1.600000*%
%TD*%
%TA.AperFunction,ComponentPad*%
%ADD17R,1.300000X1.300000*%
%TD*%
%TA.AperFunction,ComponentPad*%
%ADD18R,1.600000X1.600000*%
%TD*%
%TA.AperFunction,ComponentPad*%
%ADD19O,1.700000X1.700000*%
%TD*%
%TA.AperFunction,ComponentPad*%
%ADD20R,1.700000X1.700000*%
%TD*%
%TA.AperFunction,SMDPad,CuDef*%
%ADD21R,5.080000X1.600000*%
%TD*%
%TA.AperFunction,ComponentPad*%
%ADD22C,4.000000*%
%TD*%
%TA.AperFunction,ViaPad*%
%ADD23C,0.800000*%
%TD*%
%TA.AperFunction,Conductor*%
%ADD24C,0.250000*%
%TD*%
%TA.AperFunction,Conductor*%
%ADD25C,0.254000*%
%TD*%
G04 APERTURE END LIST*
D10*
%TO.P,TP9,1*%
%TO.N,/EXT_SYNC*%
X122555000Y-76835000D03*
%TD*%
D11*
%TO.P,J2,2*%
%TO.N,GND*%
X119684800Y-90271600D03*
D12*
%TO.P,J2,1*%
%TO.N,/EXT_SYNCI*%
X124764800Y-85191600D03*
D11*
%TO.P,J2,2*%
%TO.N,GND*%
X129844800Y-90271600D03*
D12*
X127304800Y-85191600D03*
%TD*%
D13*
%TO.P,J8,2*%
%TO.N,GND*%
X94742000Y-53340000D03*
D14*
%TO.P,J8,1*%
%TO.N,Net-(D1-Pad1)*%
X94742000Y-48340000D03*
%TD*%
D15*
%TO.P,U8,67*%
%TO.N,Net-(U8-Pad67)*%
X142240000Y-96044000D03*
%TO.P,U8,66*%
%TO.N,Net-(U8-Pad66)*%
X144780000Y-96044000D03*
D16*
%TO.P,U8,54*%
%TO.N,Net-(U8-Pad54)*%
X138430000Y-51054000D03*
%TO.P,U8,53*%
%TO.N,Net-(U8-Pad53)*%
X140970000Y-51054000D03*
%TO.P,U8,52*%
%TO.N,Net-(U8-Pad52)*%
X143510000Y-51054000D03*
%TO.P,U8,51*%
%TO.N,Net-(U8-Pad51)*%
X146050000Y-51054000D03*
%TO.P,U8,50*%
%TO.N,Net-(U8-Pad50)*%
X148590000Y-51054000D03*
D15*
%TO.P,U8,62*%
%TO.N,Net-(U8-Pad62)*%
X142328400Y-83804000D03*
%TO.P,U8,63*%
%TO.N,Net-(U8-Pad63)*%
X142328400Y-81804000D03*
%TO.P,U8,64*%
%TO.N,Net-(U8-Pad64)*%
X140328400Y-81804000D03*
%TO.P,U8,61*%
%TO.N,Net-(U8-Pad61)*%
X140328400Y-83804000D03*
%TO.P,U8,65*%
%TO.N,Net-(U8-Pad65)*%
X138328400Y-81804000D03*
D17*
%TO.P,U8,60*%
%TO.N,Net-(U8-Pad60)*%
X138328400Y-83804000D03*
D16*
%TO.P,U8,17*%
%TO.N,/MC5*%
X151130000Y-56134000D03*
%TO.P,U8,18*%
%TO.N,/MOSI1*%
X151130000Y-53594000D03*
%TO.P,U8,19*%
%TO.N,/SCK1*%
X151130000Y-51054000D03*
%TO.P,U8,20*%
%TO.N,/CS1*%
X151130000Y-48514000D03*
%TO.P,U8,16*%
%TO.N,/MC6*%
X151130000Y-58674000D03*
%TO.P,U8,15*%
%TO.N,/3V3*%
X151130000Y-61214000D03*
%TO.P,U8,14*%
%TO.N,/MISO*%
X151130000Y-63754000D03*
%TO.P,U8,21*%
%TO.N,/MC4*%
X151130000Y-45974000D03*
%TO.P,U8,22*%
%TO.N,/MC3*%
X151130000Y-43434000D03*
%TO.P,U8,23*%
%TO.N,/MC2*%
X151130000Y-40894000D03*
%TO.P,U8,24*%
%TO.N,/MC1*%
X151130000Y-38354000D03*
%TO.P,U8,25*%
%TO.N,Net-(U8-Pad25)*%
X135890000Y-38354000D03*
%TO.P,U8,26*%
%TO.N,Net-(U8-Pad26)*%
X135890000Y-40894000D03*
%TO.P,U8,27*%
%TO.N,Net-(U8-Pad27)*%
X135890000Y-43434000D03*
%TO.P,U8,28*%
%TO.N,Net-(U8-Pad28)*%
X135890000Y-45974000D03*
%TO.P,U8,29*%
%TO.N,Net-(U8-Pad29)*%
X135890000Y-48514000D03*
%TO.P,U8,30*%
%TO.N,Net-(U8-Pad30)*%
X135890000Y-51054000D03*
%TO.P,U8,31*%
%TO.N,Net-(U8-Pad31)*%
X135890000Y-53594000D03*
%TO.P,U8,32*%
%TO.N,Net-(U8-Pad32)*%
X135890000Y-56134000D03*
%TO.P,U8,33*%
%TO.N,Net-(U8-Pad33)*%
X135890000Y-58674000D03*
%TO.P,U8,34*%
%TO.N,Net-(U8-Pad34)*%
X135890000Y-61214000D03*
%TO.P,U8,13*%
%TO.N,/MOSI*%
X151130000Y-66294000D03*
%TO.P,U8,12*%
%TO.N,/MC7*%
X151130000Y-68834000D03*
%TO.P,U8,11*%
%TO.N,/~CS*%
X151130000Y-71374000D03*
%TO.P,U8,10*%
%TO.N,/~IRQ*%
X151130000Y-73914000D03*
%TO.P,U8,9*%
%TO.N,/MCLK*%
X151130000Y-76454000D03*
%TO.P,U8,8*%
%TO.N,/MC8*%
X151130000Y-78994000D03*
%TO.P,U8,7*%
%TO.N,/EXT_SYNC*%
X151130000Y-81534000D03*
%TO.P,U8,6*%
%TO.N,Net-(U8-Pad6)*%
X151130000Y-84074000D03*
%TO.P,U8,5*%
%TO.N,Net-(U8-Pad5)*%
X151130000Y-86614000D03*
%TO.P,U8,4*%
%TO.N,Net-(U8-Pad4)*%
X151130000Y-89154000D03*
%TO.P,U8,3*%
%TO.N,/MISO1*%
X151130000Y-91694000D03*
%TO.P,U8,2*%
%TO.N,Net-(U8-Pad2)*%
X151130000Y-94234000D03*
D18*
%TO.P,U8,1*%
%TO.N,GND*%
X151130000Y-96774000D03*
D16*
%TO.P,U8,35*%
%TO.N,/SCK*%
X135890000Y-63754000D03*
%TO.P,U8,36*%
%TO.N,Net-(U8-Pad36)*%
X135890000Y-66294000D03*
%TO.P,U8,37*%
%TO.N,Net-(U8-Pad37)*%
X135890000Y-68834000D03*
%TO.P,U8,38*%
%TO.N,Net-(U8-Pad38)*%
X135890000Y-71374000D03*
%TO.P,U8,39*%
%TO.N,Net-(U8-Pad39)*%
X135890000Y-73914000D03*
%TO.P,U8,40*%
%TO.N,/SDA*%
X135890000Y-76454000D03*
%TO.P,U8,41*%
%TO.N,/SCL*%
X135890000Y-78994000D03*
%TO.P,U8,42*%
%TO.N,Net-(U8-Pad42)*%
X135890000Y-81534000D03*
%TO.P,U8,43*%
%TO.N,Net-(U8-Pad43)*%
X135890000Y-84074000D03*
%TO.P,U8,44*%
%TO.N,Net-(U8-Pad44)*%
X135890000Y-86614000D03*
%TO.P,U8,45*%
%TO.N,Net-(U8-Pad45)*%
X135890000Y-89154000D03*
%TO.P,U8,46*%
%TO.N,Net-(U8-Pad46)*%
X135890000Y-91694000D03*
%TO.P,U8,47*%
%TO.N,Net-(U8-Pad47)*%
X135890000Y-94234000D03*
%TO.P,U8,48*%
%TO.N,Net-(U8-Pad48)*%
X135890000Y-96774000D03*
D18*
%TO.P,U8,55*%
%TO.N,Net-(U8-Pad55)*%
X148079200Y-90474800D03*
D16*
%TO.P,U8,56*%
%TO.N,Net-(U8-Pad56)*%
X148079200Y-87934800D03*
%TO.P,U8,57*%
%TO.N,Net-(U8-Pad57)*%
X148079200Y-85394800D03*
%TO.P,U8,58*%
%TO.N,Net-(U8-Pad58)*%
X148079200Y-82854800D03*
%TO.P,U8,59*%
%TO.N,Net-(U8-Pad59)*%
X148079200Y-80314800D03*
%TO.P,U8,49*%
%TO.N,Net-(U8-Pad49)*%
X138430000Y-94234000D03*
%TD*%
D10*
%TO.P,TP8,1*%
%TO.N,/DVDD*%
X122428000Y-53975000D03*
%TD*%
%TO.P,TP7,1*%
%TO.N,/AVDD*%
X105791000Y-53594000D03*
%TD*%
%TO.P,TP6,1*%
%TO.N,/DVDD_U*%
X122555000Y-50165000D03*
%TD*%
%TO.P,TP5,1*%
%TO.N,/AVDD_U*%
X105283000Y-49911000D03*
%TD*%
%TO.P,TP4,1*%
%TO.N,/VREF*%
X112395000Y-74803000D03*
%TD*%
%TO.P,TP3,1*%
%TO.N,/VADC*%
X98806000Y-69977000D03*
%TD*%
%TO.P,TP2,1*%
%TO.N,/VIN*%
X98298000Y-58547000D03*
%TD*%
%TO.P,TP1,1*%
%TO.N,/VOS*%
X106807000Y-76073000D03*
%TD*%
D19*
%TO.P,J7,10*%
%TO.N,GND*%
X161086800Y-61468000D03*
%TO.P,J7,9*%
%TO.N,/3V3*%
X161086800Y-58928000D03*
%TO.P,J7,8*%
%TO.N,/MC8*%
X161086800Y-56388000D03*
%TO.P,J7,7*%
%TO.N,/MC7*%
X161086800Y-53848000D03*
%TO.P,J7,6*%
%TO.N,/MC6*%
X161086800Y-51308000D03*
%TO.P,J7,5*%
%TO.N,/MC5*%
X161086800Y-48768000D03*
%TO.P,J7,4*%
%TO.N,/MC4*%
X161086800Y-46228000D03*
%TO.P,J7,3*%
%TO.N,/MC3*%
X161086800Y-43688000D03*
%TO.P,J7,2*%
%TO.N,/MC2*%
X161086800Y-41148000D03*
D20*
%TO.P,J7,1*%
%TO.N,/MC1*%
X161086800Y-38608000D03*
%TD*%
D19*
%TO.P,J6,6*%
%TO.N,/MOSI1*%
X167081200Y-88290400D03*
%TO.P,J6,5*%
%TO.N,/MISO1*%
X164541200Y-88290400D03*
%TO.P,J6,4*%
%TO.N,/SCK1*%
X167081200Y-85750400D03*
%TO.P,J6,3*%
%TO.N,/CS1*%
X164541200Y-85750400D03*
%TO.P,J6,2*%
%TO.N,GND*%
X167081200Y-83210400D03*
D20*
%TO.P,J6,1*%
%TO.N,/3V3*%
X164541200Y-83210400D03*
%TD*%
D19*
%TO.P,J5,4*%
%TO.N,/SCL*%
X158038800Y-89712800D03*
%TO.P,J5,3*%
%TO.N,/SDA*%
X158038800Y-87172800D03*
%TO.P,J5,2*%
%TO.N,GND*%
X158038800Y-84632800D03*
D20*
%TO.P,J5,1*%
%TO.N,/3V3*%
X158038800Y-82092800D03*
%TD*%
D19*
%TO.P,J4,6*%
%TO.N,GND*%
X167741600Y-72999600D03*
%TO.P,J4,5*%
X165201600Y-72999600D03*
%TO.P,J4,4*%
X167741600Y-70459600D03*
%TO.P,J4,3*%
X165201600Y-70459600D03*
%TO.P,J4,2*%
X167741600Y-67919600D03*
D20*
%TO.P,J4,1*%
X165201600Y-67919600D03*
%TD*%
D19*
%TO.P,J3,6*%
%TO.N,/3V3*%
X158800800Y-72898000D03*
%TO.P,J3,5*%
X156260800Y-72898000D03*
%TO.P,J3,4*%
X158800800Y-70358000D03*
%TO.P,J3,3*%
X156260800Y-70358000D03*
%TO.P,J3,2*%
X158800800Y-67818000D03*
D20*
%TO.P,J3,1*%
X156260800Y-67818000D03*
%TD*%
D21*
%TO.P,J1,2*%
%TO.N,GND*%
X94742000Y-67413000D03*
X94742000Y-61873000D03*
%TD*%
D22*
%TO.P,H4,1*%
%TO.N,N/C*%
X166370000Y-93980000D03*
%TD*%
%TO.P,H3,1*%
%TO.N,N/C*%
X167640000Y-39370000D03*
%TD*%
%TO.P,H2,1*%
%TO.N,N/C*%
X96520000Y-39370000D03*
%TD*%
%TO.P,H1,1*%
%TO.N,N/C*%
X96520000Y-95250000D03*
%TD*%
D23*
%TO.N,GND*%
X101473000Y-64770000D03*
X109220000Y-72517000D03*
X103124000Y-71120000D03*
X110236000Y-61722000D03*
X119253000Y-61595000D03*
X121158000Y-58801000D03*
X108077000Y-58801000D03*
X109982000Y-52451000D03*
X117983000Y-52451000D03*
X112903000Y-43688000D03*
X119253000Y-43561000D03*
X132080000Y-80899000D03*
X120142000Y-71501000D03*
X94488000Y-60071000D03*
X94615000Y-69088000D03*
X118872000Y-54229000D03*
X110236000Y-54102000D03*
X104521000Y-60071000D03*
X108712000Y-67183000D03*
X110236000Y-62611000D03*
X110236000Y-64516000D03*
%TO.N,/AVDD*%
X100330000Y-63209000D03*
X100330000Y-61214000D03*
%TO.N,/MOSI1*%
X152273000Y-53848000D03*
X158115000Y-62230000D03*
%TO.N,/SCK1*%
X159101396Y-62065601D03*
%TO.N,/CS1*%
X161358153Y-63558847D03*
%TO.N,/MC8*%
X155321000Y-63627000D03*
X153924000Y-66294000D03*
%TO.N,/MC7*%
X153162000Y-65278000D03*
X153416000Y-58166000D03*
%TO.N,/VOS*%
X102870000Y-65645001D03*
X102870000Y-68072000D03*
%TO.N,/MISO*%
X137489154Y-57582846D03*
X132583347Y-59304347D03*
%TO.N,/~IRQ*%
X129403694Y-61378000D03*
X132969000Y-61341000D03*
%TO.N,/MCLK*%
X131064000Y-59309000D03*
X133985000Y-62484000D03*
%TO.N,/~CS*%
X142743347Y-69092653D03*
X145415000Y-68961000D03*
%TD*%
D24*
%TO.N,/AVDD*%
X100330000Y-63209000D02*
X100330000Y-61087000D01*
X100330000Y-61087000D02*
X100330000Y-61214000D01*
%TO.N,/MOSI1*%
X152273000Y-53848000D02*
X158115000Y-59690000D01*
X158115000Y-59690000D02*
X158115000Y-62230000D01*
%TO.N,/SCK1*%
X159101396Y-59025396D02*
X151130000Y-51054000D01*
X159101396Y-62065601D02*
X159101396Y-59025396D01*
%TO.N,/CS1*%
X151130000Y-48895000D02*
X151130000Y-48514000D01*
X151638000Y-49403000D02*
X151130000Y-48895000D01*
X159826397Y-57845397D02*
X151638000Y-49657000D01*
X161358153Y-63558847D02*
X159826397Y-62027091D01*
X151638000Y-49657000D02*
X151638000Y-49403000D01*
X159826397Y-62027091D02*
X159826397Y-57845397D01*
%TO.N,/MC8*%
X155321000Y-63627000D02*
X155321000Y-64770000D01*
X153924000Y-66167000D02*
X153924000Y-66294000D01*
X155321000Y-64770000D02*
X153924000Y-66167000D01*
%TO.N,/MC7*%
X153162000Y-65278000D02*
X153162000Y-58293000D01*
X153289000Y-58166000D02*
X153416000Y-58166000D01*
X153162000Y-58293000D02*
X153289000Y-58166000D01*
%TO.N,/VOS*%
X102870000Y-65645001D02*
X102870000Y-68072000D01*
%TO.N,/MISO*%
X134338695Y-57548999D02*
X132583347Y-59304347D01*
X137455307Y-57548999D02*
X134338695Y-57548999D01*
X137489154Y-57582846D02*
X137455307Y-57548999D01*
%TO.N,/~IRQ*%
X132932000Y-61378000D02*
X132969000Y-61341000D01*
X129403694Y-61378000D02*
X132932000Y-61378000D01*
%TO.N,/MCLK*%
X133985000Y-61283998D02*
X133985000Y-62484000D01*
X132370999Y-60615999D02*
X133317001Y-60615999D01*
X133317001Y-60615999D02*
X133985000Y-61283998D01*
X131064000Y-59309000D02*
X132370999Y-60615999D01*
%TO.N,/~CS*%
X142743347Y-69092653D02*
X145283347Y-69092653D01*
X145283347Y-69092653D02*
X145415000Y-68961000D01*
%TD*%
D25*
%TO.N,GND*%
G36*
X114173000Y-68580000D02*
G01*
X114175440Y-68604776D01*
X114182667Y-68628601D01*
X114194403Y-68650557D01*
X114210197Y-68669803D01*
X114229443Y-68685597D01*
X114251399Y-68697333D01*
X114275224Y-68704560D01*
X114300000Y-68707000D01*
X120523000Y-68707000D01*
X120523000Y-74900020D01*
X108138010Y-99670000D01*
X92100000Y-99670000D01*
X92100000Y-94990475D01*
X93885000Y-94990475D01*
X93885000Y-95509525D01*
X93986261Y-96018601D01*
X94184893Y-96498141D01*
X94473262Y-96929715D01*
X94840285Y-97296738D01*
X95271859Y-97585107D01*
X95751399Y-97783739D01*
X96260475Y-97885000D01*
X96779525Y-97885000D01*
X97288601Y-97783739D01*
X97768141Y-97585107D01*
X98199715Y-97296738D01*
X98566738Y-96929715D01*
X98855107Y-96498141D01*
X99053739Y-96018601D01*
X99155000Y-95509525D01*
X99155000Y-94990475D01*
X99053739Y-94481399D01*
X98855107Y-94001859D01*
X98566738Y-93570285D01*
X98199715Y-93203262D01*
X97768141Y-92914893D01*
X97288601Y-92716261D01*
X96779525Y-92615000D01*
X96260475Y-92615000D01*
X95751399Y-92716261D01*
X95271859Y-92914893D01*
X94840285Y-93203262D01*
X94473262Y-93570285D01*
X94184893Y-94001859D01*
X93986261Y-94481399D01*
X93885000Y-94990475D01*
X92100000Y-94990475D01*
X92100000Y-75911967D01*
X105172000Y-75911967D01*
X105172000Y-76234033D01*
X105234832Y-76549912D01*
X105358082Y-76847463D01*
X105537013Y-77115252D01*
X105764748Y-77342987D01*
X106032537Y-77521918D01*
X106330088Y-77645168D01*
X106645967Y-77708000D01*
X106968033Y-77708000D01*
X107283912Y-77645168D01*
X107581463Y-77521918D01*
X107849252Y-77342987D01*
X108076987Y-77115252D01*
X108255918Y-76847463D01*
X108379168Y-76549912D01*
X108442000Y-76234033D01*
X108442000Y-75911967D01*
X108379168Y-75596088D01*
X108255918Y-75298537D01*
X108076987Y-75030748D01*
X107849252Y-74803013D01*
X107608230Y-74641967D01*
X110760000Y-74641967D01*
X110760000Y-74964033D01*
X110822832Y-75279912D01*
X110946082Y-75577463D01*
X111125013Y-75845252D01*
X111352748Y-76072987D01*
X111620537Y-76251918D01*
X111918088Y-76375168D01*
X112233967Y-76438000D01*
X112556033Y-76438000D01*
X112871912Y-76375168D01*
X113169463Y-76251918D01*
X113437252Y-76072987D01*
X113664987Y-75845252D01*
X113843918Y-75577463D01*
X113967168Y-75279912D01*
X114030000Y-74964033D01*
X114030000Y-74641967D01*
X113967168Y-74326088D01*
X113843918Y-74028537D01*
X113664987Y-73760748D01*
X113437252Y-73533013D01*
X113169463Y-73354082D01*
X112871912Y-73230832D01*
X112556033Y-73168000D01*
X112233967Y-73168000D01*
X111918088Y-73230832D01*
X111620537Y-73354082D01*
X111352748Y-73533013D01*
X111125013Y-73760748D01*
X110946082Y-74028537D01*
X110822832Y-74326088D01*
X110760000Y-74641967D01*
X107608230Y-74641967D01*
X107581463Y-74624082D01*
X107283912Y-74500832D01*
X106968033Y-74438000D01*
X106645967Y-74438000D01*
X106330088Y-74500832D01*
X106032537Y-74624082D01*
X105764748Y-74803013D01*
X105537013Y-75030748D01*
X105358082Y-75298537D01*
X105234832Y-75596088D01*
X105172000Y-75911967D01*
X92100000Y-75911967D01*
X92100000Y-69815967D01*
X97171000Y-69815967D01*
X97171000Y-70138033D01*
X97233832Y-70453912D01*
X97357082Y-70751463D01*
X97536013Y-71019252D01*
X97763748Y-71246987D01*
X98031537Y-71425918D01*
X98329088Y-71549168D01*
X98644967Y-71612000D01*
X98967033Y-71612000D01*
X99282912Y-71549168D01*
X99580463Y-71425918D01*
X99848252Y-71246987D01*
X100075987Y-71019252D01*
X100254918Y-70751463D01*
X100378168Y-70453912D01*
X100441000Y-70138033D01*
X100441000Y-69815967D01*
X100378168Y-69500088D01*
X100254918Y-69202537D01*
X100075987Y-68934748D01*
X99848252Y-68707013D01*
X99580463Y-68528082D01*
X99282912Y-68404832D01*
X98967033Y-68342000D01*
X98644967Y-68342000D01*
X98329088Y-68404832D01*
X98031537Y-68528082D01*
X97763748Y-68707013D01*
X97536013Y-68934748D01*
X97357082Y-69202537D01*
X97233832Y-69500088D01*
X97171000Y-69815967D01*
X92100000Y-69815967D01*
X92100000Y-68841026D01*
X92202000Y-68851072D01*
X94456250Y-68848000D01*
X94615000Y-68689250D01*
X94615000Y-67540000D01*
X94869000Y-67540000D01*
X94869000Y-68689250D01*
X95027750Y-68848000D01*
X97282000Y-68851072D01*
X97406482Y-68838812D01*
X97526180Y-68802502D01*
X97636494Y-68743537D01*
X97733185Y-68664185D01*
X97812537Y-68567494D01*
X97871502Y-68457180D01*
X97907812Y-68337482D01*
X97920072Y-68213000D01*
X97917000Y-67698750D01*
X97758250Y-67540000D01*
X94869000Y-67540000D01*
X94615000Y-67540000D01*
X94595000Y-67540000D01*
X94595000Y-67286000D01*
X94615000Y-67286000D01*
X94615000Y-66136750D01*
X94869000Y-66136750D01*
X94869000Y-67286000D01*
X97758250Y-67286000D01*
X97917000Y-67127250D01*
X97920072Y-66613000D01*
X97907812Y-66488518D01*
X97871502Y-66368820D01*
X97812537Y-66258506D01*
X97733185Y-66161815D01*
X97636494Y-66082463D01*
X97526180Y-66023498D01*
X97406482Y-65987188D01*
X97282000Y-65974928D01*
X95027750Y-65978000D01*
X94869000Y-66136750D01*
X94615000Y-66136750D01*
X94456250Y-65978000D01*
X92202000Y-65974928D01*
X92100000Y-65984974D01*
X92100000Y-65543062D01*
X101835000Y-65543062D01*
X101835000Y-65746940D01*
X101874774Y-65946899D01*
X101952795Y-66135257D01*
X102066063Y-66304775D01*
X102110000Y-66348712D01*
X102110001Y-67368288D01*
X102066063Y-67412226D01*
X101952795Y-67581744D01*
X101874774Y-67770102D01*
X101835000Y-67970061D01*
X101835000Y-68173939D01*
X101874774Y-68373898D01*
X101952795Y-68562256D01*
X102066063Y-68731774D01*
X102210226Y-68875937D01*
X102379744Y-68989205D01*
X102568102Y-69067226D01*
X102768061Y-69107000D01*
X102971939Y-69107000D01*
X103171898Y-69067226D01*
X103360256Y-68989205D01*
X103529774Y-68875937D01*
X103673937Y-68731774D01*
X103787205Y-68562256D01*
X103865226Y-68373898D01*
X103905000Y-68173939D01*
X103905000Y-67970061D01*
X103865226Y-67770102D01*
X103787205Y-67581744D01*
X103673937Y-67412226D01*
X103630000Y-67368289D01*
X103630000Y-66348712D01*
X103673937Y-66304775D01*
X103787205Y-66135257D01*
X103865226Y-65946899D01*
X103905000Y-65746940D01*
X103905000Y-65543062D01*
X103865226Y-65343103D01*
X103787205Y-65154745D01*
X103673937Y-64985227D01*
X103529774Y-64841064D01*
X103360256Y-64727796D01*
X103171898Y-64649775D01*
X102971939Y-64610001D01*
X102768061Y-64610001D01*
X102568102Y-64649775D01*
X102379744Y-64727796D01*
X102210226Y-64841064D01*
X102066063Y-64985227D01*
X101952795Y-65154745D01*
X101874774Y-65343103D01*
X101835000Y-65543062D01*
X92100000Y-65543062D01*
X92100000Y-63301026D01*
X92202000Y-63311072D01*
X94456250Y-63308000D01*
X94615000Y-63149250D01*
X94615000Y-62000000D01*
X94869000Y-62000000D01*
X94869000Y-63149250D01*
X95027750Y-63308000D01*
X97282000Y-63311072D01*
X97406482Y-63298812D01*
X97526180Y-63262502D01*
X97636494Y-63203537D01*
X97733185Y-63124185D01*
X97812537Y-63027494D01*
X97871502Y-62917180D01*
X97907812Y-62797482D01*
X97920072Y-62673000D01*
X97917000Y-62158750D01*
X97758250Y-62000000D01*
X94869000Y-62000000D01*
X94615000Y-62000000D01*
X94595000Y-62000000D01*
X94595000Y-61746000D01*
X94615000Y-61746000D01*
X94615000Y-60596750D01*
X94869000Y-60596750D01*
X94869000Y-61746000D01*
X97758250Y-61746000D01*
X97917000Y-61587250D01*
X97919838Y-61112061D01*
X99295000Y-61112061D01*
X99295000Y-61315939D01*
X99334774Y-61515898D01*
X99412795Y-61704256D01*
X99526063Y-61873774D01*
X99570001Y-61917712D01*
X99570000Y-62505289D01*
X99526063Y-62549226D01*
X99412795Y-62718744D01*
X99334774Y-62907102D01*
X99295000Y-63107061D01*
X99295000Y-63310939D01*
X99334774Y-63510898D01*
X99412795Y-63699256D01*
X99526063Y-63868774D01*
X99670226Y-64012937D01*
X99839744Y-64126205D01*
X100028102Y-64204226D01*
X100228061Y-64244000D01*
X100431939Y-64244000D01*
X100631898Y-64204226D01*
X100820256Y-64126205D01*
X100989774Y-64012937D01*
X101133937Y-63868774D01*
X101247205Y-63699256D01*
X101325226Y-63510898D01*
X101365000Y-63310939D01*
X101365000Y-63107061D01*
X101325226Y-62907102D01*
X101247205Y-62718744D01*
X101133937Y-62549226D01*
X101090000Y-62505289D01*
X101090000Y-61917711D01*
X101133937Y-61873774D01*
X101247205Y-61704256D01*
X101325226Y-61515898D01*
X101365000Y-61315939D01*
X101365000Y-61112061D01*
X101325226Y-60912102D01*
X101247205Y-60723744D01*
X101133937Y-60554226D01*
X100989774Y-60410063D01*
X100820256Y-60296795D01*
X100631898Y-60218774D01*
X100431939Y-60179000D01*
X100228061Y-60179000D01*
X100028102Y-60218774D01*
X99839744Y-60296795D01*
X99670226Y-60410063D01*
X99526063Y-60554226D01*
X99412795Y-60723744D01*
X99334774Y-60912102D01*
X99295000Y-61112061D01*
X97919838Y-61112061D01*
X97920072Y-61073000D01*
X97907812Y-60948518D01*
X97871502Y-60828820D01*
X97812537Y-60718506D01*
X97733185Y-60621815D01*
X97636494Y-60542463D01*
X97526180Y-60483498D01*
X97406482Y-60447188D01*
X97282000Y-60434928D01*
X95027750Y-60438000D01*
X94869000Y-60596750D01*
X94615000Y-60596750D01*
X94456250Y-60438000D01*
X92202000Y-60434928D01*
X92100000Y-60444974D01*
X92100000Y-58385967D01*
X96663000Y-58385967D01*
X96663000Y-58708033D01*
X96725832Y-59023912D01*
X96849082Y-59321463D01*
X97028013Y-59589252D01*
X97255748Y-59816987D01*
X97523537Y-59995918D01*
X97821088Y-60119168D01*
X98136967Y-60182000D01*
X98459033Y-60182000D01*
X98774912Y-60119168D01*
X99072463Y-59995918D01*
X99340252Y-59816987D01*
X99567987Y-59589252D01*
X99746918Y-59321463D01*
X99870168Y-59023912D01*
X99933000Y-58708033D01*
X99933000Y-58385967D01*
X99870168Y-58070088D01*
X99746918Y-57772537D01*
X99567987Y-57504748D01*
X99340252Y-57277013D01*
X99072463Y-57098082D01*
X98774912Y-56974832D01*
X98459033Y-56912000D01*
X98136967Y-56912000D01*
X97821088Y-56974832D01*
X97523537Y-57098082D01*
X97255748Y-57277013D01*
X97028013Y-57504748D01*
X96849082Y-57772537D01*
X96725832Y-58070088D01*
X96663000Y-58385967D01*
X92100000Y-58385967D01*
X92100000Y-53718865D01*
X92171782Y-53718865D01*
X92202095Y-53844528D01*
X92330304Y-54137205D01*
X92513148Y-54399246D01*
X92743601Y-54620581D01*
X93012806Y-54792704D01*
X93310418Y-54909000D01*
X93625000Y-54965000D01*
X94615000Y-54965000D01*
X94615000Y-53467000D01*
X94869000Y-53467000D01*
X94869000Y-54965000D01*
X95859000Y-54965000D01*
X96173582Y-54909000D01*
X96471194Y-54792704D01*
X96740399Y-54620581D01*
X96970852Y-54399246D01*
X97153696Y-54137205D01*
X97281905Y-53844528D01*
X97312218Y-53718865D01*
X97192740Y-53467000D01*
X94869000Y-53467000D01*
X94615000Y-53467000D01*
X92291260Y-53467000D01*
X92171782Y-53718865D01*
X92100000Y-53718865D01*
X92100000Y-53432967D01*
X104156000Y-53432967D01*
X104156000Y-53755033D01*
X104218832Y-54070912D01*
X104342082Y-54368463D01*
X104521013Y-54636252D01*
X104748748Y-54863987D01*
X105016537Y-55042918D01*
X105314088Y-55166168D01*
X105629967Y-55229000D01*
X105952033Y-55229000D01*
X106267912Y-55166168D01*
X106565463Y-55042918D01*
X106833252Y-54863987D01*
X107060987Y-54636252D01*
X107239918Y-54368463D01*
X107363168Y-54070912D01*
X107426000Y-53755033D01*
X107426000Y-53432967D01*
X107363168Y-53117088D01*
X107239918Y-52819537D01*
X107060987Y-52551748D01*
X106833252Y-52324013D01*
X106565463Y-52145082D01*
X106267912Y-52021832D01*
X105952033Y-51959000D01*
X105629967Y-51959000D01*
X105314088Y-52021832D01*
X105016537Y-52145082D01*
X104748748Y-52324013D01*
X104521013Y-52551748D01*
X104342082Y-52819537D01*
X104218832Y-53117088D01*
X104156000Y-53432967D01*
X92100000Y-53432967D01*
X92100000Y-52961135D01*
X92171782Y-52961135D01*
X92291260Y-53213000D01*
X94615000Y-53213000D01*
X94615000Y-51715000D01*
X94869000Y-51715000D01*
X94869000Y-53213000D01*
X97192740Y-53213000D01*
X97312218Y-52961135D01*
X97281905Y-52835472D01*
X97153696Y-52542795D01*
X96970852Y-52280754D01*
X96740399Y-52059419D01*
X96471194Y-51887296D01*
X96173582Y-51771000D01*
X95859000Y-51715000D01*
X94869000Y-51715000D01*
X94615000Y-51715000D01*
X93625000Y-51715000D01*
X93310418Y-51771000D01*
X93012806Y-51887296D01*
X92743601Y-52059419D01*
X92513148Y-52280754D01*
X92330304Y-52542795D01*
X92202095Y-52835472D01*
X92171782Y-52961135D01*
X92100000Y-52961135D01*
X92100000Y-47350000D01*
X92123928Y-47350000D01*
X92123928Y-49330000D01*
X92136188Y-49454482D01*
X92172498Y-49574180D01*
X92231463Y-49684494D01*
X92310815Y-49781185D01*
X92407506Y-49860537D01*
X92517820Y-49919502D01*
X92637518Y-49955812D01*
X92762000Y-49968072D01*
X96722000Y-49968072D01*
X96846482Y-49955812D01*
X96966180Y-49919502D01*
X97076494Y-49860537D01*
X97173185Y-49781185D01*
X97198804Y-49749967D01*
X103648000Y-49749967D01*
X103648000Y-50072033D01*
X103710832Y-50387912D01*
X103834082Y-50685463D01*
X104013013Y-50953252D01*
X104240748Y-51180987D01*
X104508537Y-51359918D01*
X104806088Y-51483168D01*
X105121967Y-51546000D01*
X105444033Y-51546000D01*
X105759912Y-51483168D01*
X106057463Y-51359918D01*
X106325252Y-51180987D01*
X106552987Y-50953252D01*
X106731918Y-50685463D01*
X106855168Y-50387912D01*
X106918000Y-50072033D01*
X106918000Y-49749967D01*
X106855168Y-49434088D01*
X106731918Y-49136537D01*
X106552987Y-48868748D01*
X106325252Y-48641013D01*
X106057463Y-48462082D01*
X105759912Y-48338832D01*
X105444033Y-48276000D01*
X105121967Y-48276000D01*
X104806088Y-48338832D01*
X104508537Y-48462082D01*
X104240748Y-48641013D01*
X104013013Y-48868748D01*
X103834082Y-49136537D01*
X103710832Y-49434088D01*
X103648000Y-49749967D01*
X97198804Y-49749967D01*
X97252537Y-49684494D01*
X97311502Y-49574180D01*
X97347812Y-49454482D01*
X97360072Y-49330000D01*
X97360072Y-47350000D01*
X97347812Y-47225518D01*
X97311502Y-47105820D01*
X97252537Y-46995506D01*
X97173185Y-46898815D01*
X97076494Y-46819463D01*
X96966180Y-46760498D01*
X96846482Y-46724188D01*
X96722000Y-46711928D01*
X92762000Y-46711928D01*
X92637518Y-46724188D01*
X92517820Y-46760498D01*
X92407506Y-46819463D01*
X92310815Y-46898815D01*
X92231463Y-46995506D01*
X92172498Y-47105820D01*
X92136188Y-47225518D01*
X92123928Y-47350000D01*
X92100000Y-47350000D01*
X92100000Y-39110475D01*
X93885000Y-39110475D01*
X93885000Y-39629525D01*
X93986261Y-40138601D01*
X94184893Y-40618141D01*
X94473262Y-41049715D01*
X94840285Y-41416738D01*
X95271859Y-41705107D01*
X95751399Y-41903739D01*
X96260475Y-42005000D01*
X96779525Y-42005000D01*
X97288601Y-41903739D01*
X97768141Y-41705107D01*
X98199715Y-41416738D01*
X98566738Y-41049715D01*
X98855107Y-40618141D01*
X99053739Y-40138601D01*
X99155000Y-39629525D01*
X99155000Y-39110475D01*
X99053739Y-38601399D01*
X98855107Y-38121859D01*
X98566738Y-37690285D01*
X98199715Y-37323262D01*
X97768141Y-37034893D01*
X97288601Y-36836261D01*
X96779525Y-36735000D01*
X96260475Y-36735000D01*
X95751399Y-36836261D01*
X95271859Y-37034893D01*
X94840285Y-37323262D01*
X94473262Y-37690285D01*
X94184893Y-38121859D01*
X93986261Y-38601399D01*
X93885000Y-39110475D01*
X92100000Y-39110475D01*
X92100000Y-34950000D01*
X114173000Y-34950000D01*
X114173000Y-68580000D01*
G37*
X114173000Y-68580000D02*
X114175440Y-68604776D01*
X114182667Y-68628601D01*
X114194403Y-68650557D01*
X114210197Y-68669803D01*
X114229443Y-68685597D01*
X114251399Y-68697333D01*
X114275224Y-68704560D01*
X114300000Y-68707000D01*
X120523000Y-68707000D01*
X120523000Y-74900020D01*
X108138010Y-99670000D01*
X92100000Y-99670000D01*
X92100000Y-94990475D01*
X93885000Y-94990475D01*
X93885000Y-95509525D01*
X93986261Y-96018601D01*
X94184893Y-96498141D01*
X94473262Y-96929715D01*
X94840285Y-97296738D01*
X95271859Y-97585107D01*
X95751399Y-97783739D01*
X96260475Y-97885000D01*
X96779525Y-97885000D01*
X97288601Y-97783739D01*
X97768141Y-97585107D01*
X98199715Y-97296738D01*
X98566738Y-96929715D01*
X98855107Y-96498141D01*
X99053739Y-96018601D01*
X99155000Y-95509525D01*
X99155000Y-94990475D01*
X99053739Y-94481399D01*
X98855107Y-94001859D01*
X98566738Y-93570285D01*
X98199715Y-93203262D01*
X97768141Y-92914893D01*
X97288601Y-92716261D01*
X96779525Y-92615000D01*
X96260475Y-92615000D01*
X95751399Y-92716261D01*
X95271859Y-92914893D01*
X94840285Y-93203262D01*
X94473262Y-93570285D01*
X94184893Y-94001859D01*
X93986261Y-94481399D01*
X93885000Y-94990475D01*
X92100000Y-94990475D01*
X92100000Y-75911967D01*
X105172000Y-75911967D01*
X105172000Y-76234033D01*
X105234832Y-76549912D01*
X105358082Y-76847463D01*
X105537013Y-77115252D01*
X105764748Y-77342987D01*
X106032537Y-77521918D01*
X106330088Y-77645168D01*
X106645967Y-77708000D01*
X106968033Y-77708000D01*
X107283912Y-77645168D01*
X107581463Y-77521918D01*
X107849252Y-77342987D01*
X108076987Y-77115252D01*
X108255918Y-76847463D01*
X108379168Y-76549912D01*
X108442000Y-76234033D01*
X108442000Y-75911967D01*
X108379168Y-75596088D01*
X108255918Y-75298537D01*
X108076987Y-75030748D01*
X107849252Y-74803013D01*
X107608230Y-74641967D01*
X110760000Y-74641967D01*
X110760000Y-74964033D01*
X110822832Y-75279912D01*
X110946082Y-75577463D01*
X111125013Y-75845252D01*
X111352748Y-76072987D01*
X111620537Y-76251918D01*
X111918088Y-76375168D01*
X112233967Y-76438000D01*
X112556033Y-76438000D01*
X112871912Y-76375168D01*
X113169463Y-76251918D01*
X113437252Y-76072987D01*
X113664987Y-75845252D01*
X113843918Y-75577463D01*
X113967168Y-75279912D01*
X114030000Y-74964033D01*
X114030000Y-74641967D01*
X113967168Y-74326088D01*
X113843918Y-74028537D01*
X113664987Y-73760748D01*
X113437252Y-73533013D01*
X113169463Y-73354082D01*
X112871912Y-73230832D01*
X112556033Y-73168000D01*
X112233967Y-73168000D01*
X111918088Y-73230832D01*
X111620537Y-73354082D01*
X111352748Y-73533013D01*
X111125013Y-73760748D01*
X110946082Y-74028537D01*
X110822832Y-74326088D01*
X110760000Y-74641967D01*
X107608230Y-74641967D01*
X107581463Y-74624082D01*
X107283912Y-74500832D01*
X106968033Y-74438000D01*
X106645967Y-74438000D01*
X106330088Y-74500832D01*
X106032537Y-74624082D01*
X105764748Y-74803013D01*
X105537013Y-75030748D01*
X105358082Y-75298537D01*
X105234832Y-75596088D01*
X105172000Y-75911967D01*
X92100000Y-75911967D01*
X92100000Y-69815967D01*
X97171000Y-69815967D01*
X97171000Y-70138033D01*
X97233832Y-70453912D01*
X97357082Y-70751463D01*
X97536013Y-71019252D01*
X97763748Y-71246987D01*
X98031537Y-71425918D01*
X98329088Y-71549168D01*
X98644967Y-71612000D01*
X98967033Y-71612000D01*
X99282912Y-71549168D01*
X99580463Y-71425918D01*
X99848252Y-71246987D01*
X100075987Y-71019252D01*
X100254918Y-70751463D01*
X100378168Y-70453912D01*
X100441000Y-70138033D01*
X100441000Y-69815967D01*
X100378168Y-69500088D01*
X100254918Y-69202537D01*
X100075987Y-68934748D01*
X99848252Y-68707013D01*
X99580463Y-68528082D01*
X99282912Y-68404832D01*
X98967033Y-68342000D01*
X98644967Y-68342000D01*
X98329088Y-68404832D01*
X98031537Y-68528082D01*
X97763748Y-68707013D01*
X97536013Y-68934748D01*
X97357082Y-69202537D01*
X97233832Y-69500088D01*
X97171000Y-69815967D01*
X92100000Y-69815967D01*
X92100000Y-68841026D01*
X92202000Y-68851072D01*
X94456250Y-68848000D01*
X94615000Y-68689250D01*
X94615000Y-67540000D01*
X94869000Y-67540000D01*
X94869000Y-68689250D01*
X95027750Y-68848000D01*
X97282000Y-68851072D01*
X97406482Y-68838812D01*
X97526180Y-68802502D01*
X97636494Y-68743537D01*
X97733185Y-68664185D01*
X97812537Y-68567494D01*
X97871502Y-68457180D01*
X97907812Y-68337482D01*
X97920072Y-68213000D01*
X97917000Y-67698750D01*
X97758250Y-67540000D01*
X94869000Y-67540000D01*
X94615000Y-67540000D01*
X94595000Y-67540000D01*
X94595000Y-67286000D01*
X94615000Y-67286000D01*
X94615000Y-66136750D01*
X94869000Y-66136750D01*
X94869000Y-67286000D01*
X97758250Y-67286000D01*
X97917000Y-67127250D01*
X97920072Y-66613000D01*
X97907812Y-66488518D01*
X97871502Y-66368820D01*
X97812537Y-66258506D01*
X97733185Y-66161815D01*
X97636494Y-66082463D01*
X97526180Y-66023498D01*
X97406482Y-65987188D01*
X97282000Y-65974928D01*
X95027750Y-65978000D01*
X94869000Y-66136750D01*
X94615000Y-66136750D01*
X94456250Y-65978000D01*
X92202000Y-65974928D01*
X92100000Y-65984974D01*
X92100000Y-65543062D01*
X101835000Y-65543062D01*
X101835000Y-65746940D01*
X101874774Y-65946899D01*
X101952795Y-66135257D01*
X102066063Y-66304775D01*
X102110000Y-66348712D01*
X102110001Y-67368288D01*
X102066063Y-67412226D01*
X101952795Y-67581744D01*
X101874774Y-67770102D01*
X101835000Y-67970061D01*
X101835000Y-68173939D01*
X101874774Y-68373898D01*
X101952795Y-68562256D01*
X102066063Y-68731774D01*
X102210226Y-68875937D01*
X102379744Y-68989205D01*
X102568102Y-69067226D01*
X102768061Y-69107000D01*
X102971939Y-69107000D01*
X103171898Y-69067226D01*
X103360256Y-68989205D01*
X103529774Y-68875937D01*
X103673937Y-68731774D01*
X103787205Y-68562256D01*
X103865226Y-68373898D01*
X103905000Y-68173939D01*
X103905000Y-67970061D01*
X103865226Y-67770102D01*
X103787205Y-67581744D01*
X103673937Y-67412226D01*
X103630000Y-67368289D01*
X103630000Y-66348712D01*
X103673937Y-66304775D01*
X103787205Y-66135257D01*
X103865226Y-65946899D01*
X103905000Y-65746940D01*
X103905000Y-65543062D01*
X103865226Y-65343103D01*
X103787205Y-65154745D01*
X103673937Y-64985227D01*
X103529774Y-64841064D01*
X103360256Y-64727796D01*
X103171898Y-64649775D01*
X102971939Y-64610001D01*
X102768061Y-64610001D01*
X102568102Y-64649775D01*
X102379744Y-64727796D01*
X102210226Y-64841064D01*
X102066063Y-64985227D01*
X101952795Y-65154745D01*
X101874774Y-65343103D01*
X101835000Y-65543062D01*
X92100000Y-65543062D01*
X92100000Y-63301026D01*
X92202000Y-63311072D01*
X94456250Y-63308000D01*
X94615000Y-63149250D01*
X94615000Y-62000000D01*
X94869000Y-62000000D01*
X94869000Y-63149250D01*
X95027750Y-63308000D01*
X97282000Y-63311072D01*
X97406482Y-63298812D01*
X97526180Y-63262502D01*
X97636494Y-63203537D01*
X97733185Y-63124185D01*
X97812537Y-63027494D01*
X97871502Y-62917180D01*
X97907812Y-62797482D01*
X97920072Y-62673000D01*
X97917000Y-62158750D01*
X97758250Y-62000000D01*
X94869000Y-62000000D01*
X94615000Y-62000000D01*
X94595000Y-62000000D01*
X94595000Y-61746000D01*
X94615000Y-61746000D01*
X94615000Y-60596750D01*
X94869000Y-60596750D01*
X94869000Y-61746000D01*
X97758250Y-61746000D01*
X97917000Y-61587250D01*
X97919838Y-61112061D01*
X99295000Y-61112061D01*
X99295000Y-61315939D01*
X99334774Y-61515898D01*
X99412795Y-61704256D01*
X99526063Y-61873774D01*
X99570001Y-61917712D01*
X99570000Y-62505289D01*
X99526063Y-62549226D01*
X99412795Y-62718744D01*
X99334774Y-62907102D01*
X99295000Y-63107061D01*
X99295000Y-63310939D01*
X99334774Y-63510898D01*
X99412795Y-63699256D01*
X99526063Y-63868774D01*
X99670226Y-64012937D01*
X99839744Y-64126205D01*
X100028102Y-64204226D01*
X100228061Y-64244000D01*
X100431939Y-64244000D01*
X100631898Y-64204226D01*
X100820256Y-64126205D01*
X100989774Y-64012937D01*
X101133937Y-63868774D01*
X101247205Y-63699256D01*
X101325226Y-63510898D01*
X101365000Y-63310939D01*
X101365000Y-63107061D01*
X101325226Y-62907102D01*
X101247205Y-62718744D01*
X101133937Y-62549226D01*
X101090000Y-62505289D01*
X101090000Y-61917711D01*
X101133937Y-61873774D01*
X101247205Y-61704256D01*
X101325226Y-61515898D01*
X101365000Y-61315939D01*
X101365000Y-61112061D01*
X101325226Y-60912102D01*
X101247205Y-60723744D01*
X101133937Y-60554226D01*
X100989774Y-60410063D01*
X100820256Y-60296795D01*
X100631898Y-60218774D01*
X100431939Y-60179000D01*
X100228061Y-60179000D01*
X100028102Y-60218774D01*
X99839744Y-60296795D01*
X99670226Y-60410063D01*
X99526063Y-60554226D01*
X99412795Y-60723744D01*
X99334774Y-60912102D01*
X99295000Y-61112061D01*
X97919838Y-61112061D01*
X97920072Y-61073000D01*
X97907812Y-60948518D01*
X97871502Y-60828820D01*
X97812537Y-60718506D01*
X97733185Y-60621815D01*
X97636494Y-60542463D01*
X97526180Y-60483498D01*
X97406482Y-60447188D01*
X97282000Y-60434928D01*
X95027750Y-60438000D01*
X94869000Y-60596750D01*
X94615000Y-60596750D01*
X94456250Y-60438000D01*
X92202000Y-60434928D01*
X92100000Y-60444974D01*
X92100000Y-58385967D01*
X96663000Y-58385967D01*
X96663000Y-58708033D01*
X96725832Y-59023912D01*
X96849082Y-59321463D01*
X97028013Y-59589252D01*
X97255748Y-59816987D01*
X97523537Y-59995918D01*
X97821088Y-60119168D01*
X98136967Y-60182000D01*
X98459033Y-60182000D01*
X98774912Y-60119168D01*
X99072463Y-59995918D01*
X99340252Y-59816987D01*
X99567987Y-59589252D01*
X99746918Y-59321463D01*
X99870168Y-59023912D01*
X99933000Y-58708033D01*
X99933000Y-58385967D01*
X99870168Y-58070088D01*
X99746918Y-57772537D01*
X99567987Y-57504748D01*
X99340252Y-57277013D01*
X99072463Y-57098082D01*
X98774912Y-56974832D01*
X98459033Y-56912000D01*
X98136967Y-56912000D01*
X97821088Y-56974832D01*
X97523537Y-57098082D01*
X97255748Y-57277013D01*
X97028013Y-57504748D01*
X96849082Y-57772537D01*
X96725832Y-58070088D01*
X96663000Y-58385967D01*
X92100000Y-58385967D01*
X92100000Y-53718865D01*
X92171782Y-53718865D01*
X92202095Y-53844528D01*
X92330304Y-54137205D01*
X92513148Y-54399246D01*
X92743601Y-54620581D01*
X93012806Y-54792704D01*
X93310418Y-54909000D01*
X93625000Y-54965000D01*
X94615000Y-54965000D01*
X94615000Y-53467000D01*
X94869000Y-53467000D01*
X94869000Y-54965000D01*
X95859000Y-54965000D01*
X96173582Y-54909000D01*
X96471194Y-54792704D01*
X96740399Y-54620581D01*
X96970852Y-54399246D01*
X97153696Y-54137205D01*
X97281905Y-53844528D01*
X97312218Y-53718865D01*
X97192740Y-53467000D01*
X94869000Y-53467000D01*
X94615000Y-53467000D01*
X92291260Y-53467000D01*
X92171782Y-53718865D01*
X92100000Y-53718865D01*
X92100000Y-53432967D01*
X104156000Y-53432967D01*
X104156000Y-53755033D01*
X104218832Y-54070912D01*
X104342082Y-54368463D01*
X104521013Y-54636252D01*
X104748748Y-54863987D01*
X105016537Y-55042918D01*
X105314088Y-55166168D01*
X105629967Y-55229000D01*
X105952033Y-55229000D01*
X106267912Y-55166168D01*
X106565463Y-55042918D01*
X106833252Y-54863987D01*
X107060987Y-54636252D01*
X107239918Y-54368463D01*
X107363168Y-54070912D01*
X107426000Y-53755033D01*
X107426000Y-53432967D01*
X107363168Y-53117088D01*
X107239918Y-52819537D01*
X107060987Y-52551748D01*
X106833252Y-52324013D01*
X106565463Y-52145082D01*
X106267912Y-52021832D01*
X105952033Y-51959000D01*
X105629967Y-51959000D01*
X105314088Y-52021832D01*
X105016537Y-52145082D01*
X104748748Y-52324013D01*
X104521013Y-52551748D01*
X104342082Y-52819537D01*
X104218832Y-53117088D01*
X104156000Y-53432967D01*
X92100000Y-53432967D01*
X92100000Y-52961135D01*
X92171782Y-52961135D01*
X92291260Y-53213000D01*
X94615000Y-53213000D01*
X94615000Y-51715000D01*
X94869000Y-51715000D01*
X94869000Y-53213000D01*
X97192740Y-53213000D01*
X97312218Y-52961135D01*
X97281905Y-52835472D01*
X97153696Y-52542795D01*
X96970852Y-52280754D01*
X96740399Y-52059419D01*
X96471194Y-51887296D01*
X96173582Y-51771000D01*
X95859000Y-51715000D01*
X94869000Y-51715000D01*
X94615000Y-51715000D01*
X93625000Y-51715000D01*
X93310418Y-51771000D01*
X93012806Y-51887296D01*
X92743601Y-52059419D01*
X92513148Y-52280754D01*
X92330304Y-52542795D01*
X92202095Y-52835472D01*
X92171782Y-52961135D01*
X92100000Y-52961135D01*
X92100000Y-47350000D01*
X92123928Y-47350000D01*
X92123928Y-49330000D01*
X92136188Y-49454482D01*
X92172498Y-49574180D01*
X92231463Y-49684494D01*
X92310815Y-49781185D01*
X92407506Y-49860537D01*
X92517820Y-49919502D01*
X92637518Y-49955812D01*
X92762000Y-49968072D01*
X96722000Y-49968072D01*
X96846482Y-49955812D01*
X96966180Y-49919502D01*
X97076494Y-49860537D01*
X97173185Y-49781185D01*
X97198804Y-49749967D01*
X103648000Y-49749967D01*
X103648000Y-50072033D01*
X103710832Y-50387912D01*
X103834082Y-50685463D01*
X104013013Y-50953252D01*
X104240748Y-51180987D01*
X104508537Y-51359918D01*
X104806088Y-51483168D01*
X105121967Y-51546000D01*
X105444033Y-51546000D01*
X105759912Y-51483168D01*
X106057463Y-51359918D01*
X106325252Y-51180987D01*
X106552987Y-50953252D01*
X106731918Y-50685463D01*
X106855168Y-50387912D01*
X106918000Y-50072033D01*
X106918000Y-49749967D01*
X106855168Y-49434088D01*
X106731918Y-49136537D01*
X106552987Y-48868748D01*
X106325252Y-48641013D01*
X106057463Y-48462082D01*
X105759912Y-48338832D01*
X105444033Y-48276000D01*
X105121967Y-48276000D01*
X104806088Y-48338832D01*
X104508537Y-48462082D01*
X104240748Y-48641013D01*
X104013013Y-48868748D01*
X103834082Y-49136537D01*
X103710832Y-49434088D01*
X103648000Y-49749967D01*
X97198804Y-49749967D01*
X97252537Y-49684494D01*
X97311502Y-49574180D01*
X97347812Y-49454482D01*
X97360072Y-49330000D01*
X97360072Y-47350000D01*
X97347812Y-47225518D01*
X97311502Y-47105820D01*
X97252537Y-46995506D01*
X97173185Y-46898815D01*
X97076494Y-46819463D01*
X96966180Y-46760498D01*
X96846482Y-46724188D01*
X96722000Y-46711928D01*
X92762000Y-46711928D01*
X92637518Y-46724188D01*
X92517820Y-46760498D01*
X92407506Y-46819463D01*
X92310815Y-46898815D01*
X92231463Y-46995506D01*
X92172498Y-47105820D01*
X92136188Y-47225518D01*
X92123928Y-47350000D01*
X92100000Y-47350000D01*
X92100000Y-39110475D01*
X93885000Y-39110475D01*
X93885000Y-39629525D01*
X93986261Y-40138601D01*
X94184893Y-40618141D01*
X94473262Y-41049715D01*
X94840285Y-41416738D01*
X95271859Y-41705107D01*
X95751399Y-41903739D01*
X96260475Y-42005000D01*
X96779525Y-42005000D01*
X97288601Y-41903739D01*
X97768141Y-41705107D01*
X98199715Y-41416738D01*
X98566738Y-41049715D01*
X98855107Y-40618141D01*
X99053739Y-40138601D01*
X99155000Y-39629525D01*
X99155000Y-39110475D01*
X99053739Y-38601399D01*
X98855107Y-38121859D01*
X98566738Y-37690285D01*
X98199715Y-37323262D01*
X97768141Y-37034893D01*
X97288601Y-36836261D01*
X96779525Y-36735000D01*
X96260475Y-36735000D01*
X95751399Y-36836261D01*
X95271859Y-37034893D01*
X94840285Y-37323262D01*
X94473262Y-37690285D01*
X94184893Y-38121859D01*
X93986261Y-38601399D01*
X93885000Y-39110475D01*
X92100000Y-39110475D01*
X92100000Y-34950000D01*
X114173000Y-34950000D01*
X114173000Y-68580000D01*
G36*
X172060000Y-99670000D02*
G01*
X109691990Y-99670000D01*
X114327690Y-90398600D01*
X117299800Y-90398600D01*
X117299800Y-92148600D01*
X117370404Y-92611450D01*
X117529948Y-93051632D01*
X117772302Y-93452231D01*
X118088152Y-93797852D01*
X118465361Y-94075212D01*
X118889432Y-94273653D01*
X119186797Y-94354027D01*
X119557800Y-94244225D01*
X119557800Y-90398600D01*
X119811800Y-90398600D01*
X119811800Y-94244225D01*
X120182803Y-94354027D01*
X120480168Y-94273653D01*
X120904239Y-94075212D01*
X121281448Y-93797852D01*
X121597298Y-93452231D01*
X121839652Y-93051632D01*
X121999196Y-92611450D01*
X122069800Y-92148600D01*
X122069800Y-90398600D01*
X127459800Y-90398600D01*
X127459800Y-92148600D01*
X127530404Y-92611450D01*
X127689948Y-93051632D01*
X127932302Y-93452231D01*
X128248152Y-93797852D01*
X128625361Y-94075212D01*
X129049432Y-94273653D01*
X129346797Y-94354027D01*
X129717800Y-94244225D01*
X129717800Y-90398600D01*
X129971800Y-90398600D01*
X129971800Y-94244225D01*
X130342803Y-94354027D01*
X130640168Y-94273653D01*
X131064239Y-94075212D01*
X131441448Y-93797852D01*
X131757298Y-93452231D01*
X131999652Y-93051632D01*
X132159196Y-92611450D01*
X132229800Y-92148600D01*
X132229800Y-90398600D01*
X129971800Y-90398600D01*
X129717800Y-90398600D01*
X127459800Y-90398600D01*
X122069800Y-90398600D01*
X119811800Y-90398600D01*
X119557800Y-90398600D01*
X117299800Y-90398600D01*
X114327690Y-90398600D01*
X115329690Y-88394600D01*
X117299800Y-88394600D01*
X117299800Y-90144600D01*
X119557800Y-90144600D01*
X119557800Y-86298975D01*
X119811800Y-86298975D01*
X119811800Y-90144600D01*
X122069800Y-90144600D01*
X122069800Y-88394600D01*
X127459800Y-88394600D01*
X127459800Y-90144600D01*
X129717800Y-90144600D01*
X129717800Y-86298975D01*
X129971800Y-86298975D01*
X129971800Y-90144600D01*
X132229800Y-90144600D01*
X132229800Y-88394600D01*
X132159196Y-87931750D01*
X131999652Y-87491568D01*
X131757298Y-87090969D01*
X131441448Y-86745348D01*
X131064239Y-86467988D01*
X130640168Y-86269547D01*
X130342803Y-86189173D01*
X129971800Y-86298975D01*
X129717800Y-86298975D01*
X129346797Y-86189173D01*
X129049432Y-86269547D01*
X128625361Y-86467988D01*
X128248152Y-86745348D01*
X127932302Y-87090969D01*
X127689948Y-87491568D01*
X127530404Y-87931750D01*
X127459800Y-88394600D01*
X122069800Y-88394600D01*
X121999196Y-87931750D01*
X121839652Y-87491568D01*
X121597298Y-87090969D01*
X121281448Y-86745348D01*
X120904239Y-86467988D01*
X120480168Y-86269547D01*
X120182803Y-86189173D01*
X119811800Y-86298975D01*
X119557800Y-86298975D01*
X119186797Y-86189173D01*
X118889432Y-86269547D01*
X118465361Y-86467988D01*
X118088152Y-86745348D01*
X117772302Y-87090969D01*
X117529948Y-87491568D01*
X117370404Y-87931750D01*
X117299800Y-88394600D01*
X115329690Y-88394600D01*
X117191436Y-84671108D01*
X123329800Y-84671108D01*
X123329800Y-85712091D01*
X123350564Y-85922908D01*
X123432618Y-86193407D01*
X123565868Y-86442700D01*
X123745192Y-86661207D01*
X123963699Y-86840532D01*
X124212992Y-86973782D01*
X124483491Y-87055836D01*
X124764800Y-87083543D01*
X125046108Y-87055836D01*
X125316607Y-86973782D01*
X125565900Y-86840532D01*
X125784407Y-86661208D01*
X125963732Y-86442701D01*
X126032065Y-86314859D01*
X126182199Y-86544439D01*
X126379905Y-86746100D01*
X126613154Y-86905315D01*
X126872982Y-87015967D01*
X126955761Y-87033504D01*
X127177800Y-86911515D01*
X127177800Y-85318600D01*
X127431800Y-85318600D01*
X127431800Y-86911515D01*
X127653839Y-87033504D01*
X127736618Y-87015967D01*
X127996446Y-86905315D01*
X128229695Y-86746100D01*
X128427401Y-86544439D01*
X128581966Y-86308083D01*
X128687450Y-86046114D01*
X128739800Y-85768600D01*
X128739800Y-85318600D01*
X127431800Y-85318600D01*
X127177800Y-85318600D01*
X127157800Y-85318600D01*
X127157800Y-85064600D01*
X127177800Y-85064600D01*
X127177800Y-83471685D01*
X127431800Y-83471685D01*
X127431800Y-85064600D01*
X128739800Y-85064600D01*
X128739800Y-84614600D01*
X128687450Y-84337086D01*
X128581966Y-84075117D01*
X128427401Y-83838761D01*
X128229695Y-83637100D01*
X127996446Y-83477885D01*
X127736618Y-83367233D01*
X127653839Y-83349696D01*
X127431800Y-83471685D01*
X127177800Y-83471685D01*
X126955761Y-83349696D01*
X126872982Y-83367233D01*
X126613154Y-83477885D01*
X126379905Y-83637100D01*
X126182199Y-83838761D01*
X126032065Y-84068341D01*
X125963732Y-83940499D01*
X125784408Y-83721992D01*
X125565901Y-83542668D01*
X125316608Y-83409418D01*
X125046109Y-83327364D01*
X124764800Y-83299657D01*
X124483492Y-83327364D01*
X124212993Y-83409418D01*
X123963700Y-83542668D01*
X123745193Y-83721992D01*
X123565868Y-83940499D01*
X123432618Y-84189792D01*
X123350564Y-84460291D01*
X123329800Y-84671108D01*
X117191436Y-84671108D01*
X120951014Y-77151952D01*
X120982832Y-77311912D01*
X121106082Y-77609463D01*
X121285013Y-77877252D01*
X121512748Y-78104987D01*
X121780537Y-78283918D01*
X122078088Y-78407168D01*
X122393967Y-78470000D01*
X122716033Y-78470000D01*
X123031912Y-78407168D01*
X123329463Y-78283918D01*
X123597252Y-78104987D01*
X123824987Y-77877252D01*
X124003918Y-77609463D01*
X124127168Y-77311912D01*
X124190000Y-76996033D01*
X124190000Y-76673967D01*
X124127168Y-76358088D01*
X124003918Y-76060537D01*
X123824987Y-75792748D01*
X123597252Y-75565013D01*
X123329463Y-75386082D01*
X123031912Y-75262832D01*
X122716033Y-75200000D01*
X122393967Y-75200000D01*
X122078088Y-75262832D01*
X121847900Y-75358179D01*
X122033592Y-74986796D01*
X122042490Y-74963544D01*
X122047000Y-74930000D01*
X122047000Y-67310000D01*
X122044560Y-67285224D01*
X122037333Y-67261399D01*
X122025597Y-67239443D01*
X122009803Y-67220197D01*
X121990557Y-67204403D01*
X121968601Y-67192667D01*
X121944776Y-67185440D01*
X121920000Y-67183000D01*
X115697000Y-67183000D01*
X115697000Y-61276061D01*
X128368694Y-61276061D01*
X128368694Y-61479939D01*
X128408468Y-61679898D01*
X128486489Y-61868256D01*
X128599757Y-62037774D01*
X128743920Y-62181937D01*
X128913438Y-62295205D01*
X129101796Y-62373226D01*
X129301755Y-62413000D01*
X129505633Y-62413000D01*
X129705592Y-62373226D01*
X129893950Y-62295205D01*
X130063468Y-62181937D01*
X130107405Y-62138000D01*
X132302289Y-62138000D01*
X132309226Y-62144937D01*
X132478744Y-62258205D01*
X132667102Y-62336226D01*
X132867061Y-62376000D01*
X132951206Y-62376000D01*
X132950000Y-62382061D01*
X132950000Y-62585939D01*
X132989774Y-62785898D01*
X133067795Y-62974256D01*
X133181063Y-63143774D01*
X133325226Y-63287937D01*
X133494744Y-63401205D01*
X133683102Y-63479226D01*
X133883061Y-63519000D01*
X134086939Y-63519000D01*
X134286898Y-63479226D01*
X134475256Y-63401205D01*
X134500405Y-63384401D01*
X134455000Y-63612665D01*
X134455000Y-63895335D01*
X134510147Y-64172574D01*
X134618320Y-64433727D01*
X134775363Y-64668759D01*
X134975241Y-64868637D01*
X135207759Y-65024000D01*
X134975241Y-65179363D01*
X134775363Y-65379241D01*
X134618320Y-65614273D01*
X134510147Y-65875426D01*
X134455000Y-66152665D01*
X134455000Y-66435335D01*
X134510147Y-66712574D01*
X134618320Y-66973727D01*
X134775363Y-67208759D01*
X134975241Y-67408637D01*
X135207759Y-67564000D01*
X134975241Y-67719363D01*
X134775363Y-67919241D01*
X134618320Y-68154273D01*
X134510147Y-68415426D01*
X134455000Y-68692665D01*
X134455000Y-68975335D01*
X134510147Y-69252574D01*
X134618320Y-69513727D01*
X134775363Y-69748759D01*
X134975241Y-69948637D01*
X135207759Y-70104000D01*
X134975241Y-70259363D01*
X134775363Y-70459241D01*
X134618320Y-70694273D01*
X134510147Y-70955426D01*
X134455000Y-71232665D01*
X134455000Y-71515335D01*
X134510147Y-71792574D01*
X134618320Y-72053727D01*
X134775363Y-72288759D01*
X134975241Y-72488637D01*
X135207759Y-72644000D01*
X134975241Y-72799363D01*
X134775363Y-72999241D01*
X134618320Y-73234273D01*
X134510147Y-73495426D01*
X134455000Y-73772665D01*
X134455000Y-74055335D01*
X134510147Y-74332574D01*
X134618320Y-74593727D01*
X134775363Y-74828759D01*
X134975241Y-75028637D01*
X135207759Y-75184000D01*
X134975241Y-75339363D01*
X134775363Y-75539241D01*
X134618320Y-75774273D01*
X134510147Y-76035426D01*
X134455000Y-76312665D01*
X134455000Y-76595335D01*
X134510147Y-76872574D01*
X134618320Y-77133727D01*
X134775363Y-77368759D01*
X134975241Y-77568637D01*
X135207759Y-77724000D01*
X134975241Y-77879363D01*
X134775363Y-78079241D01*
X134618320Y-78314273D01*
X134510147Y-78575426D01*
X134455000Y-78852665D01*
X134455000Y-79135335D01*
X134510147Y-79412574D01*
X134618320Y-79673727D01*
X134775363Y-79908759D01*
X134975241Y-80108637D01*
X135207759Y-80264000D01*
X134975241Y-80419363D01*
X134775363Y-80619241D01*
X134618320Y-80854273D01*
X134510147Y-81115426D01*
X134455000Y-81392665D01*
X134455000Y-81675335D01*
X134510147Y-81952574D01*
X134618320Y-82213727D01*
X134775363Y-82448759D01*
X134975241Y-82648637D01*
X135207759Y-82804000D01*
X134975241Y-82959363D01*
X134775363Y-83159241D01*
X134618320Y-83394273D01*
X134510147Y-83655426D01*
X134455000Y-83932665D01*
X134455000Y-84215335D01*
X134510147Y-84492574D01*
X134618320Y-84753727D01*
X134775363Y-84988759D01*
X134975241Y-85188637D01*
X135207759Y-85344000D01*
X134975241Y-85499363D01*
X134775363Y-85699241D01*
X134618320Y-85934273D01*
X134510147Y-86195426D01*
X134455000Y-86472665D01*
X134455000Y-86755335D01*
X134510147Y-87032574D01*
X134618320Y-87293727D01*
X134775363Y-87528759D01*
X134975241Y-87728637D01*
X135207759Y-87884000D01*
X134975241Y-88039363D01*
X134775363Y-88239241D01*
X134618320Y-88474273D01*
X134510147Y-88735426D01*
X134455000Y-89012665D01*
X134455000Y-89295335D01*
X134510147Y-89572574D01*
X134618320Y-89833727D01*
X134775363Y-90068759D01*
X134975241Y-90268637D01*
X135207759Y-90424000D01*
X134975241Y-90579363D01*
X134775363Y-90779241D01*
X134618320Y-91014273D01*
X134510147Y-91275426D01*
X134455000Y-91552665D01*
X134455000Y-91835335D01*
X134510147Y-92112574D01*
X134618320Y-92373727D01*
X134775363Y-92608759D01*
X134975241Y-92808637D01*
X135207759Y-92964000D01*
X134975241Y-93119363D01*
X134775363Y-93319241D01*
X134618320Y-93554273D01*
X134510147Y-93815426D01*
X134455000Y-94092665D01*
X134455000Y-94375335D01*
X134510147Y-94652574D01*
X134618320Y-94913727D01*
X134775363Y-95148759D01*
X134975241Y-95348637D01*
X135207759Y-95504000D01*
X134975241Y-95659363D01*
X134775363Y-95859241D01*
X134618320Y-96094273D01*
X134510147Y-96355426D01*
X134455000Y-96632665D01*
X134455000Y-96915335D01*
X134510147Y-97192574D01*
X134618320Y-97453727D01*
X134775363Y-97688759D01*
X134975241Y-97888637D01*
X135210273Y-98045680D01*
X135471426Y-98153853D01*
X135748665Y-98209000D01*
X136031335Y-98209000D01*
X136308574Y-98153853D01*
X136569727Y-98045680D01*
X136804759Y-97888637D01*
X137004637Y-97688759D01*
X137081316Y-97574000D01*
X149691928Y-97574000D01*
X149704188Y-97698482D01*
X149740498Y-97818180D01*
X149799463Y-97928494D01*
X149878815Y-98025185D01*
X149975506Y-98104537D01*
X150085820Y-98163502D01*
X150205518Y-98199812D01*
X150330000Y-98212072D01*
X150844250Y-98209000D01*
X151003000Y-98050250D01*
X151003000Y-96901000D01*
X151257000Y-96901000D01*
X151257000Y-98050250D01*
X151415750Y-98209000D01*
X151930000Y-98212072D01*
X152054482Y-98199812D01*
X152174180Y-98163502D01*
X152284494Y-98104537D01*
X152381185Y-98025185D01*
X152460537Y-97928494D01*
X152519502Y-97818180D01*
X152555812Y-97698482D01*
X152568072Y-97574000D01*
X152565000Y-97059750D01*
X152406250Y-96901000D01*
X151257000Y-96901000D01*
X151003000Y-96901000D01*
X149853750Y-96901000D01*
X149695000Y-97059750D01*
X149691928Y-97574000D01*
X137081316Y-97574000D01*
X137161680Y-97453727D01*
X137269853Y-97192574D01*
X137325000Y-96915335D01*
X137325000Y-96632665D01*
X137269853Y-96355426D01*
X137161680Y-96094273D01*
X137043524Y-95917439D01*
X140955000Y-95917439D01*
X140955000Y-96170561D01*
X141004381Y-96418821D01*
X141101247Y-96652676D01*
X141241875Y-96863140D01*
X141420860Y-97042125D01*
X141631324Y-97182753D01*
X141865179Y-97279619D01*
X142113439Y-97329000D01*
X142366561Y-97329000D01*
X142614821Y-97279619D01*
X142848676Y-97182753D01*
X143059140Y-97042125D01*
X143238125Y-96863140D01*
X143378753Y-96652676D01*
X143475619Y-96418821D01*
X143510000Y-96245973D01*
X143544381Y-96418821D01*
X143641247Y-96652676D01*
X143781875Y-96863140D01*
X143960860Y-97042125D01*
X144171324Y-97182753D01*
X144405179Y-97279619D01*
X144653439Y-97329000D01*
X144906561Y-97329000D01*
X145154821Y-97279619D01*
X145388676Y-97182753D01*
X145599140Y-97042125D01*
X145778125Y-96863140D01*
X145918753Y-96652676D01*
X146015619Y-96418821D01*
X146065000Y-96170561D01*
X146065000Y-95917439D01*
X146015619Y-95669179D01*
X145918753Y-95435324D01*
X145778125Y-95224860D01*
X145599140Y-95045875D01*
X145388676Y-94905247D01*
X145154821Y-94808381D01*
X144906561Y-94759000D01*
X144653439Y-94759000D01*
X144405179Y-94808381D01*
X144171324Y-94905247D01*
X143960860Y-95045875D01*
X143781875Y-95224860D01*
X143641247Y-95435324D01*
X143544381Y-95669179D01*
X143510000Y-95842027D01*
X143475619Y-95669179D01*
X143378753Y-95435324D01*
X143238125Y-95224860D01*
X143059140Y-95045875D01*
X142848676Y-94905247D01*
X142614821Y-94808381D01*
X142366561Y-94759000D01*
X142113439Y-94759000D01*
X141865179Y-94808381D01*
X141631324Y-94905247D01*
X141420860Y-95045875D01*
X141241875Y-95224860D01*
X141101247Y-95435324D01*
X141004381Y-95669179D01*
X140955000Y-95917439D01*
X137043524Y-95917439D01*
X137004637Y-95859241D01*
X136804759Y-95659363D01*
X136572241Y-95504000D01*
X136804759Y-95348637D01*
X137004637Y-95148759D01*
X137160000Y-94916241D01*
X137315363Y-95148759D01*
X137515241Y-95348637D01*
X137750273Y-95505680D01*
X138011426Y-95613853D01*
X138288665Y-95669000D01*
X138571335Y-95669000D01*
X138848574Y-95613853D01*
X139109727Y-95505680D01*
X139344759Y-95348637D01*
X139544637Y-95148759D01*
X139701680Y-94913727D01*
X139809853Y-94652574D01*
X139865000Y-94375335D01*
X139865000Y-94092665D01*
X139809853Y-93815426D01*
X139701680Y-93554273D01*
X139544637Y-93319241D01*
X139344759Y-93119363D01*
X139109727Y-92962320D01*
X138848574Y-92854147D01*
X138571335Y-92799000D01*
X138288665Y-92799000D01*
X138011426Y-92854147D01*
X137750273Y-92962320D01*
X137515241Y-93119363D01*
X137315363Y-93319241D01*
X137160000Y-93551759D01*
X137004637Y-93319241D01*
X136804759Y-93119363D01*
X136572241Y-92964000D01*
X136804759Y-92808637D01*
X137004637Y-92608759D01*
X137161680Y-92373727D01*
X137269853Y-92112574D01*
X137325000Y-91835335D01*
X137325000Y-91552665D01*
X137269853Y-91275426D01*
X137161680Y-91014273D01*
X137004637Y-90779241D01*
X136804759Y-90579363D01*
X136572241Y-90424000D01*
X136804759Y-90268637D01*
X137004637Y-90068759D01*
X137161680Y-89833727D01*
X137227509Y-89674800D01*
X146641128Y-89674800D01*
X146641128Y-91274800D01*
X146653388Y-91399282D01*
X146689698Y-91518980D01*
X146748663Y-91629294D01*
X146828015Y-91725985D01*
X146924706Y-91805337D01*
X147035020Y-91864302D01*
X147154718Y-91900612D01*
X147279200Y-91912872D01*
X148879200Y-91912872D01*
X149003682Y-91900612D01*
X149123380Y-91864302D01*
X149233694Y-91805337D01*
X149330385Y-91725985D01*
X149409737Y-91629294D01*
X149468702Y-91518980D01*
X149505012Y-91399282D01*
X149517272Y-91274800D01*
X149517272Y-89674800D01*
X149505012Y-89550318D01*
X149468702Y-89430620D01*
X149409737Y-89320306D01*
X149330385Y-89223615D01*
X149233694Y-89144263D01*
X149123380Y-89085298D01*
X149003682Y-89048988D01*
X148995239Y-89048157D01*
X149193837Y-88849559D01*
X149350880Y-88614527D01*
X149459053Y-88353374D01*
X149514200Y-88076135D01*
X149514200Y-87793465D01*
X149459053Y-87516226D01*
X149350880Y-87255073D01*
X149193837Y-87020041D01*
X148993959Y-86820163D01*
X148761441Y-86664800D01*
X148993959Y-86509437D01*
X149193837Y-86309559D01*
X149350880Y-86074527D01*
X149459053Y-85813374D01*
X149514200Y-85536135D01*
X149514200Y-85253465D01*
X149459053Y-84976226D01*
X149350880Y-84715073D01*
X149193837Y-84480041D01*
X148993959Y-84280163D01*
X148761441Y-84124800D01*
X148993959Y-83969437D01*
X149193837Y-83769559D01*
X149350880Y-83534527D01*
X149459053Y-83273374D01*
X149514200Y-82996135D01*
X149514200Y-82713465D01*
X149459053Y-82436226D01*
X149350880Y-82175073D01*
X149193837Y-81940041D01*
X148993959Y-81740163D01*
X148761441Y-81584800D01*
X148993959Y-81429437D01*
X149193837Y-81229559D01*
X149350880Y-80994527D01*
X149459053Y-80733374D01*
X149514200Y-80456135D01*
X149514200Y-80173465D01*
X149459053Y-79896226D01*
X149350880Y-79635073D01*
X149193837Y-79400041D01*
X148993959Y-79200163D01*
X148758927Y-79043120D01*
X148497774Y-78934947D01*
X148220535Y-78879800D01*
X147937865Y-78879800D01*
X147660626Y-78934947D01*
X147399473Y-79043120D01*
X147164441Y-79200163D01*
X146964563Y-79400041D01*
X146807520Y-79635073D01*
X146699347Y-79896226D01*
X146644200Y-80173465D01*
X146644200Y-80456135D01*
X146699347Y-80733374D01*
X146807520Y-80994527D01*
X146964563Y-81229559D01*
X147164441Y-81429437D01*
X147396959Y-81584800D01*
X147164441Y-81740163D01*
X146964563Y-81940041D01*
X146807520Y-82175073D01*
X146699347Y-82436226D01*
X146644200Y-82713465D01*
X146644200Y-82996135D01*
X146699347Y-83273374D01*
X146807520Y-83534527D01*
X146964563Y-83769559D01*
X147164441Y-83969437D01*
X147396959Y-84124800D01*
X147164441Y-84280163D01*
X146964563Y-84480041D01*
X146807520Y-84715073D01*
X146699347Y-84976226D01*
X146644200Y-85253465D01*
X146644200Y-85536135D01*
X146699347Y-85813374D01*
X146807520Y-86074527D01*
X146964563Y-86309559D01*
X147164441Y-86509437D01*
X147396959Y-86664800D01*
X147164441Y-86820163D01*
X146964563Y-87020041D01*
X146807520Y-87255073D01*
X146699347Y-87516226D01*
X146644200Y-87793465D01*
X146644200Y-88076135D01*
X146699347Y-88353374D01*
X146807520Y-88614527D01*
X146964563Y-88849559D01*
X147163161Y-89048157D01*
X147154718Y-89048988D01*
X147035020Y-89085298D01*
X146924706Y-89144263D01*
X146828015Y-89223615D01*
X146748663Y-89320306D01*
X146689698Y-89430620D01*
X146653388Y-89550318D01*
X146641128Y-89674800D01*
X137227509Y-89674800D01*
X137269853Y-89572574D01*
X137325000Y-89295335D01*
X137325000Y-89012665D01*
X137269853Y-88735426D01*
X137161680Y-88474273D01*
X137004637Y-88239241D01*
X136804759Y-88039363D01*
X136572241Y-87884000D01*
X136804759Y-87728637D01*
X137004637Y-87528759D01*
X137161680Y-87293727D01*
X137269853Y-87032574D01*
X137325000Y-86755335D01*
X137325000Y-86472665D01*
X137269853Y-86195426D01*
X137161680Y-85934273D01*
X137004637Y-85699241D01*
X136804759Y-85499363D01*
X136572241Y-85344000D01*
X136804759Y-85188637D01*
X137004637Y-84988759D01*
X137137740Y-84789556D01*
X137147863Y-84808494D01*
X137227215Y-84905185D01*
X137323906Y-84984537D01*
X137434220Y-85043502D01*
X137553918Y-85079812D01*
X137678400Y-85092072D01*
X138978400Y-85092072D01*
X139102882Y-85079812D01*
X139222580Y-85043502D01*
X139332894Y-84984537D01*
X139429585Y-84905185D01*
X139508937Y-84808494D01*
X139511530Y-84803642D01*
X139719724Y-84942753D01*
X139953579Y-85039619D01*
X140201839Y-85089000D01*
X140454961Y-85089000D01*
X140703221Y-85039619D01*
X140937076Y-84942753D01*
X141147540Y-84802125D01*
X141326525Y-84623140D01*
X141328400Y-84620334D01*
X141330275Y-84623140D01*
X141509260Y-84802125D01*
X141719724Y-84942753D01*
X141953579Y-85039619D01*
X142201839Y-85089000D01*
X142454961Y-85089000D01*
X142703221Y-85039619D01*
X142937076Y-84942753D01*
X143147540Y-84802125D01*
X143326525Y-84623140D01*
X143467153Y-84412676D01*
X143564019Y-84178821D01*
X143613400Y-83930561D01*
X143613400Y-83677439D01*
X143564019Y-83429179D01*
X143467153Y-83195324D01*
X143326525Y-82984860D01*
X143147540Y-82805875D01*
X143144734Y-82804000D01*
X143147540Y-82802125D01*
X143326525Y-82623140D01*
X143467153Y-82412676D01*
X143564019Y-82178821D01*
X143613400Y-81930561D01*
X143613400Y-81677439D01*
X143564019Y-81429179D01*
X143467153Y-81195324D01*
X143326525Y-80984860D01*
X143147540Y-80805875D01*
X142937076Y-80665247D01*
X142703221Y-80568381D01*
X142454961Y-80519000D01*
X142201839Y-80519000D01*
X141953579Y-80568381D01*
X141719724Y-80665247D01*
X141509260Y-80805875D01*
X141330275Y-80984860D01*
X141328400Y-80987666D01*
X141326525Y-80984860D01*
X141147540Y-80805875D01*
X140937076Y-80665247D01*
X140703221Y-80568381D01*
X140454961Y-80519000D01*
X140201839Y-80519000D01*
X139953579Y-80568381D01*
X139719724Y-80665247D01*
X139509260Y-80805875D01*
X139330275Y-80984860D01*
X139328400Y-80987666D01*
X139326525Y-80984860D01*
X139147540Y-80805875D01*
X138937076Y-80665247D01*
X138703221Y-80568381D01*
X138454961Y-80519000D01*
X138201839Y-80519000D01*
X137953579Y-80568381D01*
X137719724Y-80665247D01*
X137509260Y-80805875D01*
X137330275Y-80984860D01*
X137259590Y-81090648D01*
X137161680Y-80854273D01*
X137004637Y-80619241D01*
X136804759Y-80419363D01*
X136572241Y-80264000D01*
X136804759Y-80108637D01*
X137004637Y-79908759D01*
X137161680Y-79673727D01*
X137269853Y-79412574D01*
X137325000Y-79135335D01*
X137325000Y-78852665D01*
X137269853Y-78575426D01*
X137161680Y-78314273D01*
X137004637Y-78079241D01*
X136804759Y-77879363D01*
X136572241Y-77724000D01*
X136804759Y-77568637D01*
X137004637Y-77368759D01*
X137161680Y-77133727D01*
X137269853Y-76872574D01*
X137325000Y-76595335D01*
X137325000Y-76312665D01*
X137269853Y-76035426D01*
X137161680Y-75774273D01*
X137004637Y-75539241D01*
X136804759Y-75339363D01*
X136572241Y-75184000D01*
X136804759Y-75028637D01*
X137004637Y-74828759D01*
X137161680Y-74593727D01*
X137269853Y-74332574D01*
X137325000Y-74055335D01*
X137325000Y-73772665D01*
X137269853Y-73495426D01*
X137161680Y-73234273D01*
X137004637Y-72999241D01*
X136804759Y-72799363D01*
X136572241Y-72644000D01*
X136804759Y-72488637D01*
X137004637Y-72288759D01*
X137161680Y-72053727D01*
X137269853Y-71792574D01*
X137325000Y-71515335D01*
X137325000Y-71232665D01*
X137269853Y-70955426D01*
X137161680Y-70694273D01*
X137004637Y-70459241D01*
X136804759Y-70259363D01*
X136572241Y-70104000D01*
X136804759Y-69948637D01*
X137004637Y-69748759D01*
X137161680Y-69513727D01*
X137269853Y-69252574D01*
X137321940Y-68990714D01*
X141708347Y-68990714D01*
X141708347Y-69194592D01*
X141748121Y-69394551D01*
X141826142Y-69582909D01*
X141939410Y-69752427D01*
X142083573Y-69896590D01*
X142253091Y-70009858D01*
X142441449Y-70087879D01*
X142641408Y-70127653D01*
X142845286Y-70127653D01*
X143045245Y-70087879D01*
X143233603Y-70009858D01*
X143403121Y-69896590D01*
X143447058Y-69852653D01*
X144886503Y-69852653D01*
X144924744Y-69878205D01*
X145113102Y-69956226D01*
X145313061Y-69996000D01*
X145516939Y-69996000D01*
X145716898Y-69956226D01*
X145905256Y-69878205D01*
X146074774Y-69764937D01*
X146218937Y-69620774D01*
X146332205Y-69451256D01*
X146410226Y-69262898D01*
X146450000Y-69062939D01*
X146450000Y-68859061D01*
X146410226Y-68659102D01*
X146332205Y-68470744D01*
X146218937Y-68301226D01*
X146074774Y-68157063D01*
X145905256Y-68043795D01*
X145716898Y-67965774D01*
X145516939Y-67926000D01*
X145313061Y-67926000D01*
X145113102Y-67965774D01*
X144924744Y-68043795D01*
X144755226Y-68157063D01*
X144611063Y-68301226D01*
X144590064Y-68332653D01*
X143447058Y-68332653D01*
X143403121Y-68288716D01*
X143233603Y-68175448D01*
X143045245Y-68097427D01*
X142845286Y-68057653D01*
X142641408Y-68057653D01*
X142441449Y-68097427D01*
X142253091Y-68175448D01*
X142083573Y-68288716D01*
X141939410Y-68432879D01*
X141826142Y-68602397D01*
X141748121Y-68790755D01*
X141708347Y-68990714D01*
X137321940Y-68990714D01*
X137325000Y-68975335D01*
X137325000Y-68692665D01*
X137269853Y-68415426D01*
X137161680Y-68154273D01*
X137004637Y-67919241D01*
X136804759Y-67719363D01*
X136572241Y-67564000D01*
X136804759Y-67408637D01*
X137004637Y-67208759D01*
X137161680Y-66973727D01*
X137269853Y-66712574D01*
X137325000Y-66435335D01*
X137325000Y-66152665D01*
X137269853Y-65875426D01*
X137161680Y-65614273D01*
X137004637Y-65379241D01*
X136804759Y-65179363D01*
X136572241Y-65024000D01*
X136804759Y-64868637D01*
X137004637Y-64668759D01*
X137161680Y-64433727D01*
X137269853Y-64172574D01*
X137325000Y-63895335D01*
X137325000Y-63612665D01*
X137269853Y-63335426D01*
X137161680Y-63074273D01*
X137004637Y-62839241D01*
X136804759Y-62639363D01*
X136572241Y-62484000D01*
X136804759Y-62328637D01*
X137004637Y-62128759D01*
X137161680Y-61893727D01*
X137269853Y-61632574D01*
X137325000Y-61355335D01*
X137325000Y-61072665D01*
X137269853Y-60795426D01*
X137161680Y-60534273D01*
X137004637Y-60299241D01*
X136804759Y-60099363D01*
X136572241Y-59944000D01*
X136804759Y-59788637D01*
X137004637Y-59588759D01*
X137161680Y-59353727D01*
X137269853Y-59092574D01*
X137325000Y-58815335D01*
X137325000Y-58605471D01*
X137387215Y-58617846D01*
X137591093Y-58617846D01*
X137791052Y-58578072D01*
X137979410Y-58500051D01*
X138148928Y-58386783D01*
X138293091Y-58242620D01*
X138406359Y-58073102D01*
X138484380Y-57884744D01*
X138524154Y-57684785D01*
X138524154Y-57480907D01*
X138484380Y-57280948D01*
X138406359Y-57092590D01*
X138293091Y-56923072D01*
X138148928Y-56778909D01*
X137979410Y-56665641D01*
X137791052Y-56587620D01*
X137591093Y-56547846D01*
X137387215Y-56547846D01*
X137261449Y-56572862D01*
X137269853Y-56552574D01*
X137325000Y-56275335D01*
X137325000Y-55992665D01*
X137269853Y-55715426D01*
X137161680Y-55454273D01*
X137004637Y-55219241D01*
X136804759Y-55019363D01*
X136572241Y-54864000D01*
X136804759Y-54708637D01*
X137004637Y-54508759D01*
X137161680Y-54273727D01*
X137269853Y-54012574D01*
X137325000Y-53735335D01*
X137325000Y-53452665D01*
X137269853Y-53175426D01*
X137161680Y-52914273D01*
X137004637Y-52679241D01*
X136804759Y-52479363D01*
X136572241Y-52324000D01*
X136804759Y-52168637D01*
X137004637Y-51968759D01*
X137160000Y-51736241D01*
X137315363Y-51968759D01*
X137515241Y-52168637D01*
X137750273Y-52325680D01*
X138011426Y-52433853D01*
X138288665Y-52489000D01*
X138571335Y-52489000D01*
X138848574Y-52433853D01*
X139109727Y-52325680D01*
X139344759Y-52168637D01*
X139544637Y-51968759D01*
X139700000Y-51736241D01*
X139855363Y-51968759D01*
X140055241Y-52168637D01*
X140290273Y-52325680D01*
X140551426Y-52433853D01*
X140828665Y-52489000D01*
X141111335Y-52489000D01*
X141388574Y-52433853D01*
X141649727Y-52325680D01*
X141884759Y-52168637D01*
X142084637Y-51968759D01*
X142240000Y-51736241D01*
X142395363Y-51968759D01*
X142595241Y-52168637D01*
X142830273Y-52325680D01*
X143091426Y-52433853D01*
X143368665Y-52489000D01*
X143651335Y-52489000D01*
X143928574Y-52433853D01*
X144189727Y-52325680D01*
X144424759Y-52168637D01*
X144624637Y-51968759D01*
X144780000Y-51736241D01*
X144935363Y-51968759D01*
X145135241Y-52168637D01*
X145370273Y-52325680D01*
X145631426Y-52433853D01*
X145908665Y-52489000D01*
X146191335Y-52489000D01*
X146468574Y-52433853D01*
X146729727Y-52325680D01*
X146964759Y-52168637D01*
X147164637Y-51968759D01*
X147320000Y-51736241D01*
X147475363Y-51968759D01*
X147675241Y-52168637D01*
X147910273Y-52325680D01*
X148171426Y-52433853D01*
X148448665Y-52489000D01*
X148731335Y-52489000D01*
X149008574Y-52433853D01*
X149269727Y-52325680D01*
X149504759Y-52168637D01*
X149704637Y-51968759D01*
X149860000Y-51736241D01*
X150015363Y-51968759D01*
X150215241Y-52168637D01*
X150447759Y-52324000D01*
X150215241Y-52479363D01*
X150015363Y-52679241D01*
X149858320Y-52914273D01*
X149750147Y-53175426D01*
X149695000Y-53452665D01*
X149695000Y-53735335D01*
X149750147Y-54012574D01*
X149858320Y-54273727D01*
X150015363Y-54508759D01*
X150215241Y-54708637D01*
X150447759Y-54864000D01*
X150215241Y-55019363D01*
X150015363Y-55219241D01*
X149858320Y-55454273D01*
X149750147Y-55715426D01*
X149695000Y-55992665D01*
X149695000Y-56275335D01*
X149750147Y-56552574D01*
X149858320Y-56813727D01*
X150015363Y-57048759D01*
X150215241Y-57248637D01*
X150447759Y-57404000D01*
X150215241Y-57559363D01*
X150015363Y-57759241D01*
X149858320Y-57994273D01*
X149750147Y-58255426D01*
X149695000Y-58532665D01*
X149695000Y-58815335D01*
X149750147Y-59092574D01*
X149858320Y-59353727D01*
X150015363Y-59588759D01*
X150215241Y-59788637D01*
X150447759Y-59944000D01*
X150215241Y-60099363D01*
X150015363Y-60299241D01*
X149858320Y-60534273D01*
X149750147Y-60795426D01*
X149695000Y-61072665D01*
X149695000Y-61355335D01*
X149750147Y-61632574D01*
X149858320Y-61893727D01*
X150015363Y-62128759D01*
X150215241Y-62328637D01*
X150447759Y-62484000D01*
X150215241Y-62639363D01*
X150015363Y-62839241D01*
X149858320Y-63074273D01*
X149750147Y-63335426D01*
X149695000Y-63612665D01*
X149695000Y-63895335D01*
X149750147Y-64172574D01*
X149858320Y-64433727D01*
X150015363Y-64668759D01*
X150215241Y-64868637D01*
X150447759Y-65024000D01*
X150215241Y-65179363D01*
X150015363Y-65379241D01*
X149858320Y-65614273D01*
X149750147Y-65875426D01*
X149695000Y-66152665D01*
X149695000Y-66435335D01*
X149750147Y-66712574D01*
X149858320Y-66973727D01*
X150015363Y-67208759D01*
X150215241Y-67408637D01*
X150447759Y-67564000D01*
X150215241Y-67719363D01*
X150015363Y-67919241D01*
X149858320Y-68154273D01*
X149750147Y-68415426D01*
X149695000Y-68692665D01*
X149695000Y-68975335D01*
X149750147Y-69252574D01*
X149858320Y-69513727D01*
X150015363Y-69748759D01*
X150215241Y-69948637D01*
X150447759Y-70104000D01*
X150215241Y-70259363D01*
X150015363Y-70459241D01*
X149858320Y-70694273D01*
X149750147Y-70955426D01*
X149695000Y-71232665D01*
X149695000Y-71515335D01*
X149750147Y-71792574D01*
X149858320Y-72053727D01*
X150015363Y-72288759D01*
X150215241Y-72488637D01*
X150447759Y-72644000D01*
X150215241Y-72799363D01*
X150015363Y-72999241D01*
X149858320Y-73234273D01*
X149750147Y-73495426D01*
X149695000Y-73772665D01*
X149695000Y-74055335D01*
X149750147Y-74332574D01*
X149858320Y-74593727D01*
X150015363Y-74828759D01*
X150215241Y-75028637D01*
X150447759Y-75184000D01*
X150215241Y-75339363D01*
X150015363Y-75539241D01*
X149858320Y-75774273D01*
X149750147Y-76035426D01*
X149695000Y-76312665D01*
X149695000Y-76595335D01*
X149750147Y-76872574D01*
X149858320Y-77133727D01*
X150015363Y-77368759D01*
X150215241Y-77568637D01*
X150447759Y-77724000D01*
X150215241Y-77879363D01*
X150015363Y-78079241D01*
X149858320Y-78314273D01*
X149750147Y-78575426D01*
X149695000Y-78852665D01*
X149695000Y-79135335D01*
X149750147Y-79412574D01*
X149858320Y-79673727D01*
X150015363Y-79908759D01*
X150215241Y-80108637D01*
X150447759Y-80264000D01*
X150215241Y-80419363D01*
X150015363Y-80619241D01*
X149858320Y-80854273D01*
X149750147Y-81115426D01*
X149695000Y-81392665D01*
X149695000Y-81675335D01*
X149750147Y-81952574D01*
X149858320Y-82213727D01*
X150015363Y-82448759D01*
X150215241Y-82648637D01*
X150447759Y-82804000D01*
X150215241Y-82959363D01*
X150015363Y-83159241D01*
X149858320Y-83394273D01*
X149750147Y-83655426D01*
X149695000Y-83932665D01*
X149695000Y-84215335D01*
X149750147Y-84492574D01*
X149858320Y-84753727D01*
X150015363Y-84988759D01*
X150215241Y-85188637D01*
X150447759Y-85344000D01*
X150215241Y-85499363D01*
X150015363Y-85699241D01*
X149858320Y-85934273D01*
X149750147Y-86195426D01*
X149695000Y-86472665D01*
X149695000Y-86755335D01*
X149750147Y-87032574D01*
X149858320Y-87293727D01*
X150015363Y-87528759D01*
X150215241Y-87728637D01*
X150447759Y-87884000D01*
X150215241Y-88039363D01*
X150015363Y-88239241D01*
X149858320Y-88474273D01*
X149750147Y-88735426D01*
X149695000Y-89012665D01*
X149695000Y-89295335D01*
X149750147Y-89572574D01*
X149858320Y-89833727D01*
X150015363Y-90068759D01*
X150215241Y-90268637D01*
X150447759Y-90424000D01*
X150215241Y-90579363D01*
X150015363Y-90779241D01*
X149858320Y-91014273D01*
X149750147Y-91275426D01*
X149695000Y-91552665D01*
X149695000Y-91835335D01*
X149750147Y-92112574D01*
X149858320Y-92373727D01*
X150015363Y-92608759D01*
X150215241Y-92808637D01*
X150447759Y-92964000D01*
X150215241Y-93119363D01*
X150015363Y-93319241D01*
X149858320Y-93554273D01*
X149750147Y-93815426D01*
X149695000Y-94092665D01*
X149695000Y-94375335D01*
X149750147Y-94652574D01*
X149858320Y-94913727D01*
X150015363Y-95148759D01*
X150213961Y-95347357D01*
X150205518Y-95348188D01*
X150085820Y-95384498D01*
X149975506Y-95443463D01*
X149878815Y-95522815D01*
X149799463Y-95619506D01*
X149740498Y-95729820D01*
X149704188Y-95849518D01*
X149691928Y-95974000D01*
X149695000Y-96488250D01*
X149853750Y-96647000D01*
X151003000Y-96647000D01*
X151003000Y-96627000D01*
X151257000Y-96627000D01*
X151257000Y-96647000D01*
X152406250Y-96647000D01*
X152565000Y-96488250D01*
X152568072Y-95974000D01*
X152555812Y-95849518D01*
X152519502Y-95729820D01*
X152460537Y-95619506D01*
X152381185Y-95522815D01*
X152284494Y-95443463D01*
X152174180Y-95384498D01*
X152054482Y-95348188D01*
X152046039Y-95347357D01*
X152244637Y-95148759D01*
X152401680Y-94913727D01*
X152509853Y-94652574D01*
X152565000Y-94375335D01*
X152565000Y-94092665D01*
X152509853Y-93815426D01*
X152470524Y-93720475D01*
X163735000Y-93720475D01*
X163735000Y-94239525D01*
X163836261Y-94748601D01*
X164034893Y-95228141D01*
X164323262Y-95659715D01*
X164690285Y-96026738D01*
X165121859Y-96315107D01*
X165601399Y-96513739D01*
X166110475Y-96615000D01*
X166629525Y-96615000D01*
X167138601Y-96513739D01*
X167618141Y-96315107D01*
X168049715Y-96026738D01*
X168416738Y-95659715D01*
X168705107Y-95228141D01*
X168903739Y-94748601D01*
X169005000Y-94239525D01*
X169005000Y-93720475D01*
X168903739Y-93211399D01*
X168705107Y-92731859D01*
X168416738Y-92300285D01*
X168049715Y-91933262D01*
X167618141Y-91644893D01*
X167138601Y-91446261D01*
X166629525Y-91345000D01*
X166110475Y-91345000D01*
X165601399Y-91446261D01*
X165121859Y-91644893D01*
X164690285Y-91933262D01*
X164323262Y-92300285D01*
X164034893Y-92731859D01*
X163836261Y-93211399D01*
X163735000Y-93720475D01*
X152470524Y-93720475D01*
X152401680Y-93554273D01*
X152244637Y-93319241D01*
X152044759Y-93119363D01*
X151812241Y-92964000D01*
X152044759Y-92808637D01*
X152244637Y-92608759D01*
X152401680Y-92373727D01*
X152509853Y-92112574D01*
X152565000Y-91835335D01*
X152565000Y-91552665D01*
X152509853Y-91275426D01*
X152401680Y-91014273D01*
X152244637Y-90779241D01*
X152044759Y-90579363D01*
X151812241Y-90424000D01*
X152044759Y-90268637D01*
X152244637Y-90068759D01*
X152401680Y-89833727D01*
X152509853Y-89572574D01*
X152565000Y-89295335D01*
X152565000Y-89012665D01*
X152509853Y-88735426D01*
X152401680Y-88474273D01*
X152244637Y-88239241D01*
X152044759Y-88039363D01*
X151812241Y-87884000D01*
X152044759Y-87728637D01*
X152244637Y-87528759D01*
X152401680Y-87293727D01*
X152509853Y-87032574D01*
X152511053Y-87026540D01*
X156553800Y-87026540D01*
X156553800Y-87319060D01*
X156610868Y-87605958D01*
X156722810Y-87876211D01*
X156885325Y-88119432D01*
X157092168Y-88326275D01*
X157266560Y-88442800D01*
X157092168Y-88559325D01*
X156885325Y-88766168D01*
X156722810Y-89009389D01*
X156610868Y-89279642D01*
X156553800Y-89566540D01*
X156553800Y-89859060D01*
X156610868Y-90145958D01*
X156722810Y-90416211D01*
X156885325Y-90659432D01*
X157092168Y-90866275D01*
X157335389Y-91028790D01*
X157605642Y-91140732D01*
X157892540Y-91197800D01*
X158185060Y-91197800D01*
X158471958Y-91140732D01*
X158742211Y-91028790D01*
X158985432Y-90866275D01*
X159192275Y-90659432D01*
X159354790Y-90416211D01*
X159466732Y-90145958D01*
X159523800Y-89859060D01*
X159523800Y-89566540D01*
X159466732Y-89279642D01*
X159354790Y-89009389D01*
X159192275Y-88766168D01*
X158985432Y-88559325D01*
X158811040Y-88442800D01*
X158985432Y-88326275D01*
X159192275Y-88119432D01*
X159354790Y-87876211D01*
X159466732Y-87605958D01*
X159523800Y-87319060D01*
X159523800Y-87026540D01*
X159466732Y-86739642D01*
X159354790Y-86469389D01*
X159192275Y-86226168D01*
X158985432Y-86019325D01*
X158803266Y-85897605D01*
X158920155Y-85827978D01*
X159136388Y-85633069D01*
X159310441Y-85399720D01*
X159435625Y-85136899D01*
X159480276Y-84989690D01*
X159358955Y-84759800D01*
X158165800Y-84759800D01*
X158165800Y-84779800D01*
X157911800Y-84779800D01*
X157911800Y-84759800D01*
X156718645Y-84759800D01*
X156597324Y-84989690D01*
X156641975Y-85136899D01*
X156767159Y-85399720D01*
X156941212Y-85633069D01*
X157157445Y-85827978D01*
X157274334Y-85897605D01*
X157092168Y-86019325D01*
X156885325Y-86226168D01*
X156722810Y-86469389D01*
X156610868Y-86739642D01*
X156553800Y-87026540D01*
X152511053Y-87026540D01*
X152565000Y-86755335D01*
X152565000Y-86472665D01*
X152509853Y-86195426D01*
X152401680Y-85934273D01*
X152244637Y-85699241D01*
X152044759Y-85499363D01*
X151812241Y-85344000D01*
X152044759Y-85188637D01*
X152244637Y-84988759D01*
X152401680Y-84753727D01*
X152509853Y-84492574D01*
X152565000Y-84215335D01*
X152565000Y-83932665D01*
X152509853Y-83655426D01*
X152401680Y-83394273D01*
X152244637Y-83159241D01*
X152044759Y-82959363D01*
X151812241Y-82804000D01*
X152044759Y-82648637D01*
X152244637Y-82448759D01*
X152401680Y-82213727D01*
X152509853Y-81952574D01*
X152565000Y-81675335D01*
X152565000Y-81392665D01*
X152535190Y-81242800D01*
X156550728Y-81242800D01*
X156550728Y-82942800D01*
X156562988Y-83067282D01*
X156599298Y-83186980D01*
X156658263Y-83297294D01*
X156737615Y-83393985D01*
X156834306Y-83473337D01*
X156944620Y-83532302D01*
X157025266Y-83556766D01*
X156941212Y-83632531D01*
X156767159Y-83865880D01*
X156641975Y-84128701D01*
X156597324Y-84275910D01*
X156718645Y-84505800D01*
X157911800Y-84505800D01*
X157911800Y-84485800D01*
X158165800Y-84485800D01*
X158165800Y-84505800D01*
X159358955Y-84505800D01*
X159480276Y-84275910D01*
X159435625Y-84128701D01*
X159310441Y-83865880D01*
X159136388Y-83632531D01*
X159052334Y-83556766D01*
X159132980Y-83532302D01*
X159243294Y-83473337D01*
X159339985Y-83393985D01*
X159419337Y-83297294D01*
X159478302Y-83186980D01*
X159514612Y-83067282D01*
X159526872Y-82942800D01*
X159526872Y-82360400D01*
X163053128Y-82360400D01*
X163053128Y-84060400D01*
X163065388Y-84184882D01*
X163101698Y-84304580D01*
X163160663Y-84414894D01*
X163240015Y-84511585D01*
X163336706Y-84590937D01*
X163447020Y-84649902D01*
X163519580Y-84671913D01*
X163387725Y-84803768D01*
X163225210Y-85046989D01*
X163113268Y-85317242D01*
X163056200Y-85604140D01*
X163056200Y-85896660D01*
X163113268Y-86183558D01*
X163225210Y-86453811D01*
X163387725Y-86697032D01*
X163594568Y-86903875D01*
X163768960Y-87020400D01*
X163594568Y-87136925D01*
X163387725Y-87343768D01*
X163225210Y-87586989D01*
X163113268Y-87857242D01*
X163056200Y-88144140D01*
X163056200Y-88436660D01*
X163113268Y-88723558D01*
X163225210Y-88993811D01*
X163387725Y-89237032D01*
X163594568Y-89443875D01*
X163837789Y-89606390D01*
X164108042Y-89718332D01*
X164394940Y-89775400D01*
X164687460Y-89775400D01*
X164974358Y-89718332D01*
X165244611Y-89606390D01*
X165487832Y-89443875D01*
X165694675Y-89237032D01*
X165811200Y-89062640D01*
X165927725Y-89237032D01*
X166134568Y-89443875D01*
X166377789Y-89606390D01*
X166648042Y-89718332D01*
X166934940Y-89775400D01*
X167227460Y-89775400D01*
X167514358Y-89718332D01*
X167784611Y-89606390D01*
X168027832Y-89443875D01*
X168234675Y-89237032D01*
X168397190Y-88993811D01*
X168509132Y-88723558D01*
X168566200Y-88436660D01*
X168566200Y-88144140D01*
X168509132Y-87857242D01*
X168397190Y-87586989D01*
X168234675Y-87343768D01*
X168027832Y-87136925D01*
X167853440Y-87020400D01*
X168027832Y-86903875D01*
X168234675Y-86697032D01*
X168397190Y-86453811D01*
X168509132Y-86183558D01*
X168566200Y-85896660D01*
X168566200Y-85604140D01*
X168509132Y-85317242D01*
X168397190Y-85046989D01*
X168234675Y-84803768D01*
X168027832Y-84596925D01*
X167845666Y-84475205D01*
X167962555Y-84405578D01*
X168178788Y-84210669D01*
X168352841Y-83977320D01*
X168478025Y-83714499D01*
X168522676Y-83567290D01*
X168401355Y-83337400D01*
X167208200Y-83337400D01*
X167208200Y-83357400D01*
X166954200Y-83357400D01*
X166954200Y-83337400D01*
X166934200Y-83337400D01*
X166934200Y-83083400D01*
X166954200Y-83083400D01*
X166954200Y-81889586D01*
X167208200Y-81889586D01*
X167208200Y-83083400D01*
X168401355Y-83083400D01*
X168522676Y-82853510D01*
X168478025Y-82706301D01*
X168352841Y-82443480D01*
X168178788Y-82210131D01*
X167962555Y-82015222D01*
X167712452Y-81866243D01*
X167438091Y-81768919D01*
X167208200Y-81889586D01*
X166954200Y-81889586D01*
X166724309Y-81768919D01*
X166449948Y-81866243D01*
X166199845Y-82015222D01*
X166003698Y-82192026D01*
X165980702Y-82116220D01*
X165921737Y-82005906D01*
X165842385Y-81909215D01*
X165745694Y-81829863D01*
X165635380Y-81770898D01*
X165515682Y-81734588D01*
X165391200Y-81722328D01*
X163691200Y-81722328D01*
X163566718Y-81734588D01*
X163447020Y-81770898D01*
X163336706Y-81829863D01*
X163240015Y-81909215D01*
X163160663Y-82005906D01*
X163101698Y-82116220D01*
X163065388Y-82235918D01*
X163053128Y-82360400D01*
X159526872Y-82360400D01*
X159526872Y-81242800D01*
X159514612Y-81118318D01*
X159478302Y-80998620D01*
X159419337Y-80888306D01*
X159339985Y-80791615D01*
X159243294Y-80712263D01*
X159132980Y-80653298D01*
X159013282Y-80616988D01*
X158888800Y-80604728D01*
X157188800Y-80604728D01*
X157064318Y-80616988D01*
X156944620Y-80653298D01*
X156834306Y-80712263D01*
X156737615Y-80791615D01*
X156658263Y-80888306D01*
X156599298Y-80998620D01*
X156562988Y-81118318D01*
X156550728Y-81242800D01*
X152535190Y-81242800D01*
X152509853Y-81115426D01*
X152401680Y-80854273D01*
X152244637Y-80619241D01*
X152044759Y-80419363D01*
X151812241Y-80264000D01*
X152044759Y-80108637D01*
X152244637Y-79908759D01*
X152401680Y-79673727D01*
X152509853Y-79412574D01*
X152565000Y-79135335D01*
X152565000Y-78852665D01*
X152509853Y-78575426D01*
X152401680Y-78314273D01*
X152244637Y-78079241D01*
X152044759Y-77879363D01*
X151812241Y-77724000D01*
X152044759Y-77568637D01*
X152244637Y-77368759D01*
X152401680Y-77133727D01*
X152509853Y-76872574D01*
X152565000Y-76595335D01*
X152565000Y-76312665D01*
X152509853Y-76035426D01*
X152401680Y-75774273D01*
X152244637Y-75539241D01*
X152044759Y-75339363D01*
X151812241Y-75184000D01*
X152044759Y-75028637D01*
X152244637Y-74828759D01*
X152401680Y-74593727D01*
X152509853Y-74332574D01*
X152565000Y-74055335D01*
X152565000Y-73772665D01*
X152509853Y-73495426D01*
X152401680Y-73234273D01*
X152244637Y-72999241D01*
X152044759Y-72799363D01*
X151812241Y-72644000D01*
X152044759Y-72488637D01*
X152244637Y-72288759D01*
X152401680Y-72053727D01*
X152509853Y-71792574D01*
X152565000Y-71515335D01*
X152565000Y-71232665D01*
X152509853Y-70955426D01*
X152401680Y-70694273D01*
X152244637Y-70459241D01*
X152044759Y-70259363D01*
X151812241Y-70104000D01*
X152044759Y-69948637D01*
X152244637Y-69748759D01*
X152401680Y-69513727D01*
X152509853Y-69252574D01*
X152565000Y-68975335D01*
X152565000Y-68692665D01*
X152509853Y-68415426D01*
X152401680Y-68154273D01*
X152244637Y-67919241D01*
X152044759Y-67719363D01*
X151812241Y-67564000D01*
X152044759Y-67408637D01*
X152244637Y-67208759D01*
X152401680Y-66973727D01*
X152509853Y-66712574D01*
X152565000Y-66435335D01*
X152565000Y-66152665D01*
X152558397Y-66119469D01*
X152671744Y-66195205D01*
X152860102Y-66273226D01*
X152889000Y-66278974D01*
X152889000Y-66395939D01*
X152928774Y-66595898D01*
X153006795Y-66784256D01*
X153120063Y-66953774D01*
X153264226Y-67097937D01*
X153433744Y-67211205D01*
X153622102Y-67289226D01*
X153822061Y-67329000D01*
X154025939Y-67329000D01*
X154225898Y-67289226D01*
X154414256Y-67211205D01*
X154583774Y-67097937D01*
X154727937Y-66953774D01*
X154782115Y-66872691D01*
X154772728Y-66968000D01*
X154772728Y-68668000D01*
X154784988Y-68792482D01*
X154821298Y-68912180D01*
X154880263Y-69022494D01*
X154959615Y-69119185D01*
X155056306Y-69198537D01*
X155166620Y-69257502D01*
X155239180Y-69279513D01*
X155107325Y-69411368D01*
X154944810Y-69654589D01*
X154832868Y-69924842D01*
X154775800Y-70211740D01*
X154775800Y-70504260D01*
X154832868Y-70791158D01*
X154944810Y-71061411D01*
X155107325Y-71304632D01*
X155314168Y-71511475D01*
X155488560Y-71628000D01*
X155314168Y-71744525D01*
X155107325Y-71951368D01*
X154944810Y-72194589D01*
X154832868Y-72464842D01*
X154775800Y-72751740D01*
X154775800Y-73044260D01*
X154832868Y-73331158D01*
X154944810Y-73601411D01*
X155107325Y-73844632D01*
X155314168Y-74051475D01*
X155557389Y-74213990D01*
X155827642Y-74325932D01*
X156114540Y-74383000D01*
X156407060Y-74383000D01*
X156693958Y-74325932D01*
X156964211Y-74213990D01*
X157207432Y-74051475D01*
X157414275Y-73844632D01*
X157530800Y-73670240D01*
X157647325Y-73844632D01*
X157854168Y-74051475D01*
X158097389Y-74213990D01*
X158367642Y-74325932D01*
X158654540Y-74383000D01*
X158947060Y-74383000D01*
X159233958Y-74325932D01*
X159504211Y-74213990D01*
X159747432Y-74051475D01*
X159954275Y-73844632D01*
X160116790Y-73601411D01*
X160218239Y-73356490D01*
X163760124Y-73356490D01*
X163804775Y-73503699D01*
X163929959Y-73766520D01*
X164104012Y-73999869D01*
X164320245Y-74194778D01*
X164570348Y-74343757D01*
X164844709Y-74441081D01*
X165074600Y-74320414D01*
X165074600Y-73126600D01*
X165328600Y-73126600D01*
X165328600Y-74320414D01*
X165558491Y-74441081D01*
X165832852Y-74343757D01*
X166082955Y-74194778D01*
X166299188Y-73999869D01*
X166471600Y-73768720D01*
X166644012Y-73999869D01*
X166860245Y-74194778D01*
X167110348Y-74343757D01*
X167384709Y-74441081D01*
X167614600Y-74320414D01*
X167614600Y-73126600D01*
X167868600Y-73126600D01*
X167868600Y-74320414D01*
X168098491Y-74441081D01*
X168372852Y-74343757D01*
X168622955Y-74194778D01*
X168839188Y-73999869D01*
X169013241Y-73766520D01*
X169138425Y-73503699D01*
X169183076Y-73356490D01*
X169061755Y-73126600D01*
X167868600Y-73126600D01*
X167614600Y-73126600D01*
X165328600Y-73126600D01*
X165074600Y-73126600D01*
X163881445Y-73126600D01*
X163760124Y-73356490D01*
X160218239Y-73356490D01*
X160228732Y-73331158D01*
X160285800Y-73044260D01*
X160285800Y-72751740D01*
X160228732Y-72464842D01*
X160116790Y-72194589D01*
X159954275Y-71951368D01*
X159747432Y-71744525D01*
X159573040Y-71628000D01*
X159747432Y-71511475D01*
X159954275Y-71304632D01*
X160116790Y-71061411D01*
X160218239Y-70816490D01*
X163760124Y-70816490D01*
X163804775Y-70963699D01*
X163929959Y-71226520D01*
X164104012Y-71459869D01*
X164320245Y-71654778D01*
X164445855Y-71729600D01*
X164320245Y-71804422D01*
X164104012Y-71999331D01*
X163929959Y-72232680D01*
X163804775Y-72495501D01*
X163760124Y-72642710D01*
X163881445Y-72872600D01*
X165074600Y-72872600D01*
X165074600Y-70586600D01*
X165328600Y-70586600D01*
X165328600Y-72872600D01*
X167614600Y-72872600D01*
X167614600Y-70586600D01*
X167868600Y-70586600D01*
X167868600Y-72872600D01*
X169061755Y-72872600D01*
X169183076Y-72642710D01*
X169138425Y-72495501D01*
X169013241Y-72232680D01*
X168839188Y-71999331D01*
X168622955Y-71804422D01*
X168497345Y-71729600D01*
X168622955Y-71654778D01*
X168839188Y-71459869D01*
X169013241Y-71226520D01*
X169138425Y-70963699D01*
X169183076Y-70816490D01*
X169061755Y-70586600D01*
X167868600Y-70586600D01*
X167614600Y-70586600D01*
X165328600Y-70586600D01*
X165074600Y-70586600D01*
X163881445Y-70586600D01*
X163760124Y-70816490D01*
X160218239Y-70816490D01*
X160228732Y-70791158D01*
X160285800Y-70504260D01*
X160285800Y-70211740D01*
X160228732Y-69924842D01*
X160116790Y-69654589D01*
X159954275Y-69411368D01*
X159747432Y-69204525D01*
X159573040Y-69088000D01*
X159747432Y-68971475D01*
X159949307Y-68769600D01*
X163713528Y-68769600D01*
X163725788Y-68894082D01*
X163762098Y-69013780D01*
X163821063Y-69124094D01*
X163900415Y-69220785D01*
X163997106Y-69300137D01*
X164107420Y-69359102D01*
X164188066Y-69383566D01*
X164104012Y-69459331D01*
X163929959Y-69692680D01*
X163804775Y-69955501D01*
X163760124Y-70102710D01*
X163881445Y-70332600D01*
X165074600Y-70332600D01*
X165074600Y-68046600D01*
X165328600Y-68046600D01*
X165328600Y-70332600D01*
X167614600Y-70332600D01*
X167614600Y-68046600D01*
X167868600Y-68046600D01*
X167868600Y-70332600D01*
X169061755Y-70332600D01*
X169183076Y-70102710D01*
X169138425Y-69955501D01*
X169013241Y-69692680D01*
X168839188Y-69459331D01*
X168622955Y-69264422D01*
X168497345Y-69189600D01*
X168622955Y-69114778D01*
X168839188Y-68919869D01*
X169013241Y-68686520D01*
X169138425Y-68423699D01*
X169183076Y-68276490D01*
X169061755Y-68046600D01*
X167868600Y-68046600D01*
X167614600Y-68046600D01*
X165328600Y-68046600D01*
X165074600Y-68046600D01*
X163875350Y-68046600D01*
X163716600Y-68205350D01*
X163713528Y-68769600D01*
X159949307Y-68769600D01*
X159954275Y-68764632D01*
X160116790Y-68521411D01*
X160228732Y-68251158D01*
X160285800Y-67964260D01*
X160285800Y-67671740D01*
X160228732Y-67384842D01*
X160116790Y-67114589D01*
X160086730Y-67069600D01*
X163713528Y-67069600D01*
X163716600Y-67633850D01*
X163875350Y-67792600D01*
X165074600Y-67792600D01*
X165074600Y-66593350D01*
X165328600Y-66593350D01*
X165328600Y-67792600D01*
X167614600Y-67792600D01*
X167614600Y-66598786D01*
X167868600Y-66598786D01*
X167868600Y-67792600D01*
X169061755Y-67792600D01*
X169183076Y-67562710D01*
X169138425Y-67415501D01*
X169013241Y-67152680D01*
X168839188Y-66919331D01*
X168622955Y-66724422D01*
X168372852Y-66575443D01*
X168098491Y-66478119D01*
X167868600Y-66598786D01*
X167614600Y-66598786D01*
X167384709Y-66478119D01*
X167110348Y-66575443D01*
X166860245Y-66724422D01*
X166664098Y-66901226D01*
X166641102Y-66825420D01*
X166582137Y-66715106D01*
X166502785Y-66618415D01*
X166406094Y-66539063D01*
X166295780Y-66480098D01*
X166176082Y-66443788D01*
X166051600Y-66431528D01*
X165487350Y-66434600D01*
X165328600Y-66593350D01*
X165074600Y-66593350D01*
X164915850Y-66434600D01*
X164351600Y-66431528D01*
X164227118Y-66443788D01*
X164107420Y-66480098D01*
X163997106Y-66539063D01*
X163900415Y-66618415D01*
X163821063Y-66715106D01*
X163762098Y-66825420D01*
X163725788Y-66945118D01*
X163713528Y-67069600D01*
X160086730Y-67069600D01*
X159954275Y-66871368D01*
X159747432Y-66664525D01*
X159504211Y-66502010D01*
X159233958Y-66390068D01*
X158947060Y-66333000D01*
X158654540Y-66333000D01*
X158367642Y-66390068D01*
X158097389Y-66502010D01*
X157854168Y-66664525D01*
X157722313Y-66796380D01*
X157700302Y-66723820D01*
X157641337Y-66613506D01*
X157561985Y-66516815D01*
X157465294Y-66437463D01*
X157354980Y-66378498D01*
X157235282Y-66342188D01*
X157110800Y-66329928D01*
X155410800Y-66329928D01*
X155286318Y-66342188D01*
X155166620Y-66378498D01*
X155056306Y-66437463D01*
X154959615Y-66516815D01*
X154927068Y-66556474D01*
X154959000Y-66395939D01*
X154959000Y-66206801D01*
X155832003Y-65333799D01*
X155861001Y-65310001D01*
X155955974Y-65194276D01*
X156026546Y-65062247D01*
X156070003Y-64918986D01*
X156081000Y-64807333D01*
X156081000Y-64807324D01*
X156084676Y-64770001D01*
X156081000Y-64732678D01*
X156081000Y-64330711D01*
X156124937Y-64286774D01*
X156238205Y-64117256D01*
X156316226Y-63928898D01*
X156356000Y-63728939D01*
X156356000Y-63525061D01*
X156316226Y-63325102D01*
X156238205Y-63136744D01*
X156124937Y-62967226D01*
X155980774Y-62823063D01*
X155811256Y-62709795D01*
X155622898Y-62631774D01*
X155422939Y-62592000D01*
X155219061Y-62592000D01*
X155019102Y-62631774D01*
X154830744Y-62709795D01*
X154661226Y-62823063D01*
X154517063Y-62967226D01*
X154403795Y-63136744D01*
X154325774Y-63325102D01*
X154286000Y-63525061D01*
X154286000Y-63728939D01*
X154325774Y-63928898D01*
X154403795Y-64117256D01*
X154517063Y-64286774D01*
X154561001Y-64330712D01*
X154561001Y-64455197D01*
X154122919Y-64893279D01*
X154079205Y-64787744D01*
X153965937Y-64618226D01*
X153922000Y-64574289D01*
X153922000Y-59072685D01*
X154075774Y-58969937D01*
X154219937Y-58825774D01*
X154333205Y-58656256D01*
X154411226Y-58467898D01*
X154451000Y-58267939D01*
X154451000Y-58064061D01*
X154411226Y-57864102D01*
X154333205Y-57675744D01*
X154219937Y-57506226D01*
X154075774Y-57362063D01*
X153906256Y-57248795D01*
X153717898Y-57170774D01*
X153517939Y-57131000D01*
X153314061Y-57131000D01*
X153114102Y-57170774D01*
X152925744Y-57248795D01*
X152756226Y-57362063D01*
X152612063Y-57506226D01*
X152498795Y-57675744D01*
X152420774Y-57864102D01*
X152396441Y-57986432D01*
X152244637Y-57759241D01*
X152044759Y-57559363D01*
X151812241Y-57404000D01*
X152044759Y-57248637D01*
X152244637Y-57048759D01*
X152401680Y-56813727D01*
X152509853Y-56552574D01*
X152565000Y-56275335D01*
X152565000Y-55992665D01*
X152509853Y-55715426D01*
X152401680Y-55454273D01*
X152244637Y-55219241D01*
X152044759Y-55019363D01*
X151812241Y-54864000D01*
X151892228Y-54810555D01*
X151971102Y-54843226D01*
X152171061Y-54883000D01*
X152233199Y-54883000D01*
X157355000Y-60004802D01*
X157355001Y-61526288D01*
X157311063Y-61570226D01*
X157197795Y-61739744D01*
X157119774Y-61928102D01*
X157080000Y-62128061D01*
X157080000Y-62331939D01*
X157119774Y-62531898D01*
X157197795Y-62720256D01*
X157311063Y-62889774D01*
X157455226Y-63033937D01*
X157624744Y-63147205D01*
X157813102Y-63225226D01*
X158013061Y-63265000D01*
X158216939Y-63265000D01*
X158416898Y-63225226D01*
X158605256Y-63147205D01*
X158759392Y-63044215D01*
X158799498Y-63060827D01*
X158999457Y-63100601D01*
X159203335Y-63100601D01*
X159403294Y-63060827D01*
X159591652Y-62982806D01*
X159660984Y-62936480D01*
X160323153Y-63598649D01*
X160323153Y-63660786D01*
X160362927Y-63860745D01*
X160440948Y-64049103D01*
X160554216Y-64218621D01*
X160698379Y-64362784D01*
X160867897Y-64476052D01*
X161056255Y-64554073D01*
X161256214Y-64593847D01*
X161460092Y-64593847D01*
X161660051Y-64554073D01*
X161848409Y-64476052D01*
X162017927Y-64362784D01*
X162162090Y-64218621D01*
X162275358Y-64049103D01*
X162353379Y-63860745D01*
X162393153Y-63660786D01*
X162393153Y-63456908D01*
X162353379Y-63256949D01*
X162275358Y-63068591D01*
X162162090Y-62899073D01*
X162017927Y-62754910D01*
X161921887Y-62690738D01*
X161968155Y-62663178D01*
X162184388Y-62468269D01*
X162358441Y-62234920D01*
X162483625Y-61972099D01*
X162528276Y-61824890D01*
X162406955Y-61595000D01*
X161213800Y-61595000D01*
X161213800Y-61615000D01*
X160959800Y-61615000D01*
X160959800Y-61595000D01*
X160939800Y-61595000D01*
X160939800Y-61341000D01*
X160959800Y-61341000D01*
X160959800Y-61321000D01*
X161213800Y-61321000D01*
X161213800Y-61341000D01*
X162406955Y-61341000D01*
X162528276Y-61111110D01*
X162483625Y-60963901D01*
X162358441Y-60701080D01*
X162184388Y-60467731D01*
X161968155Y-60272822D01*
X161851266Y-60203195D01*
X162033432Y-60081475D01*
X162240275Y-59874632D01*
X162402790Y-59631411D01*
X162514732Y-59361158D01*
X162571800Y-59074260D01*
X162571800Y-58781740D01*
X162514732Y-58494842D01*
X162402790Y-58224589D01*
X162240275Y-57981368D01*
X162033432Y-57774525D01*
X161859040Y-57658000D01*
X162033432Y-57541475D01*
X162240275Y-57334632D01*
X162402790Y-57091411D01*
X162514732Y-56821158D01*
X162571800Y-56534260D01*
X162571800Y-56241740D01*
X162514732Y-55954842D01*
X162402790Y-55684589D01*
X162240275Y-55441368D01*
X162033432Y-55234525D01*
X161859040Y-55118000D01*
X162033432Y-55001475D01*
X162240275Y-54794632D01*
X162402790Y-54551411D01*
X162514732Y-54281158D01*
X162571800Y-53994260D01*
X162571800Y-53701740D01*
X162514732Y-53414842D01*
X162402790Y-53144589D01*
X162240275Y-52901368D01*
X162033432Y-52694525D01*
X161859040Y-52578000D01*
X162033432Y-52461475D01*
X162240275Y-52254632D01*
X162402790Y-52011411D01*
X162514732Y-51741158D01*
X162571800Y-51454260D01*
X162571800Y-51161740D01*
X162514732Y-50874842D01*
X162402790Y-50604589D01*
X162240275Y-50361368D01*
X162033432Y-50154525D01*
X161859040Y-50038000D01*
X162033432Y-49921475D01*
X162240275Y-49714632D01*
X162402790Y-49471411D01*
X162514732Y-49201158D01*
X162571800Y-48914260D01*
X162571800Y-48621740D01*
X162514732Y-48334842D01*
X162402790Y-48064589D01*
X162240275Y-47821368D01*
X162033432Y-47614525D01*
X161859040Y-47498000D01*
X162033432Y-47381475D01*
X162240275Y-47174632D01*
X162402790Y-46931411D01*
X162514732Y-46661158D01*
X162571800Y-46374260D01*
X162571800Y-46081740D01*
X162514732Y-45794842D01*
X162402790Y-45524589D01*
X162240275Y-45281368D01*
X162033432Y-45074525D01*
X161859040Y-44958000D01*
X162033432Y-44841475D01*
X162240275Y-44634632D01*
X162402790Y-44391411D01*
X162514732Y-44121158D01*
X162571800Y-43834260D01*
X162571800Y-43541740D01*
X162514732Y-43254842D01*
X162402790Y-42984589D01*
X162240275Y-42741368D01*
X162033432Y-42534525D01*
X161859040Y-42418000D01*
X162033432Y-42301475D01*
X162240275Y-42094632D01*
X162402790Y-41851411D01*
X162514732Y-41581158D01*
X162571800Y-41294260D01*
X162571800Y-41001740D01*
X162514732Y-40714842D01*
X162402790Y-40444589D01*
X162240275Y-40201368D01*
X162108420Y-40069513D01*
X162180980Y-40047502D01*
X162291294Y-39988537D01*
X162387985Y-39909185D01*
X162467337Y-39812494D01*
X162526302Y-39702180D01*
X162562612Y-39582482D01*
X162574872Y-39458000D01*
X162574872Y-39110475D01*
X165005000Y-39110475D01*
X165005000Y-39629525D01*
X165106261Y-40138601D01*
X165304893Y-40618141D01*
X165593262Y-41049715D01*
X165960285Y-41416738D01*
X166391859Y-41705107D01*
X166871399Y-41903739D01*
X167380475Y-42005000D01*
X167899525Y-42005000D01*
X168408601Y-41903739D01*
X168888141Y-41705107D01*
X169319715Y-41416738D01*
X169686738Y-41049715D01*
X169975107Y-40618141D01*
X170173739Y-40138601D01*
X170275000Y-39629525D01*
X170275000Y-39110475D01*
X170173739Y-38601399D01*
X169975107Y-38121859D01*
X169686738Y-37690285D01*
X169319715Y-37323262D01*
X168888141Y-37034893D01*
X168408601Y-36836261D01*
X167899525Y-36735000D01*
X167380475Y-36735000D01*
X166871399Y-36836261D01*
X166391859Y-37034893D01*
X165960285Y-37323262D01*
X165593262Y-37690285D01*
X165304893Y-38121859D01*
X165106261Y-38601399D01*
X165005000Y-39110475D01*
X162574872Y-39110475D01*
X162574872Y-37758000D01*
X162562612Y-37633518D01*
X162526302Y-37513820D01*
X162467337Y-37403506D01*
X162387985Y-37306815D01*
X162291294Y-37227463D01*
X162180980Y-37168498D01*
X162061282Y-37132188D01*
X161936800Y-37119928D01*
X160236800Y-37119928D01*
X160112318Y-37132188D01*
X159992620Y-37168498D01*
X159882306Y-37227463D01*
X159785615Y-37306815D01*
X159706263Y-37403506D01*
X159647298Y-37513820D01*
X159610988Y-37633518D01*
X159598728Y-37758000D01*
X159598728Y-39458000D01*
X159610988Y-39582482D01*
X159647298Y-39702180D01*
X159706263Y-39812494D01*
X159785615Y-39909185D01*
X159882306Y-39988537D01*
X159992620Y-40047502D01*
X160065180Y-40069513D01*
X159933325Y-40201368D01*
X159770810Y-40444589D01*
X159658868Y-40714842D01*
X159601800Y-41001740D01*
X159601800Y-41294260D01*
X159658868Y-41581158D01*
X159770810Y-41851411D01*
X159933325Y-42094632D01*
X160140168Y-42301475D01*
X160314560Y-42418000D01*
X160140168Y-42534525D01*
X159933325Y-42741368D01*
X159770810Y-42984589D01*
X159658868Y-43254842D01*
X159601800Y-43541740D01*
X159601800Y-43834260D01*
X159658868Y-44121158D01*
X159770810Y-44391411D01*
X159933325Y-44634632D01*
X160140168Y-44841475D01*
X160314560Y-44958000D01*
X160140168Y-45074525D01*
X159933325Y-45281368D01*
X159770810Y-45524589D01*
X159658868Y-45794842D01*
X159601800Y-46081740D01*
X159601800Y-46374260D01*
X159658868Y-46661158D01*
X159770810Y-46931411D01*
X159933325Y-47174632D01*
X160140168Y-47381475D01*
X160314560Y-47498000D01*
X160140168Y-47614525D01*
X159933325Y-47821368D01*
X159770810Y-48064589D01*
X159658868Y-48334842D01*
X159601800Y-48621740D01*
X159601800Y-48914260D01*
X159658868Y-49201158D01*
X159770810Y-49471411D01*
X159933325Y-49714632D01*
X160140168Y-49921475D01*
X160314560Y-50038000D01*
X160140168Y-50154525D01*
X159933325Y-50361368D01*
X159770810Y-50604589D01*
X159658868Y-50874842D01*
X159601800Y-51161740D01*
X159601800Y-51454260D01*
X159658868Y-51741158D01*
X159770810Y-52011411D01*
X159933325Y-52254632D01*
X160140168Y-52461475D01*
X160314560Y-52578000D01*
X160140168Y-52694525D01*
X159933325Y-52901368D01*
X159770810Y-53144589D01*
X159658868Y-53414842D01*
X159601800Y-53701740D01*
X159601800Y-53994260D01*
X159658868Y-54281158D01*
X159770810Y-54551411D01*
X159933325Y-54794632D01*
X160140168Y-55001475D01*
X160314560Y-55118000D01*
X160140168Y-55234525D01*
X159933325Y-55441368D01*
X159770810Y-55684589D01*
X159658868Y-55954842D01*
X159601800Y-56241740D01*
X159601800Y-56534260D01*
X159604715Y-56548913D01*
X152395436Y-49339635D01*
X152387003Y-49254015D01*
X152379008Y-49227658D01*
X152401680Y-49193727D01*
X152509853Y-48932574D01*
X152565000Y-48655335D01*
X152565000Y-48372665D01*
X152509853Y-48095426D01*
X152401680Y-47834273D01*
X152244637Y-47599241D01*
X152044759Y-47399363D01*
X151812241Y-47244000D01*
X152044759Y-47088637D01*
X152244637Y-46888759D01*
X152401680Y-46653727D01*
X152509853Y-46392574D01*
X152565000Y-46115335D01*
X152565000Y-45832665D01*
X152509853Y-45555426D01*
X152401680Y-45294273D01*
X152244637Y-45059241D01*
X152044759Y-44859363D01*
X151812241Y-44704000D01*
X152044759Y-44548637D01*
X152244637Y-44348759D01*
X152401680Y-44113727D01*
X152509853Y-43852574D01*
X152565000Y-43575335D01*
X152565000Y-43292665D01*
X152509853Y-43015426D01*
X152401680Y-42754273D01*
X152244637Y-42519241D01*
X152044759Y-42319363D01*
X151812241Y-42164000D01*
X152044759Y-42008637D01*
X152244637Y-41808759D01*
X152401680Y-41573727D01*
X152509853Y-41312574D01*
X152565000Y-41035335D01*
X152565000Y-40752665D01*
X152509853Y-40475426D01*
X152401680Y-40214273D01*
X152244637Y-39979241D01*
X152044759Y-39779363D01*
X151812241Y-39624000D01*
X152044759Y-39468637D01*
X152244637Y-39268759D01*
X152401680Y-39033727D01*
X152509853Y-38772574D01*
X152565000Y-38495335D01*
X152565000Y-38212665D01*
X152509853Y-37935426D01*
X152401680Y-37674273D01*
X152244637Y-37439241D01*
X152044759Y-37239363D01*
X151809727Y-37082320D01*
X151548574Y-36974147D01*
X151271335Y-36919000D01*
X150988665Y-36919000D01*
X150711426Y-36974147D01*
X150450273Y-37082320D01*
X150215241Y-37239363D01*
X150015363Y-37439241D01*
X149858320Y-37674273D01*
X149750147Y-37935426D01*
X149695000Y-38212665D01*
X149695000Y-38495335D01*
X149750147Y-38772574D01*
X149858320Y-39033727D01*
X150015363Y-39268759D01*
X150215241Y-39468637D01*
X150447759Y-39624000D01*
X150215241Y-39779363D01*
X150015363Y-39979241D01*
X149858320Y-40214273D01*
X149750147Y-40475426D01*
X149695000Y-40752665D01*
X149695000Y-41035335D01*
X149750147Y-41312574D01*
X149858320Y-41573727D01*
X150015363Y-41808759D01*
X150215241Y-42008637D01*
X150447759Y-42164000D01*
X150215241Y-42319363D01*
X150015363Y-42519241D01*
X149858320Y-42754273D01*
X149750147Y-43015426D01*
X149695000Y-43292665D01*
X149695000Y-43575335D01*
X149750147Y-43852574D01*
X149858320Y-44113727D01*
X150015363Y-44348759D01*
X150215241Y-44548637D01*
X150447759Y-44704000D01*
X150215241Y-44859363D01*
X150015363Y-45059241D01*
X149858320Y-45294273D01*
X149750147Y-45555426D01*
X149695000Y-45832665D01*
X149695000Y-46115335D01*
X149750147Y-46392574D01*
X149858320Y-46653727D01*
X150015363Y-46888759D01*
X150215241Y-47088637D01*
X150447759Y-47244000D01*
X150215241Y-47399363D01*
X150015363Y-47599241D01*
X149858320Y-47834273D01*
X149750147Y-48095426D01*
X149695000Y-48372665D01*
X149695000Y-48655335D01*
X149750147Y-48932574D01*
X149858320Y-49193727D01*
X150015363Y-49428759D01*
X150215241Y-49628637D01*
X150447759Y-49784000D01*
X150215241Y-49939363D01*
X150015363Y-50139241D01*
X149860000Y-50371759D01*
X149704637Y-50139241D01*
X149504759Y-49939363D01*
X149269727Y-49782320D01*
X149008574Y-49674147D01*
X148731335Y-49619000D01*
X148448665Y-49619000D01*
X148171426Y-49674147D01*
X147910273Y-49782320D01*
X147675241Y-49939363D01*
X147475363Y-50139241D01*
X147320000Y-50371759D01*
X147164637Y-50139241D01*
X146964759Y-49939363D01*
X146729727Y-49782320D01*
X146468574Y-49674147D01*
X146191335Y-49619000D01*
X145908665Y-49619000D01*
X145631426Y-49674147D01*
X145370273Y-49782320D01*
X145135241Y-49939363D01*
X144935363Y-50139241D01*
X144780000Y-50371759D01*
X144624637Y-50139241D01*
X144424759Y-49939363D01*
X144189727Y-49782320D01*
X143928574Y-49674147D01*
X143651335Y-49619000D01*
X143368665Y-49619000D01*
X143091426Y-49674147D01*
X142830273Y-49782320D01*
X142595241Y-49939363D01*
X142395363Y-50139241D01*
X142240000Y-50371759D01*
X142084637Y-50139241D01*
X141884759Y-49939363D01*
X141649727Y-49782320D01*
X141388574Y-49674147D01*
X141111335Y-49619000D01*
X140828665Y-49619000D01*
X140551426Y-49674147D01*
X140290273Y-49782320D01*
X140055241Y-49939363D01*
X139855363Y-50139241D01*
X139700000Y-50371759D01*
X139544637Y-50139241D01*
X139344759Y-49939363D01*
X139109727Y-49782320D01*
X138848574Y-49674147D01*
X138571335Y-49619000D01*
X138288665Y-49619000D01*
X138011426Y-49674147D01*
X137750273Y-49782320D01*
X137515241Y-49939363D01*
X137315363Y-50139241D01*
X137160000Y-50371759D01*
X137004637Y-50139241D01*
X136804759Y-49939363D01*
X136572241Y-49784000D01*
X136804759Y-49628637D01*
X137004637Y-49428759D01*
X137161680Y-49193727D01*
X137269853Y-48932574D01*
X137325000Y-48655335D01*
X137325000Y-48372665D01*
X137269853Y-48095426D01*
X137161680Y-47834273D01*
X137004637Y-47599241D01*
X136804759Y-47399363D01*
X136572241Y-47244000D01*
X136804759Y-47088637D01*
X137004637Y-46888759D01*
X137161680Y-46653727D01*
X137269853Y-46392574D01*
X137325000Y-46115335D01*
X137325000Y-45832665D01*
X137269853Y-45555426D01*
X137161680Y-45294273D01*
X137004637Y-45059241D01*
X136804759Y-44859363D01*
X136572241Y-44704000D01*
X136804759Y-44548637D01*
X137004637Y-44348759D01*
X137161680Y-44113727D01*
X137269853Y-43852574D01*
X137325000Y-43575335D01*
X137325000Y-43292665D01*
X137269853Y-43015426D01*
X137161680Y-42754273D01*
X137004637Y-42519241D01*
X136804759Y-42319363D01*
X136572241Y-42164000D01*
X136804759Y-42008637D01*
X137004637Y-41808759D01*
X137161680Y-41573727D01*
X137269853Y-41312574D01*
X137325000Y-41035335D01*
X137325000Y-40752665D01*
X137269853Y-40475426D01*
X137161680Y-40214273D01*
X137004637Y-39979241D01*
X136804759Y-39779363D01*
X136572241Y-39624000D01*
X136804759Y-39468637D01*
X137004637Y-39268759D01*
X137161680Y-39033727D01*
X137269853Y-38772574D01*
X137325000Y-38495335D01*
X137325000Y-38212665D01*
X137269853Y-37935426D01*
X137161680Y-37674273D01*
X137004637Y-37439241D01*
X136804759Y-37239363D01*
X136569727Y-37082320D01*
X136308574Y-36974147D01*
X136031335Y-36919000D01*
X135748665Y-36919000D01*
X135471426Y-36974147D01*
X135210273Y-37082320D01*
X134975241Y-37239363D01*
X134775363Y-37439241D01*
X134618320Y-37674273D01*
X134510147Y-37935426D01*
X134455000Y-38212665D01*
X134455000Y-38495335D01*
X134510147Y-38772574D01*
X134618320Y-39033727D01*
X134775363Y-39268759D01*
X134975241Y-39468637D01*
X135207759Y-39624000D01*
X134975241Y-39779363D01*
X134775363Y-39979241D01*
X134618320Y-40214273D01*
X134510147Y-40475426D01*
X134455000Y-40752665D01*
X134455000Y-41035335D01*
X134510147Y-41312574D01*
X134618320Y-41573727D01*
X134775363Y-41808759D01*
X134975241Y-42008637D01*
X135207759Y-42164000D01*
X134975241Y-42319363D01*
X134775363Y-42519241D01*
X134618320Y-42754273D01*
X134510147Y-43015426D01*
X134455000Y-43292665D01*
X134455000Y-43575335D01*
X134510147Y-43852574D01*
X134618320Y-44113727D01*
X134775363Y-44348759D01*
X134975241Y-44548637D01*
X135207759Y-44704000D01*
X134975241Y-44859363D01*
X134775363Y-45059241D01*
X134618320Y-45294273D01*
X134510147Y-45555426D01*
X134455000Y-45832665D01*
X134455000Y-46115335D01*
X134510147Y-46392574D01*
X134618320Y-46653727D01*
X134775363Y-46888759D01*
X134975241Y-47088637D01*
X135207759Y-47244000D01*
X134975241Y-47399363D01*
X134775363Y-47599241D01*
X134618320Y-47834273D01*
X134510147Y-48095426D01*
X134455000Y-48372665D01*
X134455000Y-48655335D01*
X134510147Y-48932574D01*
X134618320Y-49193727D01*
X134775363Y-49428759D01*
X134975241Y-49628637D01*
X135207759Y-49784000D01*
X134975241Y-49939363D01*
X134775363Y-50139241D01*
X134618320Y-50374273D01*
X134510147Y-50635426D01*
X134455000Y-50912665D01*
X134455000Y-51195335D01*
X134510147Y-51472574D01*
X134618320Y-51733727D01*
X134775363Y-51968759D01*
X134975241Y-52168637D01*
X135207759Y-52324000D01*
X134975241Y-52479363D01*
X134775363Y-52679241D01*
X134618320Y-52914273D01*
X134510147Y-53175426D01*
X134455000Y-53452665D01*
X134455000Y-53735335D01*
X134510147Y-54012574D01*
X134618320Y-54273727D01*
X134775363Y-54508759D01*
X134975241Y-54708637D01*
X135207759Y-54864000D01*
X134975241Y-55019363D01*
X134775363Y-55219241D01*
X134618320Y-55454273D01*
X134510147Y-55715426D01*
X134455000Y-55992665D01*
X134455000Y-56275335D01*
X134510147Y-56552574D01*
X134608077Y-56788999D01*
X134376018Y-56788999D01*
X134338695Y-56785323D01*
X134301372Y-56788999D01*
X134301362Y-56788999D01*
X134189709Y-56799996D01*
X134046448Y-56843453D01*
X133914418Y-56914025D01*
X133830778Y-56982667D01*
X133798694Y-57008998D01*
X133774896Y-57037996D01*
X132543546Y-58269347D01*
X132481408Y-58269347D01*
X132281449Y-58309121D01*
X132093091Y-58387142D01*
X131923573Y-58500410D01*
X131821347Y-58602636D01*
X131723774Y-58505063D01*
X131554256Y-58391795D01*
X131365898Y-58313774D01*
X131165939Y-58274000D01*
X130962061Y-58274000D01*
X130762102Y-58313774D01*
X130573744Y-58391795D01*
X130404226Y-58505063D01*
X130260063Y-58649226D01*
X130146795Y-58818744D01*
X130068774Y-59007102D01*
X130029000Y-59207061D01*
X130029000Y-59410939D01*
X130068774Y-59610898D01*
X130146795Y-59799256D01*
X130260063Y-59968774D01*
X130404226Y-60112937D01*
X130573744Y-60226205D01*
X130762102Y-60304226D01*
X130962061Y-60344000D01*
X131024199Y-60344000D01*
X131298198Y-60618000D01*
X130107405Y-60618000D01*
X130063468Y-60574063D01*
X129893950Y-60460795D01*
X129705592Y-60382774D01*
X129505633Y-60343000D01*
X129301755Y-60343000D01*
X129101796Y-60382774D01*
X128913438Y-60460795D01*
X128743920Y-60574063D01*
X128599757Y-60718226D01*
X128486489Y-60887744D01*
X128408468Y-61076102D01*
X128368694Y-61276061D01*
X115697000Y-61276061D01*
X115697000Y-53813967D01*
X120793000Y-53813967D01*
X120793000Y-54136033D01*
X120855832Y-54451912D01*
X120979082Y-54749463D01*
X121158013Y-55017252D01*
X121385748Y-55244987D01*
X121653537Y-55423918D01*
X121951088Y-55547168D01*
X122266967Y-55610000D01*
X122589033Y-55610000D01*
X122904912Y-55547168D01*
X123202463Y-55423918D01*
X123470252Y-55244987D01*
X123697987Y-55017252D01*
X123876918Y-54749463D01*
X124000168Y-54451912D01*
X124063000Y-54136033D01*
X124063000Y-53813967D01*
X124000168Y-53498088D01*
X123876918Y-53200537D01*
X123697987Y-52932748D01*
X123470252Y-52705013D01*
X123202463Y-52526082D01*
X122904912Y-52402832D01*
X122589033Y-52340000D01*
X122266967Y-52340000D01*
X121951088Y-52402832D01*
X121653537Y-52526082D01*
X121385748Y-52705013D01*
X121158013Y-52932748D01*
X120979082Y-53200537D01*
X120855832Y-53498088D01*
X120793000Y-53813967D01*
X115697000Y-53813967D01*
X115697000Y-50003967D01*
X120920000Y-50003967D01*
X120920000Y-50326033D01*
X120982832Y-50641912D01*
X121106082Y-50939463D01*
X121285013Y-51207252D01*
X121512748Y-51434987D01*
X121780537Y-51613918D01*
X122078088Y-51737168D01*
X122393967Y-51800000D01*
X122716033Y-51800000D01*
X123031912Y-51737168D01*
X123329463Y-51613918D01*
X123597252Y-51434987D01*
X123824987Y-51207252D01*
X124003918Y-50939463D01*
X124127168Y-50641912D01*
X124190000Y-50326033D01*
X124190000Y-50003967D01*
X124127168Y-49688088D01*
X124003918Y-49390537D01*
X123824987Y-49122748D01*
X123597252Y-48895013D01*
X123329463Y-48716082D01*
X123031912Y-48592832D01*
X122716033Y-48530000D01*
X122393967Y-48530000D01*
X122078088Y-48592832D01*
X121780537Y-48716082D01*
X121512748Y-48895013D01*
X121285013Y-49122748D01*
X121106082Y-49390537D01*
X120982832Y-49688088D01*
X120920000Y-50003967D01*
X115697000Y-50003967D01*
X115697000Y-34950000D01*
X172060001Y-34950000D01*
X172060000Y-99670000D01*
G37*
X172060000Y-99670000D02*
X109691990Y-99670000D01*
X114327690Y-90398600D01*
X117299800Y-90398600D01*
X117299800Y-92148600D01*
X117370404Y-92611450D01*
X117529948Y-93051632D01*
X117772302Y-93452231D01*
X118088152Y-93797852D01*
X118465361Y-94075212D01*
X118889432Y-94273653D01*
X119186797Y-94354027D01*
X119557800Y-94244225D01*
X119557800Y-90398600D01*
X119811800Y-90398600D01*
X119811800Y-94244225D01*
X120182803Y-94354027D01*
X120480168Y-94273653D01*
X120904239Y-94075212D01*
X121281448Y-93797852D01*
X121597298Y-93452231D01*
X121839652Y-93051632D01*
X121999196Y-92611450D01*
X122069800Y-92148600D01*
X122069800Y-90398600D01*
X127459800Y-90398600D01*
X127459800Y-92148600D01*
X127530404Y-92611450D01*
X127689948Y-93051632D01*
X127932302Y-93452231D01*
X128248152Y-93797852D01*
X128625361Y-94075212D01*
X129049432Y-94273653D01*
X129346797Y-94354027D01*
X129717800Y-94244225D01*
X129717800Y-90398600D01*
X129971800Y-90398600D01*
X129971800Y-94244225D01*
X130342803Y-94354027D01*
X130640168Y-94273653D01*
X131064239Y-94075212D01*
X131441448Y-93797852D01*
X131757298Y-93452231D01*
X131999652Y-93051632D01*
X132159196Y-92611450D01*
X132229800Y-92148600D01*
X132229800Y-90398600D01*
X129971800Y-90398600D01*
X129717800Y-90398600D01*
X127459800Y-90398600D01*
X122069800Y-90398600D01*
X119811800Y-90398600D01*
X119557800Y-90398600D01*
X117299800Y-90398600D01*
X114327690Y-90398600D01*
X115329690Y-88394600D01*
X117299800Y-88394600D01*
X117299800Y-90144600D01*
X119557800Y-90144600D01*
X119557800Y-86298975D01*
X119811800Y-86298975D01*
X119811800Y-90144600D01*
X122069800Y-90144600D01*
X122069800Y-88394600D01*
X127459800Y-88394600D01*
X127459800Y-90144600D01*
X129717800Y-90144600D01*
X129717800Y-86298975D01*
X129971800Y-86298975D01*
X129971800Y-90144600D01*
X132229800Y-90144600D01*
X132229800Y-88394600D01*
X132159196Y-87931750D01*
X131999652Y-87491568D01*
X131757298Y-87090969D01*
X131441448Y-86745348D01*
X131064239Y-86467988D01*
X130640168Y-86269547D01*
X130342803Y-86189173D01*
X129971800Y-86298975D01*
X129717800Y-86298975D01*
X129346797Y-86189173D01*
X129049432Y-86269547D01*
X128625361Y-86467988D01*
X128248152Y-86745348D01*
X127932302Y-87090969D01*
X127689948Y-87491568D01*
X127530404Y-87931750D01*
X127459800Y-88394600D01*
X122069800Y-88394600D01*
X121999196Y-87931750D01*
X121839652Y-87491568D01*
X121597298Y-87090969D01*
X121281448Y-86745348D01*
X120904239Y-86467988D01*
X120480168Y-86269547D01*
X120182803Y-86189173D01*
X119811800Y-86298975D01*
X119557800Y-86298975D01*
X119186797Y-86189173D01*
X118889432Y-86269547D01*
X118465361Y-86467988D01*
X118088152Y-86745348D01*
X117772302Y-87090969D01*
X117529948Y-87491568D01*
X117370404Y-87931750D01*
X117299800Y-88394600D01*
X115329690Y-88394600D01*
X117191436Y-84671108D01*
X123329800Y-84671108D01*
X123329800Y-85712091D01*
X123350564Y-85922908D01*
X123432618Y-86193407D01*
X123565868Y-86442700D01*
X123745192Y-86661207D01*
X123963699Y-86840532D01*
X124212992Y-86973782D01*
X124483491Y-87055836D01*
X124764800Y-87083543D01*
X125046108Y-87055836D01*
X125316607Y-86973782D01*
X125565900Y-86840532D01*
X125784407Y-86661208D01*
X125963732Y-86442701D01*
X126032065Y-86314859D01*
X126182199Y-86544439D01*
X126379905Y-86746100D01*
X126613154Y-86905315D01*
X126872982Y-87015967D01*
X126955761Y-87033504D01*
X127177800Y-86911515D01*
X127177800Y-85318600D01*
X127431800Y-85318600D01*
X127431800Y-86911515D01*
X127653839Y-87033504D01*
X127736618Y-87015967D01*
X127996446Y-86905315D01*
X128229695Y-86746100D01*
X128427401Y-86544439D01*
X128581966Y-86308083D01*
X128687450Y-86046114D01*
X128739800Y-85768600D01*
X128739800Y-85318600D01*
X127431800Y-85318600D01*
X127177800Y-85318600D01*
X127157800Y-85318600D01*
X127157800Y-85064600D01*
X127177800Y-85064600D01*
X127177800Y-83471685D01*
X127431800Y-83471685D01*
X127431800Y-85064600D01*
X128739800Y-85064600D01*
X128739800Y-84614600D01*
X128687450Y-84337086D01*
X128581966Y-84075117D01*
X128427401Y-83838761D01*
X128229695Y-83637100D01*
X127996446Y-83477885D01*
X127736618Y-83367233D01*
X127653839Y-83349696D01*
X127431800Y-83471685D01*
X127177800Y-83471685D01*
X126955761Y-83349696D01*
X126872982Y-83367233D01*
X126613154Y-83477885D01*
X126379905Y-83637100D01*
X126182199Y-83838761D01*
X126032065Y-84068341D01*
X125963732Y-83940499D01*
X125784408Y-83721992D01*
X125565901Y-83542668D01*
X125316608Y-83409418D01*
X125046109Y-83327364D01*
X124764800Y-83299657D01*
X124483492Y-83327364D01*
X124212993Y-83409418D01*
X123963700Y-83542668D01*
X123745193Y-83721992D01*
X123565868Y-83940499D01*
X123432618Y-84189792D01*
X123350564Y-84460291D01*
X123329800Y-84671108D01*
X117191436Y-84671108D01*
X120951014Y-77151952D01*
X120982832Y-77311912D01*
X121106082Y-77609463D01*
X121285013Y-77877252D01*
X121512748Y-78104987D01*
X121780537Y-78283918D01*
X122078088Y-78407168D01*
X122393967Y-78470000D01*
X122716033Y-78470000D01*
X123031912Y-78407168D01*
X123329463Y-78283918D01*
X123597252Y-78104987D01*
X123824987Y-77877252D01*
X124003918Y-77609463D01*
X124127168Y-77311912D01*
X124190000Y-76996033D01*
X124190000Y-76673967D01*
X124127168Y-76358088D01*
X124003918Y-76060537D01*
X123824987Y-75792748D01*
X123597252Y-75565013D01*
X123329463Y-75386082D01*
X123031912Y-75262832D01*
X122716033Y-75200000D01*
X122393967Y-75200000D01*
X122078088Y-75262832D01*
X121847900Y-75358179D01*
X122033592Y-74986796D01*
X122042490Y-74963544D01*
X122047000Y-74930000D01*
X122047000Y-67310000D01*
X122044560Y-67285224D01*
X122037333Y-67261399D01*
X122025597Y-67239443D01*
X122009803Y-67220197D01*
X121990557Y-67204403D01*
X121968601Y-67192667D01*
X121944776Y-67185440D01*
X121920000Y-67183000D01*
X115697000Y-67183000D01*
X115697000Y-61276061D01*
X128368694Y-61276061D01*
X128368694Y-61479939D01*
X128408468Y-61679898D01*
X128486489Y-61868256D01*
X128599757Y-62037774D01*
X128743920Y-62181937D01*
X128913438Y-62295205D01*
X129101796Y-62373226D01*
X129301755Y-62413000D01*
X129505633Y-62413000D01*
X129705592Y-62373226D01*
X129893950Y-62295205D01*
X130063468Y-62181937D01*
X130107405Y-62138000D01*
X132302289Y-62138000D01*
X132309226Y-62144937D01*
X132478744Y-62258205D01*
X132667102Y-62336226D01*
X132867061Y-62376000D01*
X132951206Y-62376000D01*
X132950000Y-62382061D01*
X132950000Y-62585939D01*
X132989774Y-62785898D01*
X133067795Y-62974256D01*
X133181063Y-63143774D01*
X133325226Y-63287937D01*
X133494744Y-63401205D01*
X133683102Y-63479226D01*
X133883061Y-63519000D01*
X134086939Y-63519000D01*
X134286898Y-63479226D01*
X134475256Y-63401205D01*
X134500405Y-63384401D01*
X134455000Y-63612665D01*
X134455000Y-63895335D01*
X134510147Y-64172574D01*
X134618320Y-64433727D01*
X134775363Y-64668759D01*
X134975241Y-64868637D01*
X135207759Y-65024000D01*
X134975241Y-65179363D01*
X134775363Y-65379241D01*
X134618320Y-65614273D01*
X134510147Y-65875426D01*
X134455000Y-66152665D01*
X134455000Y-66435335D01*
X134510147Y-66712574D01*
X134618320Y-66973727D01*
X134775363Y-67208759D01*
X134975241Y-67408637D01*
X135207759Y-67564000D01*
X134975241Y-67719363D01*
X134775363Y-67919241D01*
X134618320Y-68154273D01*
X134510147Y-68415426D01*
X134455000Y-68692665D01*
X134455000Y-68975335D01*
X134510147Y-69252574D01*
X134618320Y-69513727D01*
X134775363Y-69748759D01*
X134975241Y-69948637D01*
X135207759Y-70104000D01*
X134975241Y-70259363D01*
X134775363Y-70459241D01*
X134618320Y-70694273D01*
X134510147Y-70955426D01*
X134455000Y-71232665D01*
X134455000Y-71515335D01*
X134510147Y-71792574D01*
X134618320Y-72053727D01*
X134775363Y-72288759D01*
X134975241Y-72488637D01*
X135207759Y-72644000D01*
X134975241Y-72799363D01*
X134775363Y-72999241D01*
X134618320Y-73234273D01*
X134510147Y-73495426D01*
X134455000Y-73772665D01*
X134455000Y-74055335D01*
X134510147Y-74332574D01*
X134618320Y-74593727D01*
X134775363Y-74828759D01*
X134975241Y-75028637D01*
X135207759Y-75184000D01*
X134975241Y-75339363D01*
X134775363Y-75539241D01*
X134618320Y-75774273D01*
X134510147Y-76035426D01*
X134455000Y-76312665D01*
X134455000Y-76595335D01*
X134510147Y-76872574D01*
X134618320Y-77133727D01*
X134775363Y-77368759D01*
X134975241Y-77568637D01*
X135207759Y-77724000D01*
X134975241Y-77879363D01*
X134775363Y-78079241D01*
X134618320Y-78314273D01*
X134510147Y-78575426D01*
X134455000Y-78852665D01*
X134455000Y-79135335D01*
X134510147Y-79412574D01*
X134618320Y-79673727D01*
X134775363Y-79908759D01*
X134975241Y-80108637D01*
X135207759Y-80264000D01*
X134975241Y-80419363D01*
X134775363Y-80619241D01*
X134618320Y-80854273D01*
X134510147Y-81115426D01*
X134455000Y-81392665D01*
X134455000Y-81675335D01*
X134510147Y-81952574D01*
X134618320Y-82213727D01*
X134775363Y-82448759D01*
X134975241Y-82648637D01*
X135207759Y-82804000D01*
X134975241Y-82959363D01*
X134775363Y-83159241D01*
X134618320Y-83394273D01*
X134510147Y-83655426D01*
X134455000Y-83932665D01*
X134455000Y-84215335D01*
X134510147Y-84492574D01*
X134618320Y-84753727D01*
X134775363Y-84988759D01*
X134975241Y-85188637D01*
X135207759Y-85344000D01*
X134975241Y-85499363D01*
X134775363Y-85699241D01*
X134618320Y-85934273D01*
X134510147Y-86195426D01*
X134455000Y-86472665D01*
X134455000Y-86755335D01*
X134510147Y-87032574D01*
X134618320Y-87293727D01*
X134775363Y-87528759D01*
X134975241Y-87728637D01*
X135207759Y-87884000D01*
X134975241Y-88039363D01*
X134775363Y-88239241D01*
X134618320Y-88474273D01*
X134510147Y-88735426D01*
X134455000Y-89012665D01*
X134455000Y-89295335D01*
X134510147Y-89572574D01*
X134618320Y-89833727D01*
X134775363Y-90068759D01*
X134975241Y-90268637D01*
X135207759Y-90424000D01*
X134975241Y-90579363D01*
X134775363Y-90779241D01*
X134618320Y-91014273D01*
X134510147Y-91275426D01*
X134455000Y-91552665D01*
X134455000Y-91835335D01*
X134510147Y-92112574D01*
X134618320Y-92373727D01*
X134775363Y-92608759D01*
X134975241Y-92808637D01*
X135207759Y-92964000D01*
X134975241Y-93119363D01*
X134775363Y-93319241D01*
X134618320Y-93554273D01*
X134510147Y-93815426D01*
X134455000Y-94092665D01*
X134455000Y-94375335D01*
X134510147Y-94652574D01*
X134618320Y-94913727D01*
X134775363Y-95148759D01*
X134975241Y-95348637D01*
X135207759Y-95504000D01*
X134975241Y-95659363D01*
X134775363Y-95859241D01*
X134618320Y-96094273D01*
X134510147Y-96355426D01*
X134455000Y-96632665D01*
X134455000Y-96915335D01*
X134510147Y-97192574D01*
X134618320Y-97453727D01*
X134775363Y-97688759D01*
X134975241Y-97888637D01*
X135210273Y-98045680D01*
X135471426Y-98153853D01*
X135748665Y-98209000D01*
X136031335Y-98209000D01*
X136308574Y-98153853D01*
X136569727Y-98045680D01*
X136804759Y-97888637D01*
X137004637Y-97688759D01*
X137081316Y-97574000D01*
X149691928Y-97574000D01*
X149704188Y-97698482D01*
X149740498Y-97818180D01*
X149799463Y-97928494D01*
X149878815Y-98025185D01*
X149975506Y-98104537D01*
X150085820Y-98163502D01*
X150205518Y-98199812D01*
X150330000Y-98212072D01*
X150844250Y-98209000D01*
X151003000Y-98050250D01*
X151003000Y-96901000D01*
X151257000Y-96901000D01*
X151257000Y-98050250D01*
X151415750Y-98209000D01*
X151930000Y-98212072D01*
X152054482Y-98199812D01*
X152174180Y-98163502D01*
X152284494Y-98104537D01*
X152381185Y-98025185D01*
X152460537Y-97928494D01*
X152519502Y-97818180D01*
X152555812Y-97698482D01*
X152568072Y-97574000D01*
X152565000Y-97059750D01*
X152406250Y-96901000D01*
X151257000Y-96901000D01*
X151003000Y-96901000D01*
X149853750Y-96901000D01*
X149695000Y-97059750D01*
X149691928Y-97574000D01*
X137081316Y-97574000D01*
X137161680Y-97453727D01*
X137269853Y-97192574D01*
X137325000Y-96915335D01*
X137325000Y-96632665D01*
X137269853Y-96355426D01*
X137161680Y-96094273D01*
X137043524Y-95917439D01*
X140955000Y-95917439D01*
X140955000Y-96170561D01*
X141004381Y-96418821D01*
X141101247Y-96652676D01*
X141241875Y-96863140D01*
X141420860Y-97042125D01*
X141631324Y-97182753D01*
X141865179Y-97279619D01*
X142113439Y-97329000D01*
X142366561Y-97329000D01*
X142614821Y-97279619D01*
X142848676Y-97182753D01*
X143059140Y-97042125D01*
X143238125Y-96863140D01*
X143378753Y-96652676D01*
X143475619Y-96418821D01*
X143510000Y-96245973D01*
X143544381Y-96418821D01*
X143641247Y-96652676D01*
X143781875Y-96863140D01*
X143960860Y-97042125D01*
X144171324Y-97182753D01*
X144405179Y-97279619D01*
X144653439Y-97329000D01*
X144906561Y-97329000D01*
X145154821Y-97279619D01*
X145388676Y-97182753D01*
X145599140Y-97042125D01*
X145778125Y-96863140D01*
X145918753Y-96652676D01*
X146015619Y-96418821D01*
X146065000Y-96170561D01*
X146065000Y-95917439D01*
X146015619Y-95669179D01*
X145918753Y-95435324D01*
X145778125Y-95224860D01*
X145599140Y-95045875D01*
X145388676Y-94905247D01*
X145154821Y-94808381D01*
X144906561Y-94759000D01*
X144653439Y-94759000D01*
X144405179Y-94808381D01*
X144171324Y-94905247D01*
X143960860Y-95045875D01*
X143781875Y-95224860D01*
X143641247Y-95435324D01*
X143544381Y-95669179D01*
X143510000Y-95842027D01*
X143475619Y-95669179D01*
X143378753Y-95435324D01*
X143238125Y-95224860D01*
X143059140Y-95045875D01*
X142848676Y-94905247D01*
X142614821Y-94808381D01*
X142366561Y-94759000D01*
X142113439Y-94759000D01*
X141865179Y-94808381D01*
X141631324Y-94905247D01*
X141420860Y-95045875D01*
X141241875Y-95224860D01*
X141101247Y-95435324D01*
X141004381Y-95669179D01*
X140955000Y-95917439D01*
X137043524Y-95917439D01*
X137004637Y-95859241D01*
X136804759Y-95659363D01*
X136572241Y-95504000D01*
X136804759Y-95348637D01*
X137004637Y-95148759D01*
X137160000Y-94916241D01*
X137315363Y-95148759D01*
X137515241Y-95348637D01*
X137750273Y-95505680D01*
X138011426Y-95613853D01*
X138288665Y-95669000D01*
X138571335Y-95669000D01*
X138848574Y-95613853D01*
X139109727Y-95505680D01*
X139344759Y-95348637D01*
X139544637Y-95148759D01*
X139701680Y-94913727D01*
X139809853Y-94652574D01*
X139865000Y-94375335D01*
X139865000Y-94092665D01*
X139809853Y-93815426D01*
X139701680Y-93554273D01*
X139544637Y-93319241D01*
X139344759Y-93119363D01*
X139109727Y-92962320D01*
X138848574Y-92854147D01*
X138571335Y-92799000D01*
X138288665Y-92799000D01*
X138011426Y-92854147D01*
X137750273Y-92962320D01*
X137515241Y-93119363D01*
X137315363Y-93319241D01*
X137160000Y-93551759D01*
X137004637Y-93319241D01*
X136804759Y-93119363D01*
X136572241Y-92964000D01*
X136804759Y-92808637D01*
X137004637Y-92608759D01*
X137161680Y-92373727D01*
X137269853Y-92112574D01*
X137325000Y-91835335D01*
X137325000Y-91552665D01*
X137269853Y-91275426D01*
X137161680Y-91014273D01*
X137004637Y-90779241D01*
X136804759Y-90579363D01*
X136572241Y-90424000D01*
X136804759Y-90268637D01*
X137004637Y-90068759D01*
X137161680Y-89833727D01*
X137227509Y-89674800D01*
X146641128Y-89674800D01*
X146641128Y-91274800D01*
X146653388Y-91399282D01*
X146689698Y-91518980D01*
X146748663Y-91629294D01*
X146828015Y-91725985D01*
X146924706Y-91805337D01*
X147035020Y-91864302D01*
X147154718Y-91900612D01*
X147279200Y-91912872D01*
X148879200Y-91912872D01*
X149003682Y-91900612D01*
X149123380Y-91864302D01*
X149233694Y-91805337D01*
X149330385Y-91725985D01*
X149409737Y-91629294D01*
X149468702Y-91518980D01*
X149505012Y-91399282D01*
X149517272Y-91274800D01*
X149517272Y-89674800D01*
X149505012Y-89550318D01*
X149468702Y-89430620D01*
X149409737Y-89320306D01*
X149330385Y-89223615D01*
X149233694Y-89144263D01*
X149123380Y-89085298D01*
X149003682Y-89048988D01*
X148995239Y-89048157D01*
X149193837Y-88849559D01*
X149350880Y-88614527D01*
X149459053Y-88353374D01*
X149514200Y-88076135D01*
X149514200Y-87793465D01*
X149459053Y-87516226D01*
X149350880Y-87255073D01*
X149193837Y-87020041D01*
X148993959Y-86820163D01*
X148761441Y-86664800D01*
X148993959Y-86509437D01*
X149193837Y-86309559D01*
X149350880Y-86074527D01*
X149459053Y-85813374D01*
X149514200Y-85536135D01*
X149514200Y-85253465D01*
X149459053Y-84976226D01*
X149350880Y-84715073D01*
X149193837Y-84480041D01*
X148993959Y-84280163D01*
X148761441Y-84124800D01*
X148993959Y-83969437D01*
X149193837Y-83769559D01*
X149350880Y-83534527D01*
X149459053Y-83273374D01*
X149514200Y-82996135D01*
X149514200Y-82713465D01*
X149459053Y-82436226D01*
X149350880Y-82175073D01*
X149193837Y-81940041D01*
X148993959Y-81740163D01*
X148761441Y-81584800D01*
X148993959Y-81429437D01*
X149193837Y-81229559D01*
X149350880Y-80994527D01*
X149459053Y-80733374D01*
X149514200Y-80456135D01*
X149514200Y-80173465D01*
X149459053Y-79896226D01*
X149350880Y-79635073D01*
X149193837Y-79400041D01*
X148993959Y-79200163D01*
X148758927Y-79043120D01*
X148497774Y-78934947D01*
X148220535Y-78879800D01*
X147937865Y-78879800D01*
X147660626Y-78934947D01*
X147399473Y-79043120D01*
X147164441Y-79200163D01*
X146964563Y-79400041D01*
X146807520Y-79635073D01*
X146699347Y-79896226D01*
X146644200Y-80173465D01*
X146644200Y-80456135D01*
X146699347Y-80733374D01*
X146807520Y-80994527D01*
X146964563Y-81229559D01*
X147164441Y-81429437D01*
X147396959Y-81584800D01*
X147164441Y-81740163D01*
X146964563Y-81940041D01*
X146807520Y-82175073D01*
X146699347Y-82436226D01*
X146644200Y-82713465D01*
X146644200Y-82996135D01*
X146699347Y-83273374D01*
X146807520Y-83534527D01*
X146964563Y-83769559D01*
X147164441Y-83969437D01*
X147396959Y-84124800D01*
X147164441Y-84280163D01*
X146964563Y-84480041D01*
X146807520Y-84715073D01*
X146699347Y-84976226D01*
X146644200Y-85253465D01*
X146644200Y-85536135D01*
X146699347Y-85813374D01*
X146807520Y-86074527D01*
X146964563Y-86309559D01*
X147164441Y-86509437D01*
X147396959Y-86664800D01*
X147164441Y-86820163D01*
X146964563Y-87020041D01*
X146807520Y-87255073D01*
X146699347Y-87516226D01*
X146644200Y-87793465D01*
X146644200Y-88076135D01*
X146699347Y-88353374D01*
X146807520Y-88614527D01*
X146964563Y-88849559D01*
X147163161Y-89048157D01*
X147154718Y-89048988D01*
X147035020Y-89085298D01*
X146924706Y-89144263D01*
X146828015Y-89223615D01*
X146748663Y-89320306D01*
X146689698Y-89430620D01*
X146653388Y-89550318D01*
X146641128Y-89674800D01*
X137227509Y-89674800D01*
X137269853Y-89572574D01*
X137325000Y-89295335D01*
X137325000Y-89012665D01*
X137269853Y-88735426D01*
X137161680Y-88474273D01*
X137004637Y-88239241D01*
X136804759Y-88039363D01*
X136572241Y-87884000D01*
X136804759Y-87728637D01*
X137004637Y-87528759D01*
X137161680Y-87293727D01*
X137269853Y-87032574D01*
X137325000Y-86755335D01*
X137325000Y-86472665D01*
X137269853Y-86195426D01*
X137161680Y-85934273D01*
X137004637Y-85699241D01*
X136804759Y-85499363D01*
X136572241Y-85344000D01*
X136804759Y-85188637D01*
X137004637Y-84988759D01*
X137137740Y-84789556D01*
X137147863Y-84808494D01*
X137227215Y-84905185D01*
X137323906Y-84984537D01*
X137434220Y-85043502D01*
X137553918Y-85079812D01*
X137678400Y-85092072D01*
X138978400Y-85092072D01*
X139102882Y-85079812D01*
X139222580Y-85043502D01*
X139332894Y-84984537D01*
X139429585Y-84905185D01*
X139508937Y-84808494D01*
X139511530Y-84803642D01*
X139719724Y-84942753D01*
X139953579Y-85039619D01*
X140201839Y-85089000D01*
X140454961Y-85089000D01*
X140703221Y-85039619D01*
X140937076Y-84942753D01*
X141147540Y-84802125D01*
X141326525Y-84623140D01*
X141328400Y-84620334D01*
X141330275Y-84623140D01*
X141509260Y-84802125D01*
X141719724Y-84942753D01*
X141953579Y-85039619D01*
X142201839Y-85089000D01*
X142454961Y-85089000D01*
X142703221Y-85039619D01*
X142937076Y-84942753D01*
X143147540Y-84802125D01*
X143326525Y-84623140D01*
X143467153Y-84412676D01*
X143564019Y-84178821D01*
X143613400Y-83930561D01*
X143613400Y-83677439D01*
X143564019Y-83429179D01*
X143467153Y-83195324D01*
X143326525Y-82984860D01*
X143147540Y-82805875D01*
X143144734Y-82804000D01*
X143147540Y-82802125D01*
X143326525Y-82623140D01*
X143467153Y-82412676D01*
X143564019Y-82178821D01*
X143613400Y-81930561D01*
X143613400Y-81677439D01*
X143564019Y-81429179D01*
X143467153Y-81195324D01*
X143326525Y-80984860D01*
X143147540Y-80805875D01*
X142937076Y-80665247D01*
X142703221Y-80568381D01*
X142454961Y-80519000D01*
X142201839Y-80519000D01*
X141953579Y-80568381D01*
X141719724Y-80665247D01*
X141509260Y-80805875D01*
X141330275Y-80984860D01*
X141328400Y-80987666D01*
X141326525Y-80984860D01*
X141147540Y-80805875D01*
X140937076Y-80665247D01*
X140703221Y-80568381D01*
X140454961Y-80519000D01*
X140201839Y-80519000D01*
X139953579Y-80568381D01*
X139719724Y-80665247D01*
X139509260Y-80805875D01*
X139330275Y-80984860D01*
X139328400Y-80987666D01*
X139326525Y-80984860D01*
X139147540Y-80805875D01*
X138937076Y-80665247D01*
X138703221Y-80568381D01*
X138454961Y-80519000D01*
X138201839Y-80519000D01*
X137953579Y-80568381D01*
X137719724Y-80665247D01*
X137509260Y-80805875D01*
X137330275Y-80984860D01*
X137259590Y-81090648D01*
X137161680Y-80854273D01*
X137004637Y-80619241D01*
X136804759Y-80419363D01*
X136572241Y-80264000D01*
X136804759Y-80108637D01*
X137004637Y-79908759D01*
X137161680Y-79673727D01*
X137269853Y-79412574D01*
X137325000Y-79135335D01*
X137325000Y-78852665D01*
X137269853Y-78575426D01*
X137161680Y-78314273D01*
X137004637Y-78079241D01*
X136804759Y-77879363D01*
X136572241Y-77724000D01*
X136804759Y-77568637D01*
X137004637Y-77368759D01*
X137161680Y-77133727D01*
X137269853Y-76872574D01*
X137325000Y-76595335D01*
X137325000Y-76312665D01*
X137269853Y-76035426D01*
X137161680Y-75774273D01*
X137004637Y-75539241D01*
X136804759Y-75339363D01*
X136572241Y-75184000D01*
X136804759Y-75028637D01*
X137004637Y-74828759D01*
X137161680Y-74593727D01*
X137269853Y-74332574D01*
X137325000Y-74055335D01*
X137325000Y-73772665D01*
X137269853Y-73495426D01*
X137161680Y-73234273D01*
X137004637Y-72999241D01*
X136804759Y-72799363D01*
X136572241Y-72644000D01*
X136804759Y-72488637D01*
X137004637Y-72288759D01*
X137161680Y-72053727D01*
X137269853Y-71792574D01*
X137325000Y-71515335D01*
X137325000Y-71232665D01*
X137269853Y-70955426D01*
X137161680Y-70694273D01*
X137004637Y-70459241D01*
X136804759Y-70259363D01*
X136572241Y-70104000D01*
X136804759Y-69948637D01*
X137004637Y-69748759D01*
X137161680Y-69513727D01*
X137269853Y-69252574D01*
X137321940Y-68990714D01*
X141708347Y-68990714D01*
X141708347Y-69194592D01*
X141748121Y-69394551D01*
X141826142Y-69582909D01*
X141939410Y-69752427D01*
X142083573Y-69896590D01*
X142253091Y-70009858D01*
X142441449Y-70087879D01*
X142641408Y-70127653D01*
X142845286Y-70127653D01*
X143045245Y-70087879D01*
X143233603Y-70009858D01*
X143403121Y-69896590D01*
X143447058Y-69852653D01*
X144886503Y-69852653D01*
X144924744Y-69878205D01*
X145113102Y-69956226D01*
X145313061Y-69996000D01*
X145516939Y-69996000D01*
X145716898Y-69956226D01*
X145905256Y-69878205D01*
X146074774Y-69764937D01*
X146218937Y-69620774D01*
X146332205Y-69451256D01*
X146410226Y-69262898D01*
X146450000Y-69062939D01*
X146450000Y-68859061D01*
X146410226Y-68659102D01*
X146332205Y-68470744D01*
X146218937Y-68301226D01*
X146074774Y-68157063D01*
X145905256Y-68043795D01*
X145716898Y-67965774D01*
X145516939Y-67926000D01*
X145313061Y-67926000D01*
X145113102Y-67965774D01*
X144924744Y-68043795D01*
X144755226Y-68157063D01*
X144611063Y-68301226D01*
X144590064Y-68332653D01*
X143447058Y-68332653D01*
X143403121Y-68288716D01*
X143233603Y-68175448D01*
X143045245Y-68097427D01*
X142845286Y-68057653D01*
X142641408Y-68057653D01*
X142441449Y-68097427D01*
X142253091Y-68175448D01*
X142083573Y-68288716D01*
X141939410Y-68432879D01*
X141826142Y-68602397D01*
X141748121Y-68790755D01*
X141708347Y-68990714D01*
X137321940Y-68990714D01*
X137325000Y-68975335D01*
X137325000Y-68692665D01*
X137269853Y-68415426D01*
X137161680Y-68154273D01*
X137004637Y-67919241D01*
X136804759Y-67719363D01*
X136572241Y-67564000D01*
X136804759Y-67408637D01*
X137004637Y-67208759D01*
X137161680Y-66973727D01*
X137269853Y-66712574D01*
X137325000Y-66435335D01*
X137325000Y-66152665D01*
X137269853Y-65875426D01*
X137161680Y-65614273D01*
X137004637Y-65379241D01*
X136804759Y-65179363D01*
X136572241Y-65024000D01*
X136804759Y-64868637D01*
X137004637Y-64668759D01*
X137161680Y-64433727D01*
X137269853Y-64172574D01*
X137325000Y-63895335D01*
X137325000Y-63612665D01*
X137269853Y-63335426D01*
X137161680Y-63074273D01*
X137004637Y-62839241D01*
X136804759Y-62639363D01*
X136572241Y-62484000D01*
X136804759Y-62328637D01*
X137004637Y-62128759D01*
X137161680Y-61893727D01*
X137269853Y-61632574D01*
X137325000Y-61355335D01*
X137325000Y-61072665D01*
X137269853Y-60795426D01*
X137161680Y-60534273D01*
X137004637Y-60299241D01*
X136804759Y-60099363D01*
X136572241Y-59944000D01*
X136804759Y-59788637D01*
X137004637Y-59588759D01*
X137161680Y-59353727D01*
X137269853Y-59092574D01*
X137325000Y-58815335D01*
X137325000Y-58605471D01*
X137387215Y-58617846D01*
X137591093Y-58617846D01*
X137791052Y-58578072D01*
X137979410Y-58500051D01*
X138148928Y-58386783D01*
X138293091Y-58242620D01*
X138406359Y-58073102D01*
X138484380Y-57884744D01*
X138524154Y-57684785D01*
X138524154Y-57480907D01*
X138484380Y-57280948D01*
X138406359Y-57092590D01*
X138293091Y-56923072D01*
X138148928Y-56778909D01*
X137979410Y-56665641D01*
X137791052Y-56587620D01*
X137591093Y-56547846D01*
X137387215Y-56547846D01*
X137261449Y-56572862D01*
X137269853Y-56552574D01*
X137325000Y-56275335D01*
X137325000Y-55992665D01*
X137269853Y-55715426D01*
X137161680Y-55454273D01*
X137004637Y-55219241D01*
X136804759Y-55019363D01*
X136572241Y-54864000D01*
X136804759Y-54708637D01*
X137004637Y-54508759D01*
X137161680Y-54273727D01*
X137269853Y-54012574D01*
X137325000Y-53735335D01*
X137325000Y-53452665D01*
X137269853Y-53175426D01*
X137161680Y-52914273D01*
X137004637Y-52679241D01*
X136804759Y-52479363D01*
X136572241Y-52324000D01*
X136804759Y-52168637D01*
X137004637Y-51968759D01*
X137160000Y-51736241D01*
X137315363Y-51968759D01*
X137515241Y-52168637D01*
X137750273Y-52325680D01*
X138011426Y-52433853D01*
X138288665Y-52489000D01*
X138571335Y-52489000D01*
X138848574Y-52433853D01*
X139109727Y-52325680D01*
X139344759Y-52168637D01*
X139544637Y-51968759D01*
X139700000Y-51736241D01*
X139855363Y-51968759D01*
X140055241Y-52168637D01*
X140290273Y-52325680D01*
X140551426Y-52433853D01*
X140828665Y-52489000D01*
X141111335Y-52489000D01*
X141388574Y-52433853D01*
X141649727Y-52325680D01*
X141884759Y-52168637D01*
X142084637Y-51968759D01*
X142240000Y-51736241D01*
X142395363Y-51968759D01*
X142595241Y-52168637D01*
X142830273Y-52325680D01*
X143091426Y-52433853D01*
X143368665Y-52489000D01*
X143651335Y-52489000D01*
X143928574Y-52433853D01*
X144189727Y-52325680D01*
X144424759Y-52168637D01*
X144624637Y-51968759D01*
X144780000Y-51736241D01*
X144935363Y-51968759D01*
X145135241Y-52168637D01*
X145370273Y-52325680D01*
X145631426Y-52433853D01*
X145908665Y-52489000D01*
X146191335Y-52489000D01*
X146468574Y-52433853D01*
X146729727Y-52325680D01*
X146964759Y-52168637D01*
X147164637Y-51968759D01*
X147320000Y-51736241D01*
X147475363Y-51968759D01*
X147675241Y-52168637D01*
X147910273Y-52325680D01*
X148171426Y-52433853D01*
X148448665Y-52489000D01*
X148731335Y-52489000D01*
X149008574Y-52433853D01*
X149269727Y-52325680D01*
X149504759Y-52168637D01*
X149704637Y-51968759D01*
X149860000Y-51736241D01*
X150015363Y-51968759D01*
X150215241Y-52168637D01*
X150447759Y-52324000D01*
X150215241Y-52479363D01*
X150015363Y-52679241D01*
X149858320Y-52914273D01*
X149750147Y-53175426D01*
X149695000Y-53452665D01*
X149695000Y-53735335D01*
X149750147Y-54012574D01*
X149858320Y-54273727D01*
X150015363Y-54508759D01*
X150215241Y-54708637D01*
X150447759Y-54864000D01*
X150215241Y-55019363D01*
X150015363Y-55219241D01*
X149858320Y-55454273D01*
X149750147Y-55715426D01*
X149695000Y-55992665D01*
X149695000Y-56275335D01*
X149750147Y-56552574D01*
X149858320Y-56813727D01*
X150015363Y-57048759D01*
X150215241Y-57248637D01*
X150447759Y-57404000D01*
X150215241Y-57559363D01*
X150015363Y-57759241D01*
X149858320Y-57994273D01*
X149750147Y-58255426D01*
X149695000Y-58532665D01*
X149695000Y-58815335D01*
X149750147Y-59092574D01*
X149858320Y-59353727D01*
X150015363Y-59588759D01*
X150215241Y-59788637D01*
X150447759Y-59944000D01*
X150215241Y-60099363D01*
X150015363Y-60299241D01*
X149858320Y-60534273D01*
X149750147Y-60795426D01*
X149695000Y-61072665D01*
X149695000Y-61355335D01*
X149750147Y-61632574D01*
X149858320Y-61893727D01*
X150015363Y-62128759D01*
X150215241Y-62328637D01*
X150447759Y-62484000D01*
X150215241Y-62639363D01*
X150015363Y-62839241D01*
X149858320Y-63074273D01*
X149750147Y-63335426D01*
X149695000Y-63612665D01*
X149695000Y-63895335D01*
X149750147Y-64172574D01*
X149858320Y-64433727D01*
X150015363Y-64668759D01*
X150215241Y-64868637D01*
X150447759Y-65024000D01*
X150215241Y-65179363D01*
X150015363Y-65379241D01*
X149858320Y-65614273D01*
X149750147Y-65875426D01*
X149695000Y-66152665D01*
X149695000Y-66435335D01*
X149750147Y-66712574D01*
X149858320Y-66973727D01*
X150015363Y-67208759D01*
X150215241Y-67408637D01*
X150447759Y-67564000D01*
X150215241Y-67719363D01*
X150015363Y-67919241D01*
X149858320Y-68154273D01*
X149750147Y-68415426D01*
X149695000Y-68692665D01*
X149695000Y-68975335D01*
X149750147Y-69252574D01*
X149858320Y-69513727D01*
X150015363Y-69748759D01*
X150215241Y-69948637D01*
X150447759Y-70104000D01*
X150215241Y-70259363D01*
X150015363Y-70459241D01*
X149858320Y-70694273D01*
X149750147Y-70955426D01*
X149695000Y-71232665D01*
X149695000Y-71515335D01*
X149750147Y-71792574D01*
X149858320Y-72053727D01*
X150015363Y-72288759D01*
X150215241Y-72488637D01*
X150447759Y-72644000D01*
X150215241Y-72799363D01*
X150015363Y-72999241D01*
X149858320Y-73234273D01*
X149750147Y-73495426D01*
X149695000Y-73772665D01*
X149695000Y-74055335D01*
X149750147Y-74332574D01*
X149858320Y-74593727D01*
X150015363Y-74828759D01*
X150215241Y-75028637D01*
X150447759Y-75184000D01*
X150215241Y-75339363D01*
X150015363Y-75539241D01*
X149858320Y-75774273D01*
X149750147Y-76035426D01*
X149695000Y-76312665D01*
X149695000Y-76595335D01*
X149750147Y-76872574D01*
X149858320Y-77133727D01*
X150015363Y-77368759D01*
X150215241Y-77568637D01*
X150447759Y-77724000D01*
X150215241Y-77879363D01*
X150015363Y-78079241D01*
X149858320Y-78314273D01*
X149750147Y-78575426D01*
X149695000Y-78852665D01*
X149695000Y-79135335D01*
X149750147Y-79412574D01*
X149858320Y-79673727D01*
X150015363Y-79908759D01*
X150215241Y-80108637D01*
X150447759Y-80264000D01*
X150215241Y-80419363D01*
X150015363Y-80619241D01*
X149858320Y-80854273D01*
X149750147Y-81115426D01*
X149695000Y-81392665D01*
X149695000Y-81675335D01*
X149750147Y-81952574D01*
X149858320Y-82213727D01*
X150015363Y-82448759D01*
X150215241Y-82648637D01*
X150447759Y-82804000D01*
X150215241Y-82959363D01*
X150015363Y-83159241D01*
X149858320Y-83394273D01*
X149750147Y-83655426D01*
X149695000Y-83932665D01*
X149695000Y-84215335D01*
X149750147Y-84492574D01*
X149858320Y-84753727D01*
X150015363Y-84988759D01*
X150215241Y-85188637D01*
X150447759Y-85344000D01*
X150215241Y-85499363D01*
X150015363Y-85699241D01*
X149858320Y-85934273D01*
X149750147Y-86195426D01*
X149695000Y-86472665D01*
X149695000Y-86755335D01*
X149750147Y-87032574D01*
X149858320Y-87293727D01*
X150015363Y-87528759D01*
X150215241Y-87728637D01*
X150447759Y-87884000D01*
X150215241Y-88039363D01*
X150015363Y-88239241D01*
X149858320Y-88474273D01*
X149750147Y-88735426D01*
X149695000Y-89012665D01*
X149695000Y-89295335D01*
X149750147Y-89572574D01*
X149858320Y-89833727D01*
X150015363Y-90068759D01*
X150215241Y-90268637D01*
X150447759Y-90424000D01*
X150215241Y-90579363D01*
X150015363Y-90779241D01*
X149858320Y-91014273D01*
X149750147Y-91275426D01*
X149695000Y-91552665D01*
X149695000Y-91835335D01*
X149750147Y-92112574D01*
X149858320Y-92373727D01*
X150015363Y-92608759D01*
X150215241Y-92808637D01*
X150447759Y-92964000D01*
X150215241Y-93119363D01*
X150015363Y-93319241D01*
X149858320Y-93554273D01*
X149750147Y-93815426D01*
X149695000Y-94092665D01*
X149695000Y-94375335D01*
X149750147Y-94652574D01*
X149858320Y-94913727D01*
X150015363Y-95148759D01*
X150213961Y-95347357D01*
X150205518Y-95348188D01*
X150085820Y-95384498D01*
X149975506Y-95443463D01*
X149878815Y-95522815D01*
X149799463Y-95619506D01*
X149740498Y-95729820D01*
X149704188Y-95849518D01*
X149691928Y-95974000D01*
X149695000Y-96488250D01*
X149853750Y-96647000D01*
X151003000Y-96647000D01*
X151003000Y-96627000D01*
X151257000Y-96627000D01*
X151257000Y-96647000D01*
X152406250Y-96647000D01*
X152565000Y-96488250D01*
X152568072Y-95974000D01*
X152555812Y-95849518D01*
X152519502Y-95729820D01*
X152460537Y-95619506D01*
X152381185Y-95522815D01*
X152284494Y-95443463D01*
X152174180Y-95384498D01*
X152054482Y-95348188D01*
X152046039Y-95347357D01*
X152244637Y-95148759D01*
X152401680Y-94913727D01*
X152509853Y-94652574D01*
X152565000Y-94375335D01*
X152565000Y-94092665D01*
X152509853Y-93815426D01*
X152470524Y-93720475D01*
X163735000Y-93720475D01*
X163735000Y-94239525D01*
X163836261Y-94748601D01*
X164034893Y-95228141D01*
X164323262Y-95659715D01*
X164690285Y-96026738D01*
X165121859Y-96315107D01*
X165601399Y-96513739D01*
X166110475Y-96615000D01*
X166629525Y-96615000D01*
X167138601Y-96513739D01*
X167618141Y-96315107D01*
X168049715Y-96026738D01*
X168416738Y-95659715D01*
X168705107Y-95228141D01*
X168903739Y-94748601D01*
X169005000Y-94239525D01*
X169005000Y-93720475D01*
X168903739Y-93211399D01*
X168705107Y-92731859D01*
X168416738Y-92300285D01*
X168049715Y-91933262D01*
X167618141Y-91644893D01*
X167138601Y-91446261D01*
X166629525Y-91345000D01*
X166110475Y-91345000D01*
X165601399Y-91446261D01*
X165121859Y-91644893D01*
X164690285Y-91933262D01*
X164323262Y-92300285D01*
X164034893Y-92731859D01*
X163836261Y-93211399D01*
X163735000Y-93720475D01*
X152470524Y-93720475D01*
X152401680Y-93554273D01*
X152244637Y-93319241D01*
X152044759Y-93119363D01*
X151812241Y-92964000D01*
X152044759Y-92808637D01*
X152244637Y-92608759D01*
X152401680Y-92373727D01*
X152509853Y-92112574D01*
X152565000Y-91835335D01*
X152565000Y-91552665D01*
X152509853Y-91275426D01*
X152401680Y-91014273D01*
X152244637Y-90779241D01*
X152044759Y-90579363D01*
X151812241Y-90424000D01*
X152044759Y-90268637D01*
X152244637Y-90068759D01*
X152401680Y-89833727D01*
X152509853Y-89572574D01*
X152565000Y-89295335D01*
X152565000Y-89012665D01*
X152509853Y-88735426D01*
X152401680Y-88474273D01*
X152244637Y-88239241D01*
X152044759Y-88039363D01*
X151812241Y-87884000D01*
X152044759Y-87728637D01*
X152244637Y-87528759D01*
X152401680Y-87293727D01*
X152509853Y-87032574D01*
X152511053Y-87026540D01*
X156553800Y-87026540D01*
X156553800Y-87319060D01*
X156610868Y-87605958D01*
X156722810Y-87876211D01*
X156885325Y-88119432D01*
X157092168Y-88326275D01*
X157266560Y-88442800D01*
X157092168Y-88559325D01*
X156885325Y-88766168D01*
X156722810Y-89009389D01*
X156610868Y-89279642D01*
X156553800Y-89566540D01*
X156553800Y-89859060D01*
X156610868Y-90145958D01*
X156722810Y-90416211D01*
X156885325Y-90659432D01*
X157092168Y-90866275D01*
X157335389Y-91028790D01*
X157605642Y-91140732D01*
X157892540Y-91197800D01*
X158185060Y-91197800D01*
X158471958Y-91140732D01*
X158742211Y-91028790D01*
X158985432Y-90866275D01*
X159192275Y-90659432D01*
X159354790Y-90416211D01*
X159466732Y-90145958D01*
X159523800Y-89859060D01*
X159523800Y-89566540D01*
X159466732Y-89279642D01*
X159354790Y-89009389D01*
X159192275Y-88766168D01*
X158985432Y-88559325D01*
X158811040Y-88442800D01*
X158985432Y-88326275D01*
X159192275Y-88119432D01*
X159354790Y-87876211D01*
X159466732Y-87605958D01*
X159523800Y-87319060D01*
X159523800Y-87026540D01*
X159466732Y-86739642D01*
X159354790Y-86469389D01*
X159192275Y-86226168D01*
X158985432Y-86019325D01*
X158803266Y-85897605D01*
X158920155Y-85827978D01*
X159136388Y-85633069D01*
X159310441Y-85399720D01*
X159435625Y-85136899D01*
X159480276Y-84989690D01*
X159358955Y-84759800D01*
X158165800Y-84759800D01*
X158165800Y-84779800D01*
X157911800Y-84779800D01*
X157911800Y-84759800D01*
X156718645Y-84759800D01*
X156597324Y-84989690D01*
X156641975Y-85136899D01*
X156767159Y-85399720D01*
X156941212Y-85633069D01*
X157157445Y-85827978D01*
X157274334Y-85897605D01*
X157092168Y-86019325D01*
X156885325Y-86226168D01*
X156722810Y-86469389D01*
X156610868Y-86739642D01*
X156553800Y-87026540D01*
X152511053Y-87026540D01*
X152565000Y-86755335D01*
X152565000Y-86472665D01*
X152509853Y-86195426D01*
X152401680Y-85934273D01*
X152244637Y-85699241D01*
X152044759Y-85499363D01*
X151812241Y-85344000D01*
X152044759Y-85188637D01*
X152244637Y-84988759D01*
X152401680Y-84753727D01*
X152509853Y-84492574D01*
X152565000Y-84215335D01*
X152565000Y-83932665D01*
X152509853Y-83655426D01*
X152401680Y-83394273D01*
X152244637Y-83159241D01*
X152044759Y-82959363D01*
X151812241Y-82804000D01*
X152044759Y-82648637D01*
X152244637Y-82448759D01*
X152401680Y-82213727D01*
X152509853Y-81952574D01*
X152565000Y-81675335D01*
X152565000Y-81392665D01*
X152535190Y-81242800D01*
X156550728Y-81242800D01*
X156550728Y-82942800D01*
X156562988Y-83067282D01*
X156599298Y-83186980D01*
X156658263Y-83297294D01*
X156737615Y-83393985D01*
X156834306Y-83473337D01*
X156944620Y-83532302D01*
X157025266Y-83556766D01*
X156941212Y-83632531D01*
X156767159Y-83865880D01*
X156641975Y-84128701D01*
X156597324Y-84275910D01*
X156718645Y-84505800D01*
X157911800Y-84505800D01*
X157911800Y-84485800D01*
X158165800Y-84485800D01*
X158165800Y-84505800D01*
X159358955Y-84505800D01*
X159480276Y-84275910D01*
X159435625Y-84128701D01*
X159310441Y-83865880D01*
X159136388Y-83632531D01*
X159052334Y-83556766D01*
X159132980Y-83532302D01*
X159243294Y-83473337D01*
X159339985Y-83393985D01*
X159419337Y-83297294D01*
X159478302Y-83186980D01*
X159514612Y-83067282D01*
X159526872Y-82942800D01*
X159526872Y-82360400D01*
X163053128Y-82360400D01*
X163053128Y-84060400D01*
X163065388Y-84184882D01*
X163101698Y-84304580D01*
X163160663Y-84414894D01*
X163240015Y-84511585D01*
X163336706Y-84590937D01*
X163447020Y-84649902D01*
X163519580Y-84671913D01*
X163387725Y-84803768D01*
X163225210Y-85046989D01*
X163113268Y-85317242D01*
X163056200Y-85604140D01*
X163056200Y-85896660D01*
X163113268Y-86183558D01*
X163225210Y-86453811D01*
X163387725Y-86697032D01*
X163594568Y-86903875D01*
X163768960Y-87020400D01*
X163594568Y-87136925D01*
X163387725Y-87343768D01*
X163225210Y-87586989D01*
X163113268Y-87857242D01*
X163056200Y-88144140D01*
X163056200Y-88436660D01*
X163113268Y-88723558D01*
X163225210Y-88993811D01*
X163387725Y-89237032D01*
X163594568Y-89443875D01*
X163837789Y-89606390D01*
X164108042Y-89718332D01*
X164394940Y-89775400D01*
X164687460Y-89775400D01*
X164974358Y-89718332D01*
X165244611Y-89606390D01*
X165487832Y-89443875D01*
X165694675Y-89237032D01*
X165811200Y-89062640D01*
X165927725Y-89237032D01*
X166134568Y-89443875D01*
X166377789Y-89606390D01*
X166648042Y-89718332D01*
X166934940Y-89775400D01*
X167227460Y-89775400D01*
X167514358Y-89718332D01*
X167784611Y-89606390D01*
X168027832Y-89443875D01*
X168234675Y-89237032D01*
X168397190Y-88993811D01*
X168509132Y-88723558D01*
X168566200Y-88436660D01*
X168566200Y-88144140D01*
X168509132Y-87857242D01*
X168397190Y-87586989D01*
X168234675Y-87343768D01*
X168027832Y-87136925D01*
X167853440Y-87020400D01*
X168027832Y-86903875D01*
X168234675Y-86697032D01*
X168397190Y-86453811D01*
X168509132Y-86183558D01*
X168566200Y-85896660D01*
X168566200Y-85604140D01*
X168509132Y-85317242D01*
X168397190Y-85046989D01*
X168234675Y-84803768D01*
X168027832Y-84596925D01*
X167845666Y-84475205D01*
X167962555Y-84405578D01*
X168178788Y-84210669D01*
X168352841Y-83977320D01*
X168478025Y-83714499D01*
X168522676Y-83567290D01*
X168401355Y-83337400D01*
X167208200Y-83337400D01*
X167208200Y-83357400D01*
X166954200Y-83357400D01*
X166954200Y-83337400D01*
X166934200Y-83337400D01*
X166934200Y-83083400D01*
X166954200Y-83083400D01*
X166954200Y-81889586D01*
X167208200Y-81889586D01*
X167208200Y-83083400D01*
X168401355Y-83083400D01*
X168522676Y-82853510D01*
X168478025Y-82706301D01*
X168352841Y-82443480D01*
X168178788Y-82210131D01*
X167962555Y-82015222D01*
X167712452Y-81866243D01*
X167438091Y-81768919D01*
X167208200Y-81889586D01*
X166954200Y-81889586D01*
X166724309Y-81768919D01*
X166449948Y-81866243D01*
X166199845Y-82015222D01*
X166003698Y-82192026D01*
X165980702Y-82116220D01*
X165921737Y-82005906D01*
X165842385Y-81909215D01*
X165745694Y-81829863D01*
X165635380Y-81770898D01*
X165515682Y-81734588D01*
X165391200Y-81722328D01*
X163691200Y-81722328D01*
X163566718Y-81734588D01*
X163447020Y-81770898D01*
X163336706Y-81829863D01*
X163240015Y-81909215D01*
X163160663Y-82005906D01*
X163101698Y-82116220D01*
X163065388Y-82235918D01*
X163053128Y-82360400D01*
X159526872Y-82360400D01*
X159526872Y-81242800D01*
X159514612Y-81118318D01*
X159478302Y-80998620D01*
X159419337Y-80888306D01*
X159339985Y-80791615D01*
X159243294Y-80712263D01*
X159132980Y-80653298D01*
X159013282Y-80616988D01*
X158888800Y-80604728D01*
X157188800Y-80604728D01*
X157064318Y-80616988D01*
X156944620Y-80653298D01*
X156834306Y-80712263D01*
X156737615Y-80791615D01*
X156658263Y-80888306D01*
X156599298Y-80998620D01*
X156562988Y-81118318D01*
X156550728Y-81242800D01*
X152535190Y-81242800D01*
X152509853Y-81115426D01*
X152401680Y-80854273D01*
X152244637Y-80619241D01*
X152044759Y-80419363D01*
X151812241Y-80264000D01*
X152044759Y-80108637D01*
X152244637Y-79908759D01*
X152401680Y-79673727D01*
X152509853Y-79412574D01*
X152565000Y-79135335D01*
X152565000Y-78852665D01*
X152509853Y-78575426D01*
X152401680Y-78314273D01*
X152244637Y-78079241D01*
X152044759Y-77879363D01*
X151812241Y-77724000D01*
X152044759Y-77568637D01*
X152244637Y-77368759D01*
X152401680Y-77133727D01*
X152509853Y-76872574D01*
X152565000Y-76595335D01*
X152565000Y-76312665D01*
X152509853Y-76035426D01*
X152401680Y-75774273D01*
X152244637Y-75539241D01*
X152044759Y-75339363D01*
X151812241Y-75184000D01*
X152044759Y-75028637D01*
X152244637Y-74828759D01*
X152401680Y-74593727D01*
X152509853Y-74332574D01*
X152565000Y-74055335D01*
X152565000Y-73772665D01*
X152509853Y-73495426D01*
X152401680Y-73234273D01*
X152244637Y-72999241D01*
X152044759Y-72799363D01*
X151812241Y-72644000D01*
X152044759Y-72488637D01*
X152244637Y-72288759D01*
X152401680Y-72053727D01*
X152509853Y-71792574D01*
X152565000Y-71515335D01*
X152565000Y-71232665D01*
X152509853Y-70955426D01*
X152401680Y-70694273D01*
X152244637Y-70459241D01*
X152044759Y-70259363D01*
X151812241Y-70104000D01*
X152044759Y-69948637D01*
X152244637Y-69748759D01*
X152401680Y-69513727D01*
X152509853Y-69252574D01*
X152565000Y-68975335D01*
X152565000Y-68692665D01*
X152509853Y-68415426D01*
X152401680Y-68154273D01*
X152244637Y-67919241D01*
X152044759Y-67719363D01*
X151812241Y-67564000D01*
X152044759Y-67408637D01*
X152244637Y-67208759D01*
X152401680Y-66973727D01*
X152509853Y-66712574D01*
X152565000Y-66435335D01*
X152565000Y-66152665D01*
X152558397Y-66119469D01*
X152671744Y-66195205D01*
X152860102Y-66273226D01*
X152889000Y-66278974D01*
X152889000Y-66395939D01*
X152928774Y-66595898D01*
X153006795Y-66784256D01*
X153120063Y-66953774D01*
X153264226Y-67097937D01*
X153433744Y-67211205D01*
X153622102Y-67289226D01*
X153822061Y-67329000D01*
X154025939Y-67329000D01*
X154225898Y-67289226D01*
X154414256Y-67211205D01*
X154583774Y-67097937D01*
X154727937Y-66953774D01*
X154782115Y-66872691D01*
X154772728Y-66968000D01*
X154772728Y-68668000D01*
X154784988Y-68792482D01*
X154821298Y-68912180D01*
X154880263Y-69022494D01*
X154959615Y-69119185D01*
X155056306Y-69198537D01*
X155166620Y-69257502D01*
X155239180Y-69279513D01*
X155107325Y-69411368D01*
X154944810Y-69654589D01*
X154832868Y-69924842D01*
X154775800Y-70211740D01*
X154775800Y-70504260D01*
X154832868Y-70791158D01*
X154944810Y-71061411D01*
X155107325Y-71304632D01*
X155314168Y-71511475D01*
X155488560Y-71628000D01*
X155314168Y-71744525D01*
X155107325Y-71951368D01*
X154944810Y-72194589D01*
X154832868Y-72464842D01*
X154775800Y-72751740D01*
X154775800Y-73044260D01*
X154832868Y-73331158D01*
X154944810Y-73601411D01*
X155107325Y-73844632D01*
X155314168Y-74051475D01*
X155557389Y-74213990D01*
X155827642Y-74325932D01*
X156114540Y-74383000D01*
X156407060Y-74383000D01*
X156693958Y-74325932D01*
X156964211Y-74213990D01*
X157207432Y-74051475D01*
X157414275Y-73844632D01*
X157530800Y-73670240D01*
X157647325Y-73844632D01*
X157854168Y-74051475D01*
X158097389Y-74213990D01*
X158367642Y-74325932D01*
X158654540Y-74383000D01*
X158947060Y-74383000D01*
X159233958Y-74325932D01*
X159504211Y-74213990D01*
X159747432Y-74051475D01*
X159954275Y-73844632D01*
X160116790Y-73601411D01*
X160218239Y-73356490D01*
X163760124Y-73356490D01*
X163804775Y-73503699D01*
X163929959Y-73766520D01*
X164104012Y-73999869D01*
X164320245Y-74194778D01*
X164570348Y-74343757D01*
X164844709Y-74441081D01*
X165074600Y-74320414D01*
X165074600Y-73126600D01*
X165328600Y-73126600D01*
X165328600Y-74320414D01*
X165558491Y-74441081D01*
X165832852Y-74343757D01*
X166082955Y-74194778D01*
X166299188Y-73999869D01*
X166471600Y-73768720D01*
X166644012Y-73999869D01*
X166860245Y-74194778D01*
X167110348Y-74343757D01*
X167384709Y-74441081D01*
X167614600Y-74320414D01*
X167614600Y-73126600D01*
X167868600Y-73126600D01*
X167868600Y-74320414D01*
X168098491Y-74441081D01*
X168372852Y-74343757D01*
X168622955Y-74194778D01*
X168839188Y-73999869D01*
X169013241Y-73766520D01*
X169138425Y-73503699D01*
X169183076Y-73356490D01*
X169061755Y-73126600D01*
X167868600Y-73126600D01*
X167614600Y-73126600D01*
X165328600Y-73126600D01*
X165074600Y-73126600D01*
X163881445Y-73126600D01*
X163760124Y-73356490D01*
X160218239Y-73356490D01*
X160228732Y-73331158D01*
X160285800Y-73044260D01*
X160285800Y-72751740D01*
X160228732Y-72464842D01*
X160116790Y-72194589D01*
X159954275Y-71951368D01*
X159747432Y-71744525D01*
X159573040Y-71628000D01*
X159747432Y-71511475D01*
X159954275Y-71304632D01*
X160116790Y-71061411D01*
X160218239Y-70816490D01*
X163760124Y-70816490D01*
X163804775Y-70963699D01*
X163929959Y-71226520D01*
X164104012Y-71459869D01*
X164320245Y-71654778D01*
X164445855Y-71729600D01*
X164320245Y-71804422D01*
X164104012Y-71999331D01*
X163929959Y-72232680D01*
X163804775Y-72495501D01*
X163760124Y-72642710D01*
X163881445Y-72872600D01*
X165074600Y-72872600D01*
X165074600Y-70586600D01*
X165328600Y-70586600D01*
X165328600Y-72872600D01*
X167614600Y-72872600D01*
X167614600Y-70586600D01*
X167868600Y-70586600D01*
X167868600Y-72872600D01*
X169061755Y-72872600D01*
X169183076Y-72642710D01*
X169138425Y-72495501D01*
X169013241Y-72232680D01*
X168839188Y-71999331D01*
X168622955Y-71804422D01*
X168497345Y-71729600D01*
X168622955Y-71654778D01*
X168839188Y-71459869D01*
X169013241Y-71226520D01*
X169138425Y-70963699D01*
X169183076Y-70816490D01*
X169061755Y-70586600D01*
X167868600Y-70586600D01*
X167614600Y-70586600D01*
X165328600Y-70586600D01*
X165074600Y-70586600D01*
X163881445Y-70586600D01*
X163760124Y-70816490D01*
X160218239Y-70816490D01*
X160228732Y-70791158D01*
X160285800Y-70504260D01*
X160285800Y-70211740D01*
X160228732Y-69924842D01*
X160116790Y-69654589D01*
X159954275Y-69411368D01*
X159747432Y-69204525D01*
X159573040Y-69088000D01*
X159747432Y-68971475D01*
X159949307Y-68769600D01*
X163713528Y-68769600D01*
X163725788Y-68894082D01*
X163762098Y-69013780D01*
X163821063Y-69124094D01*
X163900415Y-69220785D01*
X163997106Y-69300137D01*
X164107420Y-69359102D01*
X164188066Y-69383566D01*
X164104012Y-69459331D01*
X163929959Y-69692680D01*
X163804775Y-69955501D01*
X163760124Y-70102710D01*
X163881445Y-70332600D01*
X165074600Y-70332600D01*
X165074600Y-68046600D01*
X165328600Y-68046600D01*
X165328600Y-70332600D01*
X167614600Y-70332600D01*
X167614600Y-68046600D01*
X167868600Y-68046600D01*
X167868600Y-70332600D01*
X169061755Y-70332600D01*
X169183076Y-70102710D01*
X169138425Y-69955501D01*
X169013241Y-69692680D01*
X168839188Y-69459331D01*
X168622955Y-69264422D01*
X168497345Y-69189600D01*
X168622955Y-69114778D01*
X168839188Y-68919869D01*
X169013241Y-68686520D01*
X169138425Y-68423699D01*
X169183076Y-68276490D01*
X169061755Y-68046600D01*
X167868600Y-68046600D01*
X167614600Y-68046600D01*
X165328600Y-68046600D01*
X165074600Y-68046600D01*
X163875350Y-68046600D01*
X163716600Y-68205350D01*
X163713528Y-68769600D01*
X159949307Y-68769600D01*
X159954275Y-68764632D01*
X160116790Y-68521411D01*
X160228732Y-68251158D01*
X160285800Y-67964260D01*
X160285800Y-67671740D01*
X160228732Y-67384842D01*
X160116790Y-67114589D01*
X160086730Y-67069600D01*
X163713528Y-67069600D01*
X163716600Y-67633850D01*
X163875350Y-67792600D01*
X165074600Y-67792600D01*
X165074600Y-66593350D01*
X165328600Y-66593350D01*
X165328600Y-67792600D01*
X167614600Y-67792600D01*
X167614600Y-66598786D01*
X167868600Y-66598786D01*
X167868600Y-67792600D01*
X169061755Y-67792600D01*
X169183076Y-67562710D01*
X169138425Y-67415501D01*
X169013241Y-67152680D01*
X168839188Y-66919331D01*
X168622955Y-66724422D01*
X168372852Y-66575443D01*
X168098491Y-66478119D01*
X167868600Y-66598786D01*
X167614600Y-66598786D01*
X167384709Y-66478119D01*
X167110348Y-66575443D01*
X166860245Y-66724422D01*
X166664098Y-66901226D01*
X166641102Y-66825420D01*
X166582137Y-66715106D01*
X166502785Y-66618415D01*
X166406094Y-66539063D01*
X166295780Y-66480098D01*
X166176082Y-66443788D01*
X166051600Y-66431528D01*
X165487350Y-66434600D01*
X165328600Y-66593350D01*
X165074600Y-66593350D01*
X164915850Y-66434600D01*
X164351600Y-66431528D01*
X164227118Y-66443788D01*
X164107420Y-66480098D01*
X163997106Y-66539063D01*
X163900415Y-66618415D01*
X163821063Y-66715106D01*
X163762098Y-66825420D01*
X163725788Y-66945118D01*
X163713528Y-67069600D01*
X160086730Y-67069600D01*
X159954275Y-66871368D01*
X159747432Y-66664525D01*
X159504211Y-66502010D01*
X159233958Y-66390068D01*
X158947060Y-66333000D01*
X158654540Y-66333000D01*
X158367642Y-66390068D01*
X158097389Y-66502010D01*
X157854168Y-66664525D01*
X157722313Y-66796380D01*
X157700302Y-66723820D01*
X157641337Y-66613506D01*
X157561985Y-66516815D01*
X157465294Y-66437463D01*
X157354980Y-66378498D01*
X157235282Y-66342188D01*
X157110800Y-66329928D01*
X155410800Y-66329928D01*
X155286318Y-66342188D01*
X155166620Y-66378498D01*
X155056306Y-66437463D01*
X154959615Y-66516815D01*
X154927068Y-66556474D01*
X154959000Y-66395939D01*
X154959000Y-66206801D01*
X155832003Y-65333799D01*
X155861001Y-65310001D01*
X155955974Y-65194276D01*
X156026546Y-65062247D01*
X156070003Y-64918986D01*
X156081000Y-64807333D01*
X156081000Y-64807324D01*
X156084676Y-64770001D01*
X156081000Y-64732678D01*
X156081000Y-64330711D01*
X156124937Y-64286774D01*
X156238205Y-64117256D01*
X156316226Y-63928898D01*
X156356000Y-63728939D01*
X156356000Y-63525061D01*
X156316226Y-63325102D01*
X156238205Y-63136744D01*
X156124937Y-62967226D01*
X155980774Y-62823063D01*
X155811256Y-62709795D01*
X155622898Y-62631774D01*
X155422939Y-62592000D01*
X155219061Y-62592000D01*
X155019102Y-62631774D01*
X154830744Y-62709795D01*
X154661226Y-62823063D01*
X154517063Y-62967226D01*
X154403795Y-63136744D01*
X154325774Y-63325102D01*
X154286000Y-63525061D01*
X154286000Y-63728939D01*
X154325774Y-63928898D01*
X154403795Y-64117256D01*
X154517063Y-64286774D01*
X154561001Y-64330712D01*
X154561001Y-64455197D01*
X154122919Y-64893279D01*
X154079205Y-64787744D01*
X153965937Y-64618226D01*
X153922000Y-64574289D01*
X153922000Y-59072685D01*
X154075774Y-58969937D01*
X154219937Y-58825774D01*
X154333205Y-58656256D01*
X154411226Y-58467898D01*
X154451000Y-58267939D01*
X154451000Y-58064061D01*
X154411226Y-57864102D01*
X154333205Y-57675744D01*
X154219937Y-57506226D01*
X154075774Y-57362063D01*
X153906256Y-57248795D01*
X153717898Y-57170774D01*
X153517939Y-57131000D01*
X153314061Y-57131000D01*
X153114102Y-57170774D01*
X152925744Y-57248795D01*
X152756226Y-57362063D01*
X152612063Y-57506226D01*
X152498795Y-57675744D01*
X152420774Y-57864102D01*
X152396441Y-57986432D01*
X152244637Y-57759241D01*
X152044759Y-57559363D01*
X151812241Y-57404000D01*
X152044759Y-57248637D01*
X152244637Y-57048759D01*
X152401680Y-56813727D01*
X152509853Y-56552574D01*
X152565000Y-56275335D01*
X152565000Y-55992665D01*
X152509853Y-55715426D01*
X152401680Y-55454273D01*
X152244637Y-55219241D01*
X152044759Y-55019363D01*
X151812241Y-54864000D01*
X151892228Y-54810555D01*
X151971102Y-54843226D01*
X152171061Y-54883000D01*
X152233199Y-54883000D01*
X157355000Y-60004802D01*
X157355001Y-61526288D01*
X157311063Y-61570226D01*
X157197795Y-61739744D01*
X157119774Y-61928102D01*
X157080000Y-62128061D01*
X157080000Y-62331939D01*
X157119774Y-62531898D01*
X157197795Y-62720256D01*
X157311063Y-62889774D01*
X157455226Y-63033937D01*
X157624744Y-63147205D01*
X157813102Y-63225226D01*
X158013061Y-63265000D01*
X158216939Y-63265000D01*
X158416898Y-63225226D01*
X158605256Y-63147205D01*
X158759392Y-63044215D01*
X158799498Y-63060827D01*
X158999457Y-63100601D01*
X159203335Y-63100601D01*
X159403294Y-63060827D01*
X159591652Y-62982806D01*
X159660984Y-62936480D01*
X160323153Y-63598649D01*
X160323153Y-63660786D01*
X160362927Y-63860745D01*
X160440948Y-64049103D01*
X160554216Y-64218621D01*
X160698379Y-64362784D01*
X160867897Y-64476052D01*
X161056255Y-64554073D01*
X161256214Y-64593847D01*
X161460092Y-64593847D01*
X161660051Y-64554073D01*
X161848409Y-64476052D01*
X162017927Y-64362784D01*
X162162090Y-64218621D01*
X162275358Y-64049103D01*
X162353379Y-63860745D01*
X162393153Y-63660786D01*
X162393153Y-63456908D01*
X162353379Y-63256949D01*
X162275358Y-63068591D01*
X162162090Y-62899073D01*
X162017927Y-62754910D01*
X161921887Y-62690738D01*
X161968155Y-62663178D01*
X162184388Y-62468269D01*
X162358441Y-62234920D01*
X162483625Y-61972099D01*
X162528276Y-61824890D01*
X162406955Y-61595000D01*
X161213800Y-61595000D01*
X161213800Y-61615000D01*
X160959800Y-61615000D01*
X160959800Y-61595000D01*
X160939800Y-61595000D01*
X160939800Y-61341000D01*
X160959800Y-61341000D01*
X160959800Y-61321000D01*
X161213800Y-61321000D01*
X161213800Y-61341000D01*
X162406955Y-61341000D01*
X162528276Y-61111110D01*
X162483625Y-60963901D01*
X162358441Y-60701080D01*
X162184388Y-60467731D01*
X161968155Y-60272822D01*
X161851266Y-60203195D01*
X162033432Y-60081475D01*
X162240275Y-59874632D01*
X162402790Y-59631411D01*
X162514732Y-59361158D01*
X162571800Y-59074260D01*
X162571800Y-58781740D01*
X162514732Y-58494842D01*
X162402790Y-58224589D01*
X162240275Y-57981368D01*
X162033432Y-57774525D01*
X161859040Y-57658000D01*
X162033432Y-57541475D01*
X162240275Y-57334632D01*
X162402790Y-57091411D01*
X162514732Y-56821158D01*
X162571800Y-56534260D01*
X162571800Y-56241740D01*
X162514732Y-55954842D01*
X162402790Y-55684589D01*
X162240275Y-55441368D01*
X162033432Y-55234525D01*
X161859040Y-55118000D01*
X162033432Y-55001475D01*
X162240275Y-54794632D01*
X162402790Y-54551411D01*
X162514732Y-54281158D01*
X162571800Y-53994260D01*
X162571800Y-53701740D01*
X162514732Y-53414842D01*
X162402790Y-53144589D01*
X162240275Y-52901368D01*
X162033432Y-52694525D01*
X161859040Y-52578000D01*
X162033432Y-52461475D01*
X162240275Y-52254632D01*
X162402790Y-52011411D01*
X162514732Y-51741158D01*
X162571800Y-51454260D01*
X162571800Y-51161740D01*
X162514732Y-50874842D01*
X162402790Y-50604589D01*
X162240275Y-50361368D01*
X162033432Y-50154525D01*
X161859040Y-50038000D01*
X162033432Y-49921475D01*
X162240275Y-49714632D01*
X162402790Y-49471411D01*
X162514732Y-49201158D01*
X162571800Y-48914260D01*
X162571800Y-48621740D01*
X162514732Y-48334842D01*
X162402790Y-48064589D01*
X162240275Y-47821368D01*
X162033432Y-47614525D01*
X161859040Y-47498000D01*
X162033432Y-47381475D01*
X162240275Y-47174632D01*
X162402790Y-46931411D01*
X162514732Y-46661158D01*
X162571800Y-46374260D01*
X162571800Y-46081740D01*
X162514732Y-45794842D01*
X162402790Y-45524589D01*
X162240275Y-45281368D01*
X162033432Y-45074525D01*
X161859040Y-44958000D01*
X162033432Y-44841475D01*
X162240275Y-44634632D01*
X162402790Y-44391411D01*
X162514732Y-44121158D01*
X162571800Y-43834260D01*
X162571800Y-43541740D01*
X162514732Y-43254842D01*
X162402790Y-42984589D01*
X162240275Y-42741368D01*
X162033432Y-42534525D01*
X161859040Y-42418000D01*
X162033432Y-42301475D01*
X162240275Y-42094632D01*
X162402790Y-41851411D01*
X162514732Y-41581158D01*
X162571800Y-41294260D01*
X162571800Y-41001740D01*
X162514732Y-40714842D01*
X162402790Y-40444589D01*
X162240275Y-40201368D01*
X162108420Y-40069513D01*
X162180980Y-40047502D01*
X162291294Y-39988537D01*
X162387985Y-39909185D01*
X162467337Y-39812494D01*
X162526302Y-39702180D01*
X162562612Y-39582482D01*
X162574872Y-39458000D01*
X162574872Y-39110475D01*
X165005000Y-39110475D01*
X165005000Y-39629525D01*
X165106261Y-40138601D01*
X165304893Y-40618141D01*
X165593262Y-41049715D01*
X165960285Y-41416738D01*
X166391859Y-41705107D01*
X166871399Y-41903739D01*
X167380475Y-42005000D01*
X167899525Y-42005000D01*
X168408601Y-41903739D01*
X168888141Y-41705107D01*
X169319715Y-41416738D01*
X169686738Y-41049715D01*
X169975107Y-40618141D01*
X170173739Y-40138601D01*
X170275000Y-39629525D01*
X170275000Y-39110475D01*
X170173739Y-38601399D01*
X169975107Y-38121859D01*
X169686738Y-37690285D01*
X169319715Y-37323262D01*
X168888141Y-37034893D01*
X168408601Y-36836261D01*
X167899525Y-36735000D01*
X167380475Y-36735000D01*
X166871399Y-36836261D01*
X166391859Y-37034893D01*
X165960285Y-37323262D01*
X165593262Y-37690285D01*
X165304893Y-38121859D01*
X165106261Y-38601399D01*
X165005000Y-39110475D01*
X162574872Y-39110475D01*
X162574872Y-37758000D01*
X162562612Y-37633518D01*
X162526302Y-37513820D01*
X162467337Y-37403506D01*
X162387985Y-37306815D01*
X162291294Y-37227463D01*
X162180980Y-37168498D01*
X162061282Y-37132188D01*
X161936800Y-37119928D01*
X160236800Y-37119928D01*
X160112318Y-37132188D01*
X159992620Y-37168498D01*
X159882306Y-37227463D01*
X159785615Y-37306815D01*
X159706263Y-37403506D01*
X159647298Y-37513820D01*
X159610988Y-37633518D01*
X159598728Y-37758000D01*
X159598728Y-39458000D01*
X159610988Y-39582482D01*
X159647298Y-39702180D01*
X159706263Y-39812494D01*
X159785615Y-39909185D01*
X159882306Y-39988537D01*
X159992620Y-40047502D01*
X160065180Y-40069513D01*
X159933325Y-40201368D01*
X159770810Y-40444589D01*
X159658868Y-40714842D01*
X159601800Y-41001740D01*
X159601800Y-41294260D01*
X159658868Y-41581158D01*
X159770810Y-41851411D01*
X159933325Y-42094632D01*
X160140168Y-42301475D01*
X160314560Y-42418000D01*
X160140168Y-42534525D01*
X159933325Y-42741368D01*
X159770810Y-42984589D01*
X159658868Y-43254842D01*
X159601800Y-43541740D01*
X159601800Y-43834260D01*
X159658868Y-44121158D01*
X159770810Y-44391411D01*
X159933325Y-44634632D01*
X160140168Y-44841475D01*
X160314560Y-44958000D01*
X160140168Y-45074525D01*
X159933325Y-45281368D01*
X159770810Y-45524589D01*
X159658868Y-45794842D01*
X159601800Y-46081740D01*
X159601800Y-46374260D01*
X159658868Y-46661158D01*
X159770810Y-46931411D01*
X159933325Y-47174632D01*
X160140168Y-47381475D01*
X160314560Y-47498000D01*
X160140168Y-47614525D01*
X159933325Y-47821368D01*
X159770810Y-48064589D01*
X159658868Y-48334842D01*
X159601800Y-48621740D01*
X159601800Y-48914260D01*
X159658868Y-49201158D01*
X159770810Y-49471411D01*
X159933325Y-49714632D01*
X160140168Y-49921475D01*
X160314560Y-50038000D01*
X160140168Y-50154525D01*
X159933325Y-50361368D01*
X159770810Y-50604589D01*
X159658868Y-50874842D01*
X159601800Y-51161740D01*
X159601800Y-51454260D01*
X159658868Y-51741158D01*
X159770810Y-52011411D01*
X159933325Y-52254632D01*
X160140168Y-52461475D01*
X160314560Y-52578000D01*
X160140168Y-52694525D01*
X159933325Y-52901368D01*
X159770810Y-53144589D01*
X159658868Y-53414842D01*
X159601800Y-53701740D01*
X159601800Y-53994260D01*
X159658868Y-54281158D01*
X159770810Y-54551411D01*
X159933325Y-54794632D01*
X160140168Y-55001475D01*
X160314560Y-55118000D01*
X160140168Y-55234525D01*
X159933325Y-55441368D01*
X159770810Y-55684589D01*
X159658868Y-55954842D01*
X159601800Y-56241740D01*
X159601800Y-56534260D01*
X159604715Y-56548913D01*
X152395436Y-49339635D01*
X152387003Y-49254015D01*
X152379008Y-49227658D01*
X152401680Y-49193727D01*
X152509853Y-48932574D01*
X152565000Y-48655335D01*
X152565000Y-48372665D01*
X152509853Y-48095426D01*
X152401680Y-47834273D01*
X152244637Y-47599241D01*
X152044759Y-47399363D01*
X151812241Y-47244000D01*
X152044759Y-47088637D01*
X152244637Y-46888759D01*
X152401680Y-46653727D01*
X152509853Y-46392574D01*
X152565000Y-46115335D01*
X152565000Y-45832665D01*
X152509853Y-45555426D01*
X152401680Y-45294273D01*
X152244637Y-45059241D01*
X152044759Y-44859363D01*
X151812241Y-44704000D01*
X152044759Y-44548637D01*
X152244637Y-44348759D01*
X152401680Y-44113727D01*
X152509853Y-43852574D01*
X152565000Y-43575335D01*
X152565000Y-43292665D01*
X152509853Y-43015426D01*
X152401680Y-42754273D01*
X152244637Y-42519241D01*
X152044759Y-42319363D01*
X151812241Y-42164000D01*
X152044759Y-42008637D01*
X152244637Y-41808759D01*
X152401680Y-41573727D01*
X152509853Y-41312574D01*
X152565000Y-41035335D01*
X152565000Y-40752665D01*
X152509853Y-40475426D01*
X152401680Y-40214273D01*
X152244637Y-39979241D01*
X152044759Y-39779363D01*
X151812241Y-39624000D01*
X152044759Y-39468637D01*
X152244637Y-39268759D01*
X152401680Y-39033727D01*
X152509853Y-38772574D01*
X152565000Y-38495335D01*
X152565000Y-38212665D01*
X152509853Y-37935426D01*
X152401680Y-37674273D01*
X152244637Y-37439241D01*
X152044759Y-37239363D01*
X151809727Y-37082320D01*
X151548574Y-36974147D01*
X151271335Y-36919000D01*
X150988665Y-36919000D01*
X150711426Y-36974147D01*
X150450273Y-37082320D01*
X150215241Y-37239363D01*
X150015363Y-37439241D01*
X149858320Y-37674273D01*
X149750147Y-37935426D01*
X149695000Y-38212665D01*
X149695000Y-38495335D01*
X149750147Y-38772574D01*
X149858320Y-39033727D01*
X150015363Y-39268759D01*
X150215241Y-39468637D01*
X150447759Y-39624000D01*
X150215241Y-39779363D01*
X150015363Y-39979241D01*
X149858320Y-40214273D01*
X149750147Y-40475426D01*
X149695000Y-40752665D01*
X149695000Y-41035335D01*
X149750147Y-41312574D01*
X149858320Y-41573727D01*
X150015363Y-41808759D01*
X150215241Y-42008637D01*
X150447759Y-42164000D01*
X150215241Y-42319363D01*
X150015363Y-42519241D01*
X149858320Y-42754273D01*
X149750147Y-43015426D01*
X149695000Y-43292665D01*
X149695000Y-43575335D01*
X149750147Y-43852574D01*
X149858320Y-44113727D01*
X150015363Y-44348759D01*
X150215241Y-44548637D01*
X150447759Y-44704000D01*
X150215241Y-44859363D01*
X150015363Y-45059241D01*
X149858320Y-45294273D01*
X149750147Y-45555426D01*
X149695000Y-45832665D01*
X149695000Y-46115335D01*
X149750147Y-46392574D01*
X149858320Y-46653727D01*
X150015363Y-46888759D01*
X150215241Y-47088637D01*
X150447759Y-47244000D01*
X150215241Y-47399363D01*
X150015363Y-47599241D01*
X149858320Y-47834273D01*
X149750147Y-48095426D01*
X149695000Y-48372665D01*
X149695000Y-48655335D01*
X149750147Y-48932574D01*
X149858320Y-49193727D01*
X150015363Y-49428759D01*
X150215241Y-49628637D01*
X150447759Y-49784000D01*
X150215241Y-49939363D01*
X150015363Y-50139241D01*
X149860000Y-50371759D01*
X149704637Y-50139241D01*
X149504759Y-49939363D01*
X149269727Y-49782320D01*
X149008574Y-49674147D01*
X148731335Y-49619000D01*
X148448665Y-49619000D01*
X148171426Y-49674147D01*
X147910273Y-49782320D01*
X147675241Y-49939363D01*
X147475363Y-50139241D01*
X147320000Y-50371759D01*
X147164637Y-50139241D01*
X146964759Y-49939363D01*
X146729727Y-49782320D01*
X146468574Y-49674147D01*
X146191335Y-49619000D01*
X145908665Y-49619000D01*
X145631426Y-49674147D01*
X145370273Y-49782320D01*
X145135241Y-49939363D01*
X144935363Y-50139241D01*
X144780000Y-50371759D01*
X144624637Y-50139241D01*
X144424759Y-49939363D01*
X144189727Y-49782320D01*
X143928574Y-49674147D01*
X143651335Y-49619000D01*
X143368665Y-49619000D01*
X143091426Y-49674147D01*
X142830273Y-49782320D01*
X142595241Y-49939363D01*
X142395363Y-50139241D01*
X142240000Y-50371759D01*
X142084637Y-50139241D01*
X141884759Y-49939363D01*
X141649727Y-49782320D01*
X141388574Y-49674147D01*
X141111335Y-49619000D01*
X140828665Y-49619000D01*
X140551426Y-49674147D01*
X140290273Y-49782320D01*
X140055241Y-49939363D01*
X139855363Y-50139241D01*
X139700000Y-50371759D01*
X139544637Y-50139241D01*
X139344759Y-49939363D01*
X139109727Y-49782320D01*
X138848574Y-49674147D01*
X138571335Y-49619000D01*
X138288665Y-49619000D01*
X138011426Y-49674147D01*
X137750273Y-49782320D01*
X137515241Y-49939363D01*
X137315363Y-50139241D01*
X137160000Y-50371759D01*
X137004637Y-50139241D01*
X136804759Y-49939363D01*
X136572241Y-49784000D01*
X136804759Y-49628637D01*
X137004637Y-49428759D01*
X137161680Y-49193727D01*
X137269853Y-48932574D01*
X137325000Y-48655335D01*
X137325000Y-48372665D01*
X137269853Y-48095426D01*
X137161680Y-47834273D01*
X137004637Y-47599241D01*
X136804759Y-47399363D01*
X136572241Y-47244000D01*
X136804759Y-47088637D01*
X137004637Y-46888759D01*
X137161680Y-46653727D01*
X137269853Y-46392574D01*
X137325000Y-46115335D01*
X137325000Y-45832665D01*
X137269853Y-45555426D01*
X137161680Y-45294273D01*
X137004637Y-45059241D01*
X136804759Y-44859363D01*
X136572241Y-44704000D01*
X136804759Y-44548637D01*
X137004637Y-44348759D01*
X137161680Y-44113727D01*
X137269853Y-43852574D01*
X137325000Y-43575335D01*
X137325000Y-43292665D01*
X137269853Y-43015426D01*
X137161680Y-42754273D01*
X137004637Y-42519241D01*
X136804759Y-42319363D01*
X136572241Y-42164000D01*
X136804759Y-42008637D01*
X137004637Y-41808759D01*
X137161680Y-41573727D01*
X137269853Y-41312574D01*
X137325000Y-41035335D01*
X137325000Y-40752665D01*
X137269853Y-40475426D01*
X137161680Y-40214273D01*
X137004637Y-39979241D01*
X136804759Y-39779363D01*
X136572241Y-39624000D01*
X136804759Y-39468637D01*
X137004637Y-39268759D01*
X137161680Y-39033727D01*
X137269853Y-38772574D01*
X137325000Y-38495335D01*
X137325000Y-38212665D01*
X137269853Y-37935426D01*
X137161680Y-37674273D01*
X137004637Y-37439241D01*
X136804759Y-37239363D01*
X136569727Y-37082320D01*
X136308574Y-36974147D01*
X136031335Y-36919000D01*
X135748665Y-36919000D01*
X135471426Y-36974147D01*
X135210273Y-37082320D01*
X134975241Y-37239363D01*
X134775363Y-37439241D01*
X134618320Y-37674273D01*
X134510147Y-37935426D01*
X134455000Y-38212665D01*
X134455000Y-38495335D01*
X134510147Y-38772574D01*
X134618320Y-39033727D01*
X134775363Y-39268759D01*
X134975241Y-39468637D01*
X135207759Y-39624000D01*
X134975241Y-39779363D01*
X134775363Y-39979241D01*
X134618320Y-40214273D01*
X134510147Y-40475426D01*
X134455000Y-40752665D01*
X134455000Y-41035335D01*
X134510147Y-41312574D01*
X134618320Y-41573727D01*
X134775363Y-41808759D01*
X134975241Y-42008637D01*
X135207759Y-42164000D01*
X134975241Y-42319363D01*
X134775363Y-42519241D01*
X134618320Y-42754273D01*
X134510147Y-43015426D01*
X134455000Y-43292665D01*
X134455000Y-43575335D01*
X134510147Y-43852574D01*
X134618320Y-44113727D01*
X134775363Y-44348759D01*
X134975241Y-44548637D01*
X135207759Y-44704000D01*
X134975241Y-44859363D01*
X134775363Y-45059241D01*
X134618320Y-45294273D01*
X134510147Y-45555426D01*
X134455000Y-45832665D01*
X134455000Y-46115335D01*
X134510147Y-46392574D01*
X134618320Y-46653727D01*
X134775363Y-46888759D01*
X134975241Y-47088637D01*
X135207759Y-47244000D01*
X134975241Y-47399363D01*
X134775363Y-47599241D01*
X134618320Y-47834273D01*
X134510147Y-48095426D01*
X134455000Y-48372665D01*
X134455000Y-48655335D01*
X134510147Y-48932574D01*
X134618320Y-49193727D01*
X134775363Y-49428759D01*
X134975241Y-49628637D01*
X135207759Y-49784000D01*
X134975241Y-49939363D01*
X134775363Y-50139241D01*
X134618320Y-50374273D01*
X134510147Y-50635426D01*
X134455000Y-50912665D01*
X134455000Y-51195335D01*
X134510147Y-51472574D01*
X134618320Y-51733727D01*
X134775363Y-51968759D01*
X134975241Y-52168637D01*
X135207759Y-52324000D01*
X134975241Y-52479363D01*
X134775363Y-52679241D01*
X134618320Y-52914273D01*
X134510147Y-53175426D01*
X134455000Y-53452665D01*
X134455000Y-53735335D01*
X134510147Y-54012574D01*
X134618320Y-54273727D01*
X134775363Y-54508759D01*
X134975241Y-54708637D01*
X135207759Y-54864000D01*
X134975241Y-55019363D01*
X134775363Y-55219241D01*
X134618320Y-55454273D01*
X134510147Y-55715426D01*
X134455000Y-55992665D01*
X134455000Y-56275335D01*
X134510147Y-56552574D01*
X134608077Y-56788999D01*
X134376018Y-56788999D01*
X134338695Y-56785323D01*
X134301372Y-56788999D01*
X134301362Y-56788999D01*
X134189709Y-56799996D01*
X134046448Y-56843453D01*
X133914418Y-56914025D01*
X133830778Y-56982667D01*
X133798694Y-57008998D01*
X133774896Y-57037996D01*
X132543546Y-58269347D01*
X132481408Y-58269347D01*
X132281449Y-58309121D01*
X132093091Y-58387142D01*
X131923573Y-58500410D01*
X131821347Y-58602636D01*
X131723774Y-58505063D01*
X131554256Y-58391795D01*
X131365898Y-58313774D01*
X131165939Y-58274000D01*
X130962061Y-58274000D01*
X130762102Y-58313774D01*
X130573744Y-58391795D01*
X130404226Y-58505063D01*
X130260063Y-58649226D01*
X130146795Y-58818744D01*
X130068774Y-59007102D01*
X130029000Y-59207061D01*
X130029000Y-59410939D01*
X130068774Y-59610898D01*
X130146795Y-59799256D01*
X130260063Y-59968774D01*
X130404226Y-60112937D01*
X130573744Y-60226205D01*
X130762102Y-60304226D01*
X130962061Y-60344000D01*
X131024199Y-60344000D01*
X131298198Y-60618000D01*
X130107405Y-60618000D01*
X130063468Y-60574063D01*
X129893950Y-60460795D01*
X129705592Y-60382774D01*
X129505633Y-60343000D01*
X129301755Y-60343000D01*
X129101796Y-60382774D01*
X128913438Y-60460795D01*
X128743920Y-60574063D01*
X128599757Y-60718226D01*
X128486489Y-60887744D01*
X128408468Y-61076102D01*
X128368694Y-61276061D01*
X115697000Y-61276061D01*
X115697000Y-53813967D01*
X120793000Y-53813967D01*
X120793000Y-54136033D01*
X120855832Y-54451912D01*
X120979082Y-54749463D01*
X121158013Y-55017252D01*
X121385748Y-55244987D01*
X121653537Y-55423918D01*
X121951088Y-55547168D01*
X122266967Y-55610000D01*
X122589033Y-55610000D01*
X122904912Y-55547168D01*
X123202463Y-55423918D01*
X123470252Y-55244987D01*
X123697987Y-55017252D01*
X123876918Y-54749463D01*
X124000168Y-54451912D01*
X124063000Y-54136033D01*
X124063000Y-53813967D01*
X124000168Y-53498088D01*
X123876918Y-53200537D01*
X123697987Y-52932748D01*
X123470252Y-52705013D01*
X123202463Y-52526082D01*
X122904912Y-52402832D01*
X122589033Y-52340000D01*
X122266967Y-52340000D01*
X121951088Y-52402832D01*
X121653537Y-52526082D01*
X121385748Y-52705013D01*
X121158013Y-52932748D01*
X120979082Y-53200537D01*
X120855832Y-53498088D01*
X120793000Y-53813967D01*
X115697000Y-53813967D01*
X115697000Y-50003967D01*
X120920000Y-50003967D01*
X120920000Y-50326033D01*
X120982832Y-50641912D01*
X121106082Y-50939463D01*
X121285013Y-51207252D01*
X121512748Y-51434987D01*
X121780537Y-51613918D01*
X122078088Y-51737168D01*
X122393967Y-51800000D01*
X122716033Y-51800000D01*
X123031912Y-51737168D01*
X123329463Y-51613918D01*
X123597252Y-51434987D01*
X123824987Y-51207252D01*
X124003918Y-50939463D01*
X124127168Y-50641912D01*
X124190000Y-50326033D01*
X124190000Y-50003967D01*
X124127168Y-49688088D01*
X124003918Y-49390537D01*
X123824987Y-49122748D01*
X123597252Y-48895013D01*
X123329463Y-48716082D01*
X123031912Y-48592832D01*
X122716033Y-48530000D01*
X122393967Y-48530000D01*
X122078088Y-48592832D01*
X121780537Y-48716082D01*
X121512748Y-48895013D01*
X121285013Y-49122748D01*
X121106082Y-49390537D01*
X120982832Y-49688088D01*
X120920000Y-50003967D01*
X115697000Y-50003967D01*
X115697000Y-34950000D01*
X172060001Y-34950000D01*
X172060000Y-99670000D01*
G36*
X116713000Y-37973000D02*
G01*
X113157000Y-37973000D01*
X113157000Y-35687000D01*
X116713000Y-35687000D01*
X116713000Y-37973000D01*
G37*
X116713000Y-37973000D02*
X113157000Y-37973000D01*
X113157000Y-35687000D01*
X116713000Y-35687000D01*
X116713000Y-37973000D01*
%TD*%
M02*
