%TF.GenerationSoftware,KiCad,Pcbnew,(5.1.6-0-10_14)*%
%TF.CreationDate,2021-01-13T17:54:44-08:00*%
%TF.ProjectId,MCP35461DevBoard,4d435033-3534-4363-9144-6576426f6172,rev?*%
%TF.SameCoordinates,Original*%
%TF.FileFunction,Soldermask,Top*%
%TF.FilePolarity,Negative*%
%FSLAX46Y46*%
G04 Gerber Fmt 4.6, Leading zero omitted, Abs format (unit mm)*
G04 Created by KiCad (PCBNEW (5.1.6-0-10_14)) date 2021-01-13 17:54:44*
%MOMM*%
%LPD*%
G01*
G04 APERTURE LIST*
%ADD10C,2.100000*%
%ADD11O,3.600000X7.100000*%
%ADD12O,1.700000X2.600000*%
%ADD13O,4.060000X2.080000*%
%ADD14R,4.060000X2.080000*%
%ADD15C,1.400000*%
%ADD16C,1.700000*%
%ADD17R,1.400000X1.400000*%
%ADD18R,1.700000X1.700000*%
%ADD19R,0.750000X1.660000*%
%ADD20R,2.100000X0.750000*%
%ADD21R,0.500000X0.750000*%
%ADD22O,1.800000X1.800000*%
%ADD23R,1.800000X1.800000*%
%ADD24R,5.180000X1.700000*%
%ADD25C,4.100000*%
%ADD26R,0.950000X0.700000*%
%ADD27R,0.900000X0.900000*%
%ADD28C,0.100000*%
G04 APERTURE END LIST*
D10*
%TO.C,TP9*%
X122555000Y-76835000D03*
%TD*%
D11*
%TO.C,J2*%
X119684800Y-90271600D03*
D12*
X124764800Y-85191600D03*
D11*
X129844800Y-90271600D03*
D12*
X127304800Y-85191600D03*
%TD*%
D13*
%TO.C,J8*%
X94742000Y-53340000D03*
D14*
X94742000Y-48340000D03*
%TD*%
%TO.C,R12*%
G36*
G01*
X126219000Y-68101738D02*
X126219000Y-69058262D01*
G75*
G02*
X125947262Y-69330000I-271738J0D01*
G01*
X125240738Y-69330000D01*
G75*
G02*
X124969000Y-69058262I0J271738D01*
G01*
X124969000Y-68101738D01*
G75*
G02*
X125240738Y-67830000I271738J0D01*
G01*
X125947262Y-67830000D01*
G75*
G02*
X126219000Y-68101738I0J-271738D01*
G01*
G37*
G36*
G01*
X128269000Y-68101738D02*
X128269000Y-69058262D01*
G75*
G02*
X127997262Y-69330000I-271738J0D01*
G01*
X127290738Y-69330000D01*
G75*
G02*
X127019000Y-69058262I0J271738D01*
G01*
X127019000Y-68101738D01*
G75*
G02*
X127290738Y-67830000I271738J0D01*
G01*
X127997262Y-67830000D01*
G75*
G02*
X128269000Y-68101738I0J-271738D01*
G01*
G37*
%TD*%
%TO.C,C10*%
G36*
G01*
X102626000Y-60549262D02*
X102626000Y-59592738D01*
G75*
G02*
X102897738Y-59321000I271738J0D01*
G01*
X103604262Y-59321000D01*
G75*
G02*
X103876000Y-59592738I0J-271738D01*
G01*
X103876000Y-60549262D01*
G75*
G02*
X103604262Y-60821000I-271738J0D01*
G01*
X102897738Y-60821000D01*
G75*
G02*
X102626000Y-60549262I0J271738D01*
G01*
G37*
G36*
G01*
X100576000Y-60549262D02*
X100576000Y-59592738D01*
G75*
G02*
X100847738Y-59321000I271738J0D01*
G01*
X101554262Y-59321000D01*
G75*
G02*
X101826000Y-59592738I0J-271738D01*
G01*
X101826000Y-60549262D01*
G75*
G02*
X101554262Y-60821000I-271738J0D01*
G01*
X100847738Y-60821000D01*
G75*
G02*
X100576000Y-60549262I0J271738D01*
G01*
G37*
%TD*%
%TO.C,U7*%
G36*
G01*
X116756000Y-61208000D02*
X116756000Y-60958000D01*
G75*
G02*
X116881000Y-60833000I125000J0D01*
G01*
X118206000Y-60833000D01*
G75*
G02*
X118331000Y-60958000I0J-125000D01*
G01*
X118331000Y-61208000D01*
G75*
G02*
X118206000Y-61333000I-125000J0D01*
G01*
X116881000Y-61333000D01*
G75*
G02*
X116756000Y-61208000I0J125000D01*
G01*
G37*
G36*
G01*
X116756000Y-61858000D02*
X116756000Y-61608000D01*
G75*
G02*
X116881000Y-61483000I125000J0D01*
G01*
X118206000Y-61483000D01*
G75*
G02*
X118331000Y-61608000I0J-125000D01*
G01*
X118331000Y-61858000D01*
G75*
G02*
X118206000Y-61983000I-125000J0D01*
G01*
X116881000Y-61983000D01*
G75*
G02*
X116756000Y-61858000I0J125000D01*
G01*
G37*
G36*
G01*
X116756000Y-62508000D02*
X116756000Y-62258000D01*
G75*
G02*
X116881000Y-62133000I125000J0D01*
G01*
X118206000Y-62133000D01*
G75*
G02*
X118331000Y-62258000I0J-125000D01*
G01*
X118331000Y-62508000D01*
G75*
G02*
X118206000Y-62633000I-125000J0D01*
G01*
X116881000Y-62633000D01*
G75*
G02*
X116756000Y-62508000I0J125000D01*
G01*
G37*
G36*
G01*
X116756000Y-63158000D02*
X116756000Y-62908000D01*
G75*
G02*
X116881000Y-62783000I125000J0D01*
G01*
X118206000Y-62783000D01*
G75*
G02*
X118331000Y-62908000I0J-125000D01*
G01*
X118331000Y-63158000D01*
G75*
G02*
X118206000Y-63283000I-125000J0D01*
G01*
X116881000Y-63283000D01*
G75*
G02*
X116756000Y-63158000I0J125000D01*
G01*
G37*
G36*
G01*
X116756000Y-63808000D02*
X116756000Y-63558000D01*
G75*
G02*
X116881000Y-63433000I125000J0D01*
G01*
X118206000Y-63433000D01*
G75*
G02*
X118331000Y-63558000I0J-125000D01*
G01*
X118331000Y-63808000D01*
G75*
G02*
X118206000Y-63933000I-125000J0D01*
G01*
X116881000Y-63933000D01*
G75*
G02*
X116756000Y-63808000I0J125000D01*
G01*
G37*
G36*
G01*
X116756000Y-64458000D02*
X116756000Y-64208000D01*
G75*
G02*
X116881000Y-64083000I125000J0D01*
G01*
X118206000Y-64083000D01*
G75*
G02*
X118331000Y-64208000I0J-125000D01*
G01*
X118331000Y-64458000D01*
G75*
G02*
X118206000Y-64583000I-125000J0D01*
G01*
X116881000Y-64583000D01*
G75*
G02*
X116756000Y-64458000I0J125000D01*
G01*
G37*
G36*
G01*
X116756000Y-65108000D02*
X116756000Y-64858000D01*
G75*
G02*
X116881000Y-64733000I125000J0D01*
G01*
X118206000Y-64733000D01*
G75*
G02*
X118331000Y-64858000I0J-125000D01*
G01*
X118331000Y-65108000D01*
G75*
G02*
X118206000Y-65233000I-125000J0D01*
G01*
X116881000Y-65233000D01*
G75*
G02*
X116756000Y-65108000I0J125000D01*
G01*
G37*
G36*
G01*
X116756000Y-65758000D02*
X116756000Y-65508000D01*
G75*
G02*
X116881000Y-65383000I125000J0D01*
G01*
X118206000Y-65383000D01*
G75*
G02*
X118331000Y-65508000I0J-125000D01*
G01*
X118331000Y-65758000D01*
G75*
G02*
X118206000Y-65883000I-125000J0D01*
G01*
X116881000Y-65883000D01*
G75*
G02*
X116756000Y-65758000I0J125000D01*
G01*
G37*
G36*
G01*
X116756000Y-66408000D02*
X116756000Y-66158000D01*
G75*
G02*
X116881000Y-66033000I125000J0D01*
G01*
X118206000Y-66033000D01*
G75*
G02*
X118331000Y-66158000I0J-125000D01*
G01*
X118331000Y-66408000D01*
G75*
G02*
X118206000Y-66533000I-125000J0D01*
G01*
X116881000Y-66533000D01*
G75*
G02*
X116756000Y-66408000I0J125000D01*
G01*
G37*
G36*
G01*
X116756000Y-67058000D02*
X116756000Y-66808000D01*
G75*
G02*
X116881000Y-66683000I125000J0D01*
G01*
X118206000Y-66683000D01*
G75*
G02*
X118331000Y-66808000I0J-125000D01*
G01*
X118331000Y-67058000D01*
G75*
G02*
X118206000Y-67183000I-125000J0D01*
G01*
X116881000Y-67183000D01*
G75*
G02*
X116756000Y-67058000I0J125000D01*
G01*
G37*
G36*
G01*
X111031000Y-67058000D02*
X111031000Y-66808000D01*
G75*
G02*
X111156000Y-66683000I125000J0D01*
G01*
X112481000Y-66683000D01*
G75*
G02*
X112606000Y-66808000I0J-125000D01*
G01*
X112606000Y-67058000D01*
G75*
G02*
X112481000Y-67183000I-125000J0D01*
G01*
X111156000Y-67183000D01*
G75*
G02*
X111031000Y-67058000I0J125000D01*
G01*
G37*
G36*
G01*
X111031000Y-66408000D02*
X111031000Y-66158000D01*
G75*
G02*
X111156000Y-66033000I125000J0D01*
G01*
X112481000Y-66033000D01*
G75*
G02*
X112606000Y-66158000I0J-125000D01*
G01*
X112606000Y-66408000D01*
G75*
G02*
X112481000Y-66533000I-125000J0D01*
G01*
X111156000Y-66533000D01*
G75*
G02*
X111031000Y-66408000I0J125000D01*
G01*
G37*
G36*
G01*
X111031000Y-65758000D02*
X111031000Y-65508000D01*
G75*
G02*
X111156000Y-65383000I125000J0D01*
G01*
X112481000Y-65383000D01*
G75*
G02*
X112606000Y-65508000I0J-125000D01*
G01*
X112606000Y-65758000D01*
G75*
G02*
X112481000Y-65883000I-125000J0D01*
G01*
X111156000Y-65883000D01*
G75*
G02*
X111031000Y-65758000I0J125000D01*
G01*
G37*
G36*
G01*
X111031000Y-65108000D02*
X111031000Y-64858000D01*
G75*
G02*
X111156000Y-64733000I125000J0D01*
G01*
X112481000Y-64733000D01*
G75*
G02*
X112606000Y-64858000I0J-125000D01*
G01*
X112606000Y-65108000D01*
G75*
G02*
X112481000Y-65233000I-125000J0D01*
G01*
X111156000Y-65233000D01*
G75*
G02*
X111031000Y-65108000I0J125000D01*
G01*
G37*
G36*
G01*
X111031000Y-64458000D02*
X111031000Y-64208000D01*
G75*
G02*
X111156000Y-64083000I125000J0D01*
G01*
X112481000Y-64083000D01*
G75*
G02*
X112606000Y-64208000I0J-125000D01*
G01*
X112606000Y-64458000D01*
G75*
G02*
X112481000Y-64583000I-125000J0D01*
G01*
X111156000Y-64583000D01*
G75*
G02*
X111031000Y-64458000I0J125000D01*
G01*
G37*
G36*
G01*
X111031000Y-63808000D02*
X111031000Y-63558000D01*
G75*
G02*
X111156000Y-63433000I125000J0D01*
G01*
X112481000Y-63433000D01*
G75*
G02*
X112606000Y-63558000I0J-125000D01*
G01*
X112606000Y-63808000D01*
G75*
G02*
X112481000Y-63933000I-125000J0D01*
G01*
X111156000Y-63933000D01*
G75*
G02*
X111031000Y-63808000I0J125000D01*
G01*
G37*
G36*
G01*
X111031000Y-63158000D02*
X111031000Y-62908000D01*
G75*
G02*
X111156000Y-62783000I125000J0D01*
G01*
X112481000Y-62783000D01*
G75*
G02*
X112606000Y-62908000I0J-125000D01*
G01*
X112606000Y-63158000D01*
G75*
G02*
X112481000Y-63283000I-125000J0D01*
G01*
X111156000Y-63283000D01*
G75*
G02*
X111031000Y-63158000I0J125000D01*
G01*
G37*
G36*
G01*
X111031000Y-62508000D02*
X111031000Y-62258000D01*
G75*
G02*
X111156000Y-62133000I125000J0D01*
G01*
X112481000Y-62133000D01*
G75*
G02*
X112606000Y-62258000I0J-125000D01*
G01*
X112606000Y-62508000D01*
G75*
G02*
X112481000Y-62633000I-125000J0D01*
G01*
X111156000Y-62633000D01*
G75*
G02*
X111031000Y-62508000I0J125000D01*
G01*
G37*
G36*
G01*
X111031000Y-61858000D02*
X111031000Y-61608000D01*
G75*
G02*
X111156000Y-61483000I125000J0D01*
G01*
X112481000Y-61483000D01*
G75*
G02*
X112606000Y-61608000I0J-125000D01*
G01*
X112606000Y-61858000D01*
G75*
G02*
X112481000Y-61983000I-125000J0D01*
G01*
X111156000Y-61983000D01*
G75*
G02*
X111031000Y-61858000I0J125000D01*
G01*
G37*
G36*
G01*
X111031000Y-61208000D02*
X111031000Y-60958000D01*
G75*
G02*
X111156000Y-60833000I125000J0D01*
G01*
X112481000Y-60833000D01*
G75*
G02*
X112606000Y-60958000I0J-125000D01*
G01*
X112606000Y-61208000D01*
G75*
G02*
X112481000Y-61333000I-125000J0D01*
G01*
X111156000Y-61333000D01*
G75*
G02*
X111031000Y-61208000I0J125000D01*
G01*
G37*
%TD*%
D15*
%TO.C,U8*%
X142240000Y-96044000D03*
X144780000Y-96044000D03*
D16*
X138430000Y-51054000D03*
X140970000Y-51054000D03*
X143510000Y-51054000D03*
X146050000Y-51054000D03*
X148590000Y-51054000D03*
D15*
X142328400Y-83804000D03*
X142328400Y-81804000D03*
X140328400Y-81804000D03*
X140328400Y-83804000D03*
X138328400Y-81804000D03*
D17*
X138328400Y-83804000D03*
D16*
X151130000Y-56134000D03*
X151130000Y-53594000D03*
X151130000Y-51054000D03*
X151130000Y-48514000D03*
X151130000Y-58674000D03*
X151130000Y-61214000D03*
X151130000Y-63754000D03*
X151130000Y-45974000D03*
X151130000Y-43434000D03*
X151130000Y-40894000D03*
X151130000Y-38354000D03*
X135890000Y-38354000D03*
X135890000Y-40894000D03*
X135890000Y-43434000D03*
X135890000Y-45974000D03*
X135890000Y-48514000D03*
X135890000Y-51054000D03*
X135890000Y-53594000D03*
X135890000Y-56134000D03*
X135890000Y-58674000D03*
X135890000Y-61214000D03*
X151130000Y-66294000D03*
X151130000Y-68834000D03*
X151130000Y-71374000D03*
X151130000Y-73914000D03*
X151130000Y-76454000D03*
X151130000Y-78994000D03*
X151130000Y-81534000D03*
X151130000Y-84074000D03*
X151130000Y-86614000D03*
X151130000Y-89154000D03*
X151130000Y-91694000D03*
X151130000Y-94234000D03*
D18*
X151130000Y-96774000D03*
D16*
X135890000Y-63754000D03*
X135890000Y-66294000D03*
X135890000Y-68834000D03*
X135890000Y-71374000D03*
X135890000Y-73914000D03*
X135890000Y-76454000D03*
X135890000Y-78994000D03*
X135890000Y-81534000D03*
X135890000Y-84074000D03*
X135890000Y-86614000D03*
X135890000Y-89154000D03*
X135890000Y-91694000D03*
X135890000Y-94234000D03*
X135890000Y-96774000D03*
D18*
X148079200Y-90474800D03*
D16*
X148079200Y-87934800D03*
X148079200Y-85394800D03*
X148079200Y-82854800D03*
X148079200Y-80314800D03*
X138430000Y-94234000D03*
%TD*%
D19*
%TO.C,U6*%
X116887000Y-45706000D03*
X115937000Y-45706000D03*
X117837000Y-45706000D03*
X117837000Y-48406000D03*
X116887000Y-48406000D03*
X115937000Y-48406000D03*
%TD*%
%TO.C,U5*%
X110617000Y-45847000D03*
X109667000Y-45847000D03*
X111567000Y-45847000D03*
X111567000Y-48547000D03*
X110617000Y-48547000D03*
X109667000Y-48547000D03*
%TD*%
D20*
%TO.C,U4*%
X112404000Y-71054000D03*
X112404000Y-69154000D03*
X115824000Y-69154000D03*
X115824000Y-70104000D03*
X115824000Y-71054000D03*
%TD*%
D21*
%TO.C,U3*%
X100823000Y-63820000D03*
X102123000Y-63820000D03*
X101473000Y-65720000D03*
X102123000Y-65720000D03*
X100823000Y-65720000D03*
%TD*%
D10*
%TO.C,TP8*%
X122428000Y-53975000D03*
%TD*%
%TO.C,TP7*%
X105791000Y-53594000D03*
%TD*%
%TO.C,TP6*%
X122555000Y-50165000D03*
%TD*%
%TO.C,TP5*%
X105283000Y-49911000D03*
%TD*%
%TO.C,TP4*%
X112395000Y-74803000D03*
%TD*%
%TO.C,TP3*%
X98806000Y-69977000D03*
%TD*%
%TO.C,TP2*%
X98298000Y-58547000D03*
%TD*%
%TO.C,TP1*%
X106807000Y-76073000D03*
%TD*%
%TO.C,R11*%
G36*
G01*
X126228000Y-59465738D02*
X126228000Y-60422262D01*
G75*
G02*
X125956262Y-60694000I-271738J0D01*
G01*
X125249738Y-60694000D01*
G75*
G02*
X124978000Y-60422262I0J271738D01*
G01*
X124978000Y-59465738D01*
G75*
G02*
X125249738Y-59194000I271738J0D01*
G01*
X125956262Y-59194000D01*
G75*
G02*
X126228000Y-59465738I0J-271738D01*
G01*
G37*
G36*
G01*
X128278000Y-59465738D02*
X128278000Y-60422262D01*
G75*
G02*
X128006262Y-60694000I-271738J0D01*
G01*
X127299738Y-60694000D01*
G75*
G02*
X127028000Y-60422262I0J271738D01*
G01*
X127028000Y-59465738D01*
G75*
G02*
X127299738Y-59194000I271738J0D01*
G01*
X128006262Y-59194000D01*
G75*
G02*
X128278000Y-59465738I0J-271738D01*
G01*
G37*
%TD*%
%TO.C,R10*%
G36*
G01*
X126228000Y-61624738D02*
X126228000Y-62581262D01*
G75*
G02*
X125956262Y-62853000I-271738J0D01*
G01*
X125249738Y-62853000D01*
G75*
G02*
X124978000Y-62581262I0J271738D01*
G01*
X124978000Y-61624738D01*
G75*
G02*
X125249738Y-61353000I271738J0D01*
G01*
X125956262Y-61353000D01*
G75*
G02*
X126228000Y-61624738I0J-271738D01*
G01*
G37*
G36*
G01*
X128278000Y-61624738D02*
X128278000Y-62581262D01*
G75*
G02*
X128006262Y-62853000I-271738J0D01*
G01*
X127299738Y-62853000D01*
G75*
G02*
X127028000Y-62581262I0J271738D01*
G01*
X127028000Y-61624738D01*
G75*
G02*
X127299738Y-61353000I271738J0D01*
G01*
X128006262Y-61353000D01*
G75*
G02*
X128278000Y-61624738I0J-271738D01*
G01*
G37*
%TD*%
%TO.C,R9*%
G36*
G01*
X126210000Y-63783738D02*
X126210000Y-64740262D01*
G75*
G02*
X125938262Y-65012000I-271738J0D01*
G01*
X125231738Y-65012000D01*
G75*
G02*
X124960000Y-64740262I0J271738D01*
G01*
X124960000Y-63783738D01*
G75*
G02*
X125231738Y-63512000I271738J0D01*
G01*
X125938262Y-63512000D01*
G75*
G02*
X126210000Y-63783738I0J-271738D01*
G01*
G37*
G36*
G01*
X128260000Y-63783738D02*
X128260000Y-64740262D01*
G75*
G02*
X127988262Y-65012000I-271738J0D01*
G01*
X127281738Y-65012000D01*
G75*
G02*
X127010000Y-64740262I0J271738D01*
G01*
X127010000Y-63783738D01*
G75*
G02*
X127281738Y-63512000I271738J0D01*
G01*
X127988262Y-63512000D01*
G75*
G02*
X128260000Y-63783738I0J-271738D01*
G01*
G37*
%TD*%
%TO.C,R8*%
G36*
G01*
X126228000Y-65942738D02*
X126228000Y-66899262D01*
G75*
G02*
X125956262Y-67171000I-271738J0D01*
G01*
X125249738Y-67171000D01*
G75*
G02*
X124978000Y-66899262I0J271738D01*
G01*
X124978000Y-65942738D01*
G75*
G02*
X125249738Y-65671000I271738J0D01*
G01*
X125956262Y-65671000D01*
G75*
G02*
X126228000Y-65942738I0J-271738D01*
G01*
G37*
G36*
G01*
X128278000Y-65942738D02*
X128278000Y-66899262D01*
G75*
G02*
X128006262Y-67171000I-271738J0D01*
G01*
X127299738Y-67171000D01*
G75*
G02*
X127028000Y-66899262I0J271738D01*
G01*
X127028000Y-65942738D01*
G75*
G02*
X127299738Y-65671000I271738J0D01*
G01*
X128006262Y-65671000D01*
G75*
G02*
X128278000Y-65942738I0J-271738D01*
G01*
G37*
%TD*%
%TO.C,R7*%
G36*
G01*
X106074738Y-65161000D02*
X107031262Y-65161000D01*
G75*
G02*
X107303000Y-65432738I0J-271738D01*
G01*
X107303000Y-66139262D01*
G75*
G02*
X107031262Y-66411000I-271738J0D01*
G01*
X106074738Y-66411000D01*
G75*
G02*
X105803000Y-66139262I0J271738D01*
G01*
X105803000Y-65432738D01*
G75*
G02*
X106074738Y-65161000I271738J0D01*
G01*
G37*
G36*
G01*
X106074738Y-63111000D02*
X107031262Y-63111000D01*
G75*
G02*
X107303000Y-63382738I0J-271738D01*
G01*
X107303000Y-64089262D01*
G75*
G02*
X107031262Y-64361000I-271738J0D01*
G01*
X106074738Y-64361000D01*
G75*
G02*
X105803000Y-64089262I0J271738D01*
G01*
X105803000Y-63382738D01*
G75*
G02*
X106074738Y-63111000I271738J0D01*
G01*
G37*
%TD*%
%TO.C,R6*%
G36*
G01*
X104169738Y-70513000D02*
X105126262Y-70513000D01*
G75*
G02*
X105398000Y-70784738I0J-271738D01*
G01*
X105398000Y-71491262D01*
G75*
G02*
X105126262Y-71763000I-271738J0D01*
G01*
X104169738Y-71763000D01*
G75*
G02*
X103898000Y-71491262I0J271738D01*
G01*
X103898000Y-70784738D01*
G75*
G02*
X104169738Y-70513000I271738J0D01*
G01*
G37*
G36*
G01*
X104169738Y-68463000D02*
X105126262Y-68463000D01*
G75*
G02*
X105398000Y-68734738I0J-271738D01*
G01*
X105398000Y-69441262D01*
G75*
G02*
X105126262Y-69713000I-271738J0D01*
G01*
X104169738Y-69713000D01*
G75*
G02*
X103898000Y-69441262I0J271738D01*
G01*
X103898000Y-68734738D01*
G75*
G02*
X104169738Y-68463000I271738J0D01*
G01*
G37*
%TD*%
%TO.C,R5*%
G36*
G01*
X107403262Y-69704000D02*
X106446738Y-69704000D01*
G75*
G02*
X106175000Y-69432262I0J271738D01*
G01*
X106175000Y-68725738D01*
G75*
G02*
X106446738Y-68454000I271738J0D01*
G01*
X107403262Y-68454000D01*
G75*
G02*
X107675000Y-68725738I0J-271738D01*
G01*
X107675000Y-69432262D01*
G75*
G02*
X107403262Y-69704000I-271738J0D01*
G01*
G37*
G36*
G01*
X107403262Y-71754000D02*
X106446738Y-71754000D01*
G75*
G02*
X106175000Y-71482262I0J271738D01*
G01*
X106175000Y-70775738D01*
G75*
G02*
X106446738Y-70504000I271738J0D01*
G01*
X107403262Y-70504000D01*
G75*
G02*
X107675000Y-70775738I0J-271738D01*
G01*
X107675000Y-71482262D01*
G75*
G02*
X107403262Y-71754000I-271738J0D01*
G01*
G37*
%TD*%
%TO.C,R4*%
G36*
G01*
X104990262Y-64370000D02*
X104033738Y-64370000D01*
G75*
G02*
X103762000Y-64098262I0J271738D01*
G01*
X103762000Y-63391738D01*
G75*
G02*
X104033738Y-63120000I271738J0D01*
G01*
X104990262Y-63120000D01*
G75*
G02*
X105262000Y-63391738I0J-271738D01*
G01*
X105262000Y-64098262D01*
G75*
G02*
X104990262Y-64370000I-271738J0D01*
G01*
G37*
G36*
G01*
X104990262Y-66420000D02*
X104033738Y-66420000D01*
G75*
G02*
X103762000Y-66148262I0J271738D01*
G01*
X103762000Y-65441738D01*
G75*
G02*
X104033738Y-65170000I271738J0D01*
G01*
X104990262Y-65170000D01*
G75*
G02*
X105262000Y-65441738I0J-271738D01*
G01*
X105262000Y-66148262D01*
G75*
G02*
X104990262Y-66420000I-271738J0D01*
G01*
G37*
%TD*%
%TO.C,R3*%
G36*
G01*
X130204738Y-80274000D02*
X131161262Y-80274000D01*
G75*
G02*
X131433000Y-80545738I0J-271738D01*
G01*
X131433000Y-81252262D01*
G75*
G02*
X131161262Y-81524000I-271738J0D01*
G01*
X130204738Y-81524000D01*
G75*
G02*
X129933000Y-81252262I0J271738D01*
G01*
X129933000Y-80545738D01*
G75*
G02*
X130204738Y-80274000I271738J0D01*
G01*
G37*
G36*
G01*
X130204738Y-78224000D02*
X131161262Y-78224000D01*
G75*
G02*
X131433000Y-78495738I0J-271738D01*
G01*
X131433000Y-79202262D01*
G75*
G02*
X131161262Y-79474000I-271738J0D01*
G01*
X130204738Y-79474000D01*
G75*
G02*
X129933000Y-79202262I0J271738D01*
G01*
X129933000Y-78495738D01*
G75*
G02*
X130204738Y-78224000I271738J0D01*
G01*
G37*
%TD*%
%TO.C,R2*%
G36*
G01*
X129002262Y-79492000D02*
X128045738Y-79492000D01*
G75*
G02*
X127774000Y-79220262I0J271738D01*
G01*
X127774000Y-78513738D01*
G75*
G02*
X128045738Y-78242000I271738J0D01*
G01*
X129002262Y-78242000D01*
G75*
G02*
X129274000Y-78513738I0J-271738D01*
G01*
X129274000Y-79220262D01*
G75*
G02*
X129002262Y-79492000I-271738J0D01*
G01*
G37*
G36*
G01*
X129002262Y-81542000D02*
X128045738Y-81542000D01*
G75*
G02*
X127774000Y-81270262I0J271738D01*
G01*
X127774000Y-80563738D01*
G75*
G02*
X128045738Y-80292000I271738J0D01*
G01*
X129002262Y-80292000D01*
G75*
G02*
X129274000Y-80563738I0J-271738D01*
G01*
X129274000Y-81270262D01*
G75*
G02*
X129002262Y-81542000I-271738J0D01*
G01*
G37*
%TD*%
%TO.C,R1*%
G36*
G01*
X98327738Y-64907000D02*
X99284262Y-64907000D01*
G75*
G02*
X99556000Y-65178738I0J-271738D01*
G01*
X99556000Y-65885262D01*
G75*
G02*
X99284262Y-66157000I-271738J0D01*
G01*
X98327738Y-66157000D01*
G75*
G02*
X98056000Y-65885262I0J271738D01*
G01*
X98056000Y-65178738D01*
G75*
G02*
X98327738Y-64907000I271738J0D01*
G01*
G37*
G36*
G01*
X98327738Y-62857000D02*
X99284262Y-62857000D01*
G75*
G02*
X99556000Y-63128738I0J-271738D01*
G01*
X99556000Y-63835262D01*
G75*
G02*
X99284262Y-64107000I-271738J0D01*
G01*
X98327738Y-64107000D01*
G75*
G02*
X98056000Y-63835262I0J271738D01*
G01*
X98056000Y-63128738D01*
G75*
G02*
X98327738Y-62857000I271738J0D01*
G01*
G37*
%TD*%
D22*
%TO.C,J7*%
X161086800Y-61468000D03*
X161086800Y-58928000D03*
X161086800Y-56388000D03*
X161086800Y-53848000D03*
X161086800Y-51308000D03*
X161086800Y-48768000D03*
X161086800Y-46228000D03*
X161086800Y-43688000D03*
X161086800Y-41148000D03*
D23*
X161086800Y-38608000D03*
%TD*%
D22*
%TO.C,J6*%
X167081200Y-88290400D03*
X164541200Y-88290400D03*
X167081200Y-85750400D03*
X164541200Y-85750400D03*
X167081200Y-83210400D03*
D23*
X164541200Y-83210400D03*
%TD*%
D22*
%TO.C,J5*%
X158038800Y-89712800D03*
X158038800Y-87172800D03*
X158038800Y-84632800D03*
D23*
X158038800Y-82092800D03*
%TD*%
D22*
%TO.C,J4*%
X167741600Y-72999600D03*
X165201600Y-72999600D03*
X167741600Y-70459600D03*
X165201600Y-70459600D03*
X167741600Y-67919600D03*
D23*
X165201600Y-67919600D03*
%TD*%
D22*
%TO.C,J3*%
X158800800Y-72898000D03*
X156260800Y-72898000D03*
X158800800Y-70358000D03*
X156260800Y-70358000D03*
X158800800Y-67818000D03*
D23*
X156260800Y-67818000D03*
%TD*%
D24*
%TO.C,J1*%
X94742000Y-67413000D03*
X94742000Y-61873000D03*
X94742000Y-64643000D03*
%TD*%
D25*
%TO.C,H4*%
X166370000Y-93980000D03*
%TD*%
%TO.C,H3*%
X167640000Y-39370000D03*
%TD*%
%TO.C,H2*%
X96520000Y-39370000D03*
%TD*%
%TO.C,H1*%
X96520000Y-95250000D03*
%TD*%
D26*
%TO.C,FL2*%
X116115000Y-54229000D03*
X117565000Y-54229000D03*
D27*
X116840000Y-55313000D03*
X116840000Y-53113000D03*
%TD*%
D26*
%TO.C,FL1*%
X111543000Y-54229000D03*
X112993000Y-54229000D03*
D27*
X112268000Y-55313000D03*
X112268000Y-53113000D03*
%TD*%
D28*
%TO.C,D1*%
G36*
X104200977Y-38324000D02*
G01*
X106619023Y-38324000D01*
X106002357Y-42024000D01*
X104817643Y-42024000D01*
X104200977Y-38324000D01*
G37*
G36*
X106619023Y-47824000D02*
G01*
X104200977Y-47824000D01*
X104817643Y-44124000D01*
X106002357Y-44124000D01*
X106619023Y-47824000D01*
G37*
%TD*%
%TO.C,C9*%
G36*
G01*
X119154000Y-59279262D02*
X119154000Y-58322738D01*
G75*
G02*
X119425738Y-58051000I271738J0D01*
G01*
X120132262Y-58051000D01*
G75*
G02*
X120404000Y-58322738I0J-271738D01*
G01*
X120404000Y-59279262D01*
G75*
G02*
X120132262Y-59551000I-271738J0D01*
G01*
X119425738Y-59551000D01*
G75*
G02*
X119154000Y-59279262I0J271738D01*
G01*
G37*
G36*
G01*
X117104000Y-59279262D02*
X117104000Y-58322738D01*
G75*
G02*
X117375738Y-58051000I271738J0D01*
G01*
X118082262Y-58051000D01*
G75*
G02*
X118354000Y-58322738I0J-271738D01*
G01*
X118354000Y-59279262D01*
G75*
G02*
X118082262Y-59551000I-271738J0D01*
G01*
X117375738Y-59551000D01*
G75*
G02*
X117104000Y-59279262I0J271738D01*
G01*
G37*
%TD*%
%TO.C,C8*%
G36*
G01*
X110081000Y-58322738D02*
X110081000Y-59279262D01*
G75*
G02*
X109809262Y-59551000I-271738J0D01*
G01*
X109102738Y-59551000D01*
G75*
G02*
X108831000Y-59279262I0J271738D01*
G01*
X108831000Y-58322738D01*
G75*
G02*
X109102738Y-58051000I271738J0D01*
G01*
X109809262Y-58051000D01*
G75*
G02*
X110081000Y-58322738I0J-271738D01*
G01*
G37*
G36*
G01*
X112131000Y-58322738D02*
X112131000Y-59279262D01*
G75*
G02*
X111859262Y-59551000I-271738J0D01*
G01*
X111152738Y-59551000D01*
G75*
G02*
X110881000Y-59279262I0J271738D01*
G01*
X110881000Y-58322738D01*
G75*
G02*
X111152738Y-58051000I271738J0D01*
G01*
X111859262Y-58051000D01*
G75*
G02*
X112131000Y-58322738I0J-271738D01*
G01*
G37*
%TD*%
%TO.C,C7*%
G36*
G01*
X108233738Y-65170000D02*
X109190262Y-65170000D01*
G75*
G02*
X109462000Y-65441738I0J-271738D01*
G01*
X109462000Y-66148262D01*
G75*
G02*
X109190262Y-66420000I-271738J0D01*
G01*
X108233738Y-66420000D01*
G75*
G02*
X107962000Y-66148262I0J271738D01*
G01*
X107962000Y-65441738D01*
G75*
G02*
X108233738Y-65170000I271738J0D01*
G01*
G37*
G36*
G01*
X108233738Y-63120000D02*
X109190262Y-63120000D01*
G75*
G02*
X109462000Y-63391738I0J-271738D01*
G01*
X109462000Y-64098262D01*
G75*
G02*
X109190262Y-64370000I-271738J0D01*
G01*
X108233738Y-64370000D01*
G75*
G02*
X107962000Y-64098262I0J271738D01*
G01*
X107962000Y-63391738D01*
G75*
G02*
X108233738Y-63120000I271738J0D01*
G01*
G37*
%TD*%
%TO.C,C6*%
G36*
G01*
X117376000Y-51532262D02*
X117376000Y-50575738D01*
G75*
G02*
X117647738Y-50304000I271738J0D01*
G01*
X118354262Y-50304000D01*
G75*
G02*
X118626000Y-50575738I0J-271738D01*
G01*
X118626000Y-51532262D01*
G75*
G02*
X118354262Y-51804000I-271738J0D01*
G01*
X117647738Y-51804000D01*
G75*
G02*
X117376000Y-51532262I0J271738D01*
G01*
G37*
G36*
G01*
X115326000Y-51532262D02*
X115326000Y-50575738D01*
G75*
G02*
X115597738Y-50304000I271738J0D01*
G01*
X116304262Y-50304000D01*
G75*
G02*
X116576000Y-50575738I0J-271738D01*
G01*
X116576000Y-51532262D01*
G75*
G02*
X116304262Y-51804000I-271738J0D01*
G01*
X115597738Y-51804000D01*
G75*
G02*
X115326000Y-51532262I0J271738D01*
G01*
G37*
%TD*%
%TO.C,C5*%
G36*
G01*
X110607000Y-50575738D02*
X110607000Y-51532262D01*
G75*
G02*
X110335262Y-51804000I-271738J0D01*
G01*
X109628738Y-51804000D01*
G75*
G02*
X109357000Y-51532262I0J271738D01*
G01*
X109357000Y-50575738D01*
G75*
G02*
X109628738Y-50304000I271738J0D01*
G01*
X110335262Y-50304000D01*
G75*
G02*
X110607000Y-50575738I0J-271738D01*
G01*
G37*
G36*
G01*
X112657000Y-50575738D02*
X112657000Y-51532262D01*
G75*
G02*
X112385262Y-51804000I-271738J0D01*
G01*
X111678738Y-51804000D01*
G75*
G02*
X111407000Y-51532262I0J271738D01*
G01*
X111407000Y-50575738D01*
G75*
G02*
X111678738Y-50304000I271738J0D01*
G01*
X112385262Y-50304000D01*
G75*
G02*
X112657000Y-50575738I0J-271738D01*
G01*
G37*
%TD*%
%TO.C,C4*%
G36*
G01*
X108741738Y-70513000D02*
X109698262Y-70513000D01*
G75*
G02*
X109970000Y-70784738I0J-271738D01*
G01*
X109970000Y-71491262D01*
G75*
G02*
X109698262Y-71763000I-271738J0D01*
G01*
X108741738Y-71763000D01*
G75*
G02*
X108470000Y-71491262I0J271738D01*
G01*
X108470000Y-70784738D01*
G75*
G02*
X108741738Y-70513000I271738J0D01*
G01*
G37*
G36*
G01*
X108741738Y-68463000D02*
X109698262Y-68463000D01*
G75*
G02*
X109970000Y-68734738I0J-271738D01*
G01*
X109970000Y-69441262D01*
G75*
G02*
X109698262Y-69713000I-271738J0D01*
G01*
X108741738Y-69713000D01*
G75*
G02*
X108470000Y-69441262I0J271738D01*
G01*
X108470000Y-68734738D01*
G75*
G02*
X108741738Y-68463000I271738J0D01*
G01*
G37*
%TD*%
%TO.C,C3*%
G36*
G01*
X111008000Y-44166262D02*
X111008000Y-43209738D01*
G75*
G02*
X111279738Y-42938000I271738J0D01*
G01*
X111986262Y-42938000D01*
G75*
G02*
X112258000Y-43209738I0J-271738D01*
G01*
X112258000Y-44166262D01*
G75*
G02*
X111986262Y-44438000I-271738J0D01*
G01*
X111279738Y-44438000D01*
G75*
G02*
X111008000Y-44166262I0J271738D01*
G01*
G37*
G36*
G01*
X108958000Y-44166262D02*
X108958000Y-43209738D01*
G75*
G02*
X109229738Y-42938000I271738J0D01*
G01*
X109936262Y-42938000D01*
G75*
G02*
X110208000Y-43209738I0J-271738D01*
G01*
X110208000Y-44166262D01*
G75*
G02*
X109936262Y-44438000I-271738J0D01*
G01*
X109229738Y-44438000D01*
G75*
G02*
X108958000Y-44166262I0J271738D01*
G01*
G37*
%TD*%
%TO.C,C2*%
G36*
G01*
X117249000Y-44039262D02*
X117249000Y-43082738D01*
G75*
G02*
X117520738Y-42811000I271738J0D01*
G01*
X118227262Y-42811000D01*
G75*
G02*
X118499000Y-43082738I0J-271738D01*
G01*
X118499000Y-44039262D01*
G75*
G02*
X118227262Y-44311000I-271738J0D01*
G01*
X117520738Y-44311000D01*
G75*
G02*
X117249000Y-44039262I0J271738D01*
G01*
G37*
G36*
G01*
X115199000Y-44039262D02*
X115199000Y-43082738D01*
G75*
G02*
X115470738Y-42811000I271738J0D01*
G01*
X116177262Y-42811000D01*
G75*
G02*
X116449000Y-43082738I0J-271738D01*
G01*
X116449000Y-44039262D01*
G75*
G02*
X116177262Y-44311000I-271738J0D01*
G01*
X115470738Y-44311000D01*
G75*
G02*
X115199000Y-44039262I0J271738D01*
G01*
G37*
%TD*%
%TO.C,C1*%
G36*
G01*
X118012738Y-70513000D02*
X118969262Y-70513000D01*
G75*
G02*
X119241000Y-70784738I0J-271738D01*
G01*
X119241000Y-71491262D01*
G75*
G02*
X118969262Y-71763000I-271738J0D01*
G01*
X118012738Y-71763000D01*
G75*
G02*
X117741000Y-71491262I0J271738D01*
G01*
X117741000Y-70784738D01*
G75*
G02*
X118012738Y-70513000I271738J0D01*
G01*
G37*
G36*
G01*
X118012738Y-68463000D02*
X118969262Y-68463000D01*
G75*
G02*
X119241000Y-68734738I0J-271738D01*
G01*
X119241000Y-69441262D01*
G75*
G02*
X118969262Y-69713000I-271738J0D01*
G01*
X118012738Y-69713000D01*
G75*
G02*
X117741000Y-69441262I0J271738D01*
G01*
X117741000Y-68734738D01*
G75*
G02*
X118012738Y-68463000I271738J0D01*
G01*
G37*
%TD*%
M02*
