M48
; DRILL file {KiCad (5.1.6-0-10_14)} date Wednesday, January 13, 2021 at 05:54:46 PM
; FORMAT={-:-/ absolute / inch / decimal}
; #@! TF.CreationDate,2021-01-13T17:54:46-08:00
; #@! TF.GenerationSoftware,Kicad,Pcbnew,(5.1.6-0-10_14)
; #@! TF.FileFunction,Plated,1,2,PTH
FMAT,2
INCH
T1C0.0157
T2C0.0315
T3C0.0350
T4C0.0394
T5C0.0433
T6C0.0520
T7C0.0791
T8C0.1213
%
G90
G05
T1
X3.72Y-2.365
X3.725Y-2.72
X3.95Y-2.41
X3.95Y-2.4885
X3.995Y-2.55
X4.05Y-2.5844
X4.05Y-2.68
X4.06Y-2.8
X4.115Y-2.365
X4.255Y-2.315
X4.28Y-2.645
X4.3Y-2.855
X4.33Y-2.065
X4.34Y-2.13
X4.34Y-2.43
X4.34Y-2.465
X4.34Y-2.54
X4.445Y-1.72
X4.645Y-2.065
X4.68Y-2.135
X4.695Y-1.715
X4.695Y-2.425
X4.73Y-2.815
X4.77Y-2.315
X5.0946Y-2.4165
X5.16Y-2.335
X5.2Y-3.185
X5.2198Y-2.3348
X5.235Y-2.415
X5.275Y-2.46
X5.413Y-2.267
X5.6198Y-2.7202
X5.725Y-2.715
X5.995Y-2.12
X6.03Y-2.57
X6.04Y-2.29
X6.06Y-2.61
X6.115Y-2.505
X6.225Y-2.45
X6.2638Y-2.4435
X6.3527Y-2.5023
T2
X5.446Y-3.2206
X5.446Y-3.2994
X5.5247Y-3.2206
X5.5247Y-3.2994
X5.6Y-3.7813
X5.6035Y-3.2206
X5.6035Y-3.2994
X5.7Y-3.7813
T3
X4.912Y-3.354
X5.012Y-3.354
T4
X6.478Y-3.276
X6.478Y-3.376
X6.478Y-3.476
X6.578Y-3.276
X6.578Y-3.376
X6.578Y-3.476
X6.222Y-3.232
X6.222Y-3.332
X6.222Y-3.432
X6.222Y-3.532
X4.425Y-2.945
X4.205Y-2.995
X4.825Y-1.975
X6.152Y-2.67
X6.152Y-2.77
X6.152Y-2.87
X6.252Y-2.67
X6.252Y-2.77
X6.252Y-2.87
X4.145Y-1.965
X3.87Y-2.305
X4.82Y-2.125
X4.165Y-2.11
X6.504Y-2.674
X6.504Y-2.774
X6.504Y-2.874
X6.604Y-2.674
X6.604Y-2.774
X6.604Y-2.874
X4.825Y-3.025
X6.342Y-1.52
X6.342Y-1.62
X6.342Y-1.72
X6.342Y-1.82
X6.342Y-1.92
X6.342Y-2.02
X6.342Y-2.12
X6.342Y-2.22
X6.342Y-2.32
X6.342Y-2.42
X3.89Y-2.755
T5
X5.35Y-1.51
X5.35Y-1.61
X5.35Y-1.71
X5.35Y-1.81
X5.35Y-1.91
X5.35Y-2.01
X5.35Y-2.11
X5.35Y-2.21
X5.35Y-2.31
X5.35Y-2.41
X5.35Y-2.51
X5.35Y-2.61
X5.35Y-2.71
X5.35Y-2.81
X5.35Y-2.91
X5.35Y-3.01
X5.35Y-3.11
X5.35Y-3.21
X5.35Y-3.31
X5.35Y-3.41
X5.35Y-3.51
X5.35Y-3.61
X5.35Y-3.71
X5.35Y-3.81
X5.45Y-2.01
X5.45Y-3.71
X5.55Y-2.01
X5.65Y-2.01
X5.75Y-2.01
X5.8299Y-3.162
X5.8299Y-3.262
X5.8299Y-3.362
X5.8299Y-3.462
X5.8299Y-3.562
X5.85Y-2.01
X5.95Y-1.51
X5.95Y-1.61
X5.95Y-1.71
X5.95Y-1.81
X5.95Y-1.91
X5.95Y-2.01
X5.95Y-2.11
X5.95Y-2.21
X5.95Y-2.31
X5.95Y-2.41
X5.95Y-2.51
X5.95Y-2.61
X5.95Y-2.71
X5.95Y-2.81
X5.95Y-2.91
X5.95Y-3.01
X5.95Y-3.11
X5.95Y-3.21
X5.95Y-3.31
X5.95Y-3.41
X5.95Y-3.51
X5.95Y-3.61
X5.95Y-3.71
X5.95Y-3.81
T6
X3.73Y-1.9031
X3.73Y-2.1
T7
X4.712Y-3.554
X5.112Y-3.554
T8
X3.8Y-1.55
X3.8Y-3.75
X6.55Y-3.7
X6.6Y-1.55
T0
M30
