%TF.GenerationSoftware,KiCad,Pcbnew,(5.1.6-0-10_14)*%
%TF.CreationDate,2021-01-13T17:54:44-08:00*%
%TF.ProjectId,MCP35461DevBoard,4d435033-3534-4363-9144-6576426f6172,rev?*%
%TF.SameCoordinates,Original*%
%TF.FileFunction,Paste,Top*%
%TF.FilePolarity,Positive*%
%FSLAX46Y46*%
G04 Gerber Fmt 4.6, Leading zero omitted, Abs format (unit mm)*
G04 Created by KiCad (PCBNEW (5.1.6-0-10_14)) date 2021-01-13 17:54:44*
%MOMM*%
%LPD*%
G01*
G04 APERTURE LIST*
%ADD10R,0.650000X1.560000*%
%ADD11R,2.000000X0.650000*%
%ADD12R,0.400000X0.650000*%
%ADD13R,5.080000X1.600000*%
%ADD14R,0.850000X0.600000*%
%ADD15R,0.800000X0.800000*%
%ADD16C,0.100000*%
G04 APERTURE END LIST*
%TO.C,R12*%
G36*
G01*
X126169000Y-68129999D02*
X126169000Y-69030001D01*
G75*
G02*
X125919001Y-69280000I-249999J0D01*
G01*
X125268999Y-69280000D01*
G75*
G02*
X125019000Y-69030001I0J249999D01*
G01*
X125019000Y-68129999D01*
G75*
G02*
X125268999Y-67880000I249999J0D01*
G01*
X125919001Y-67880000D01*
G75*
G02*
X126169000Y-68129999I0J-249999D01*
G01*
G37*
G36*
G01*
X128219000Y-68129999D02*
X128219000Y-69030001D01*
G75*
G02*
X127969001Y-69280000I-249999J0D01*
G01*
X127318999Y-69280000D01*
G75*
G02*
X127069000Y-69030001I0J249999D01*
G01*
X127069000Y-68129999D01*
G75*
G02*
X127318999Y-67880000I249999J0D01*
G01*
X127969001Y-67880000D01*
G75*
G02*
X128219000Y-68129999I0J-249999D01*
G01*
G37*
%TD*%
%TO.C,C10*%
G36*
G01*
X102676000Y-60521001D02*
X102676000Y-59620999D01*
G75*
G02*
X102925999Y-59371000I249999J0D01*
G01*
X103576001Y-59371000D01*
G75*
G02*
X103826000Y-59620999I0J-249999D01*
G01*
X103826000Y-60521001D01*
G75*
G02*
X103576001Y-60771000I-249999J0D01*
G01*
X102925999Y-60771000D01*
G75*
G02*
X102676000Y-60521001I0J249999D01*
G01*
G37*
G36*
G01*
X100626000Y-60521001D02*
X100626000Y-59620999D01*
G75*
G02*
X100875999Y-59371000I249999J0D01*
G01*
X101526001Y-59371000D01*
G75*
G02*
X101776000Y-59620999I0J-249999D01*
G01*
X101776000Y-60521001D01*
G75*
G02*
X101526001Y-60771000I-249999J0D01*
G01*
X100875999Y-60771000D01*
G75*
G02*
X100626000Y-60521001I0J249999D01*
G01*
G37*
%TD*%
%TO.C,U7*%
G36*
G01*
X116806000Y-61183000D02*
X116806000Y-60983000D01*
G75*
G02*
X116906000Y-60883000I100000J0D01*
G01*
X118181000Y-60883000D01*
G75*
G02*
X118281000Y-60983000I0J-100000D01*
G01*
X118281000Y-61183000D01*
G75*
G02*
X118181000Y-61283000I-100000J0D01*
G01*
X116906000Y-61283000D01*
G75*
G02*
X116806000Y-61183000I0J100000D01*
G01*
G37*
G36*
G01*
X116806000Y-61833000D02*
X116806000Y-61633000D01*
G75*
G02*
X116906000Y-61533000I100000J0D01*
G01*
X118181000Y-61533000D01*
G75*
G02*
X118281000Y-61633000I0J-100000D01*
G01*
X118281000Y-61833000D01*
G75*
G02*
X118181000Y-61933000I-100000J0D01*
G01*
X116906000Y-61933000D01*
G75*
G02*
X116806000Y-61833000I0J100000D01*
G01*
G37*
G36*
G01*
X116806000Y-62483000D02*
X116806000Y-62283000D01*
G75*
G02*
X116906000Y-62183000I100000J0D01*
G01*
X118181000Y-62183000D01*
G75*
G02*
X118281000Y-62283000I0J-100000D01*
G01*
X118281000Y-62483000D01*
G75*
G02*
X118181000Y-62583000I-100000J0D01*
G01*
X116906000Y-62583000D01*
G75*
G02*
X116806000Y-62483000I0J100000D01*
G01*
G37*
G36*
G01*
X116806000Y-63133000D02*
X116806000Y-62933000D01*
G75*
G02*
X116906000Y-62833000I100000J0D01*
G01*
X118181000Y-62833000D01*
G75*
G02*
X118281000Y-62933000I0J-100000D01*
G01*
X118281000Y-63133000D01*
G75*
G02*
X118181000Y-63233000I-100000J0D01*
G01*
X116906000Y-63233000D01*
G75*
G02*
X116806000Y-63133000I0J100000D01*
G01*
G37*
G36*
G01*
X116806000Y-63783000D02*
X116806000Y-63583000D01*
G75*
G02*
X116906000Y-63483000I100000J0D01*
G01*
X118181000Y-63483000D01*
G75*
G02*
X118281000Y-63583000I0J-100000D01*
G01*
X118281000Y-63783000D01*
G75*
G02*
X118181000Y-63883000I-100000J0D01*
G01*
X116906000Y-63883000D01*
G75*
G02*
X116806000Y-63783000I0J100000D01*
G01*
G37*
G36*
G01*
X116806000Y-64433000D02*
X116806000Y-64233000D01*
G75*
G02*
X116906000Y-64133000I100000J0D01*
G01*
X118181000Y-64133000D01*
G75*
G02*
X118281000Y-64233000I0J-100000D01*
G01*
X118281000Y-64433000D01*
G75*
G02*
X118181000Y-64533000I-100000J0D01*
G01*
X116906000Y-64533000D01*
G75*
G02*
X116806000Y-64433000I0J100000D01*
G01*
G37*
G36*
G01*
X116806000Y-65083000D02*
X116806000Y-64883000D01*
G75*
G02*
X116906000Y-64783000I100000J0D01*
G01*
X118181000Y-64783000D01*
G75*
G02*
X118281000Y-64883000I0J-100000D01*
G01*
X118281000Y-65083000D01*
G75*
G02*
X118181000Y-65183000I-100000J0D01*
G01*
X116906000Y-65183000D01*
G75*
G02*
X116806000Y-65083000I0J100000D01*
G01*
G37*
G36*
G01*
X116806000Y-65733000D02*
X116806000Y-65533000D01*
G75*
G02*
X116906000Y-65433000I100000J0D01*
G01*
X118181000Y-65433000D01*
G75*
G02*
X118281000Y-65533000I0J-100000D01*
G01*
X118281000Y-65733000D01*
G75*
G02*
X118181000Y-65833000I-100000J0D01*
G01*
X116906000Y-65833000D01*
G75*
G02*
X116806000Y-65733000I0J100000D01*
G01*
G37*
G36*
G01*
X116806000Y-66383000D02*
X116806000Y-66183000D01*
G75*
G02*
X116906000Y-66083000I100000J0D01*
G01*
X118181000Y-66083000D01*
G75*
G02*
X118281000Y-66183000I0J-100000D01*
G01*
X118281000Y-66383000D01*
G75*
G02*
X118181000Y-66483000I-100000J0D01*
G01*
X116906000Y-66483000D01*
G75*
G02*
X116806000Y-66383000I0J100000D01*
G01*
G37*
G36*
G01*
X116806000Y-67033000D02*
X116806000Y-66833000D01*
G75*
G02*
X116906000Y-66733000I100000J0D01*
G01*
X118181000Y-66733000D01*
G75*
G02*
X118281000Y-66833000I0J-100000D01*
G01*
X118281000Y-67033000D01*
G75*
G02*
X118181000Y-67133000I-100000J0D01*
G01*
X116906000Y-67133000D01*
G75*
G02*
X116806000Y-67033000I0J100000D01*
G01*
G37*
G36*
G01*
X111081000Y-67033000D02*
X111081000Y-66833000D01*
G75*
G02*
X111181000Y-66733000I100000J0D01*
G01*
X112456000Y-66733000D01*
G75*
G02*
X112556000Y-66833000I0J-100000D01*
G01*
X112556000Y-67033000D01*
G75*
G02*
X112456000Y-67133000I-100000J0D01*
G01*
X111181000Y-67133000D01*
G75*
G02*
X111081000Y-67033000I0J100000D01*
G01*
G37*
G36*
G01*
X111081000Y-66383000D02*
X111081000Y-66183000D01*
G75*
G02*
X111181000Y-66083000I100000J0D01*
G01*
X112456000Y-66083000D01*
G75*
G02*
X112556000Y-66183000I0J-100000D01*
G01*
X112556000Y-66383000D01*
G75*
G02*
X112456000Y-66483000I-100000J0D01*
G01*
X111181000Y-66483000D01*
G75*
G02*
X111081000Y-66383000I0J100000D01*
G01*
G37*
G36*
G01*
X111081000Y-65733000D02*
X111081000Y-65533000D01*
G75*
G02*
X111181000Y-65433000I100000J0D01*
G01*
X112456000Y-65433000D01*
G75*
G02*
X112556000Y-65533000I0J-100000D01*
G01*
X112556000Y-65733000D01*
G75*
G02*
X112456000Y-65833000I-100000J0D01*
G01*
X111181000Y-65833000D01*
G75*
G02*
X111081000Y-65733000I0J100000D01*
G01*
G37*
G36*
G01*
X111081000Y-65083000D02*
X111081000Y-64883000D01*
G75*
G02*
X111181000Y-64783000I100000J0D01*
G01*
X112456000Y-64783000D01*
G75*
G02*
X112556000Y-64883000I0J-100000D01*
G01*
X112556000Y-65083000D01*
G75*
G02*
X112456000Y-65183000I-100000J0D01*
G01*
X111181000Y-65183000D01*
G75*
G02*
X111081000Y-65083000I0J100000D01*
G01*
G37*
G36*
G01*
X111081000Y-64433000D02*
X111081000Y-64233000D01*
G75*
G02*
X111181000Y-64133000I100000J0D01*
G01*
X112456000Y-64133000D01*
G75*
G02*
X112556000Y-64233000I0J-100000D01*
G01*
X112556000Y-64433000D01*
G75*
G02*
X112456000Y-64533000I-100000J0D01*
G01*
X111181000Y-64533000D01*
G75*
G02*
X111081000Y-64433000I0J100000D01*
G01*
G37*
G36*
G01*
X111081000Y-63783000D02*
X111081000Y-63583000D01*
G75*
G02*
X111181000Y-63483000I100000J0D01*
G01*
X112456000Y-63483000D01*
G75*
G02*
X112556000Y-63583000I0J-100000D01*
G01*
X112556000Y-63783000D01*
G75*
G02*
X112456000Y-63883000I-100000J0D01*
G01*
X111181000Y-63883000D01*
G75*
G02*
X111081000Y-63783000I0J100000D01*
G01*
G37*
G36*
G01*
X111081000Y-63133000D02*
X111081000Y-62933000D01*
G75*
G02*
X111181000Y-62833000I100000J0D01*
G01*
X112456000Y-62833000D01*
G75*
G02*
X112556000Y-62933000I0J-100000D01*
G01*
X112556000Y-63133000D01*
G75*
G02*
X112456000Y-63233000I-100000J0D01*
G01*
X111181000Y-63233000D01*
G75*
G02*
X111081000Y-63133000I0J100000D01*
G01*
G37*
G36*
G01*
X111081000Y-62483000D02*
X111081000Y-62283000D01*
G75*
G02*
X111181000Y-62183000I100000J0D01*
G01*
X112456000Y-62183000D01*
G75*
G02*
X112556000Y-62283000I0J-100000D01*
G01*
X112556000Y-62483000D01*
G75*
G02*
X112456000Y-62583000I-100000J0D01*
G01*
X111181000Y-62583000D01*
G75*
G02*
X111081000Y-62483000I0J100000D01*
G01*
G37*
G36*
G01*
X111081000Y-61833000D02*
X111081000Y-61633000D01*
G75*
G02*
X111181000Y-61533000I100000J0D01*
G01*
X112456000Y-61533000D01*
G75*
G02*
X112556000Y-61633000I0J-100000D01*
G01*
X112556000Y-61833000D01*
G75*
G02*
X112456000Y-61933000I-100000J0D01*
G01*
X111181000Y-61933000D01*
G75*
G02*
X111081000Y-61833000I0J100000D01*
G01*
G37*
G36*
G01*
X111081000Y-61183000D02*
X111081000Y-60983000D01*
G75*
G02*
X111181000Y-60883000I100000J0D01*
G01*
X112456000Y-60883000D01*
G75*
G02*
X112556000Y-60983000I0J-100000D01*
G01*
X112556000Y-61183000D01*
G75*
G02*
X112456000Y-61283000I-100000J0D01*
G01*
X111181000Y-61283000D01*
G75*
G02*
X111081000Y-61183000I0J100000D01*
G01*
G37*
%TD*%
D10*
%TO.C,U6*%
X116887000Y-45706000D03*
X115937000Y-45706000D03*
X117837000Y-45706000D03*
X117837000Y-48406000D03*
X116887000Y-48406000D03*
X115937000Y-48406000D03*
%TD*%
%TO.C,U5*%
X110617000Y-45847000D03*
X109667000Y-45847000D03*
X111567000Y-45847000D03*
X111567000Y-48547000D03*
X110617000Y-48547000D03*
X109667000Y-48547000D03*
%TD*%
D11*
%TO.C,U4*%
X112404000Y-71054000D03*
X112404000Y-69154000D03*
X115824000Y-69154000D03*
X115824000Y-70104000D03*
X115824000Y-71054000D03*
%TD*%
D12*
%TO.C,U3*%
X100823000Y-63820000D03*
X102123000Y-63820000D03*
X101473000Y-65720000D03*
X102123000Y-65720000D03*
X100823000Y-65720000D03*
%TD*%
%TO.C,R11*%
G36*
G01*
X126178000Y-59493999D02*
X126178000Y-60394001D01*
G75*
G02*
X125928001Y-60644000I-249999J0D01*
G01*
X125277999Y-60644000D01*
G75*
G02*
X125028000Y-60394001I0J249999D01*
G01*
X125028000Y-59493999D01*
G75*
G02*
X125277999Y-59244000I249999J0D01*
G01*
X125928001Y-59244000D01*
G75*
G02*
X126178000Y-59493999I0J-249999D01*
G01*
G37*
G36*
G01*
X128228000Y-59493999D02*
X128228000Y-60394001D01*
G75*
G02*
X127978001Y-60644000I-249999J0D01*
G01*
X127327999Y-60644000D01*
G75*
G02*
X127078000Y-60394001I0J249999D01*
G01*
X127078000Y-59493999D01*
G75*
G02*
X127327999Y-59244000I249999J0D01*
G01*
X127978001Y-59244000D01*
G75*
G02*
X128228000Y-59493999I0J-249999D01*
G01*
G37*
%TD*%
%TO.C,R10*%
G36*
G01*
X126178000Y-61652999D02*
X126178000Y-62553001D01*
G75*
G02*
X125928001Y-62803000I-249999J0D01*
G01*
X125277999Y-62803000D01*
G75*
G02*
X125028000Y-62553001I0J249999D01*
G01*
X125028000Y-61652999D01*
G75*
G02*
X125277999Y-61403000I249999J0D01*
G01*
X125928001Y-61403000D01*
G75*
G02*
X126178000Y-61652999I0J-249999D01*
G01*
G37*
G36*
G01*
X128228000Y-61652999D02*
X128228000Y-62553001D01*
G75*
G02*
X127978001Y-62803000I-249999J0D01*
G01*
X127327999Y-62803000D01*
G75*
G02*
X127078000Y-62553001I0J249999D01*
G01*
X127078000Y-61652999D01*
G75*
G02*
X127327999Y-61403000I249999J0D01*
G01*
X127978001Y-61403000D01*
G75*
G02*
X128228000Y-61652999I0J-249999D01*
G01*
G37*
%TD*%
%TO.C,R9*%
G36*
G01*
X126160000Y-63811999D02*
X126160000Y-64712001D01*
G75*
G02*
X125910001Y-64962000I-249999J0D01*
G01*
X125259999Y-64962000D01*
G75*
G02*
X125010000Y-64712001I0J249999D01*
G01*
X125010000Y-63811999D01*
G75*
G02*
X125259999Y-63562000I249999J0D01*
G01*
X125910001Y-63562000D01*
G75*
G02*
X126160000Y-63811999I0J-249999D01*
G01*
G37*
G36*
G01*
X128210000Y-63811999D02*
X128210000Y-64712001D01*
G75*
G02*
X127960001Y-64962000I-249999J0D01*
G01*
X127309999Y-64962000D01*
G75*
G02*
X127060000Y-64712001I0J249999D01*
G01*
X127060000Y-63811999D01*
G75*
G02*
X127309999Y-63562000I249999J0D01*
G01*
X127960001Y-63562000D01*
G75*
G02*
X128210000Y-63811999I0J-249999D01*
G01*
G37*
%TD*%
%TO.C,R8*%
G36*
G01*
X126178000Y-65970999D02*
X126178000Y-66871001D01*
G75*
G02*
X125928001Y-67121000I-249999J0D01*
G01*
X125277999Y-67121000D01*
G75*
G02*
X125028000Y-66871001I0J249999D01*
G01*
X125028000Y-65970999D01*
G75*
G02*
X125277999Y-65721000I249999J0D01*
G01*
X125928001Y-65721000D01*
G75*
G02*
X126178000Y-65970999I0J-249999D01*
G01*
G37*
G36*
G01*
X128228000Y-65970999D02*
X128228000Y-66871001D01*
G75*
G02*
X127978001Y-67121000I-249999J0D01*
G01*
X127327999Y-67121000D01*
G75*
G02*
X127078000Y-66871001I0J249999D01*
G01*
X127078000Y-65970999D01*
G75*
G02*
X127327999Y-65721000I249999J0D01*
G01*
X127978001Y-65721000D01*
G75*
G02*
X128228000Y-65970999I0J-249999D01*
G01*
G37*
%TD*%
%TO.C,R7*%
G36*
G01*
X106102999Y-65211000D02*
X107003001Y-65211000D01*
G75*
G02*
X107253000Y-65460999I0J-249999D01*
G01*
X107253000Y-66111001D01*
G75*
G02*
X107003001Y-66361000I-249999J0D01*
G01*
X106102999Y-66361000D01*
G75*
G02*
X105853000Y-66111001I0J249999D01*
G01*
X105853000Y-65460999D01*
G75*
G02*
X106102999Y-65211000I249999J0D01*
G01*
G37*
G36*
G01*
X106102999Y-63161000D02*
X107003001Y-63161000D01*
G75*
G02*
X107253000Y-63410999I0J-249999D01*
G01*
X107253000Y-64061001D01*
G75*
G02*
X107003001Y-64311000I-249999J0D01*
G01*
X106102999Y-64311000D01*
G75*
G02*
X105853000Y-64061001I0J249999D01*
G01*
X105853000Y-63410999D01*
G75*
G02*
X106102999Y-63161000I249999J0D01*
G01*
G37*
%TD*%
%TO.C,R6*%
G36*
G01*
X104197999Y-70563000D02*
X105098001Y-70563000D01*
G75*
G02*
X105348000Y-70812999I0J-249999D01*
G01*
X105348000Y-71463001D01*
G75*
G02*
X105098001Y-71713000I-249999J0D01*
G01*
X104197999Y-71713000D01*
G75*
G02*
X103948000Y-71463001I0J249999D01*
G01*
X103948000Y-70812999D01*
G75*
G02*
X104197999Y-70563000I249999J0D01*
G01*
G37*
G36*
G01*
X104197999Y-68513000D02*
X105098001Y-68513000D01*
G75*
G02*
X105348000Y-68762999I0J-249999D01*
G01*
X105348000Y-69413001D01*
G75*
G02*
X105098001Y-69663000I-249999J0D01*
G01*
X104197999Y-69663000D01*
G75*
G02*
X103948000Y-69413001I0J249999D01*
G01*
X103948000Y-68762999D01*
G75*
G02*
X104197999Y-68513000I249999J0D01*
G01*
G37*
%TD*%
%TO.C,R5*%
G36*
G01*
X107375001Y-69654000D02*
X106474999Y-69654000D01*
G75*
G02*
X106225000Y-69404001I0J249999D01*
G01*
X106225000Y-68753999D01*
G75*
G02*
X106474999Y-68504000I249999J0D01*
G01*
X107375001Y-68504000D01*
G75*
G02*
X107625000Y-68753999I0J-249999D01*
G01*
X107625000Y-69404001D01*
G75*
G02*
X107375001Y-69654000I-249999J0D01*
G01*
G37*
G36*
G01*
X107375001Y-71704000D02*
X106474999Y-71704000D01*
G75*
G02*
X106225000Y-71454001I0J249999D01*
G01*
X106225000Y-70803999D01*
G75*
G02*
X106474999Y-70554000I249999J0D01*
G01*
X107375001Y-70554000D01*
G75*
G02*
X107625000Y-70803999I0J-249999D01*
G01*
X107625000Y-71454001D01*
G75*
G02*
X107375001Y-71704000I-249999J0D01*
G01*
G37*
%TD*%
%TO.C,R4*%
G36*
G01*
X104962001Y-64320000D02*
X104061999Y-64320000D01*
G75*
G02*
X103812000Y-64070001I0J249999D01*
G01*
X103812000Y-63419999D01*
G75*
G02*
X104061999Y-63170000I249999J0D01*
G01*
X104962001Y-63170000D01*
G75*
G02*
X105212000Y-63419999I0J-249999D01*
G01*
X105212000Y-64070001D01*
G75*
G02*
X104962001Y-64320000I-249999J0D01*
G01*
G37*
G36*
G01*
X104962001Y-66370000D02*
X104061999Y-66370000D01*
G75*
G02*
X103812000Y-66120001I0J249999D01*
G01*
X103812000Y-65469999D01*
G75*
G02*
X104061999Y-65220000I249999J0D01*
G01*
X104962001Y-65220000D01*
G75*
G02*
X105212000Y-65469999I0J-249999D01*
G01*
X105212000Y-66120001D01*
G75*
G02*
X104962001Y-66370000I-249999J0D01*
G01*
G37*
%TD*%
%TO.C,R3*%
G36*
G01*
X130232999Y-80324000D02*
X131133001Y-80324000D01*
G75*
G02*
X131383000Y-80573999I0J-249999D01*
G01*
X131383000Y-81224001D01*
G75*
G02*
X131133001Y-81474000I-249999J0D01*
G01*
X130232999Y-81474000D01*
G75*
G02*
X129983000Y-81224001I0J249999D01*
G01*
X129983000Y-80573999D01*
G75*
G02*
X130232999Y-80324000I249999J0D01*
G01*
G37*
G36*
G01*
X130232999Y-78274000D02*
X131133001Y-78274000D01*
G75*
G02*
X131383000Y-78523999I0J-249999D01*
G01*
X131383000Y-79174001D01*
G75*
G02*
X131133001Y-79424000I-249999J0D01*
G01*
X130232999Y-79424000D01*
G75*
G02*
X129983000Y-79174001I0J249999D01*
G01*
X129983000Y-78523999D01*
G75*
G02*
X130232999Y-78274000I249999J0D01*
G01*
G37*
%TD*%
%TO.C,R2*%
G36*
G01*
X128974001Y-79442000D02*
X128073999Y-79442000D01*
G75*
G02*
X127824000Y-79192001I0J249999D01*
G01*
X127824000Y-78541999D01*
G75*
G02*
X128073999Y-78292000I249999J0D01*
G01*
X128974001Y-78292000D01*
G75*
G02*
X129224000Y-78541999I0J-249999D01*
G01*
X129224000Y-79192001D01*
G75*
G02*
X128974001Y-79442000I-249999J0D01*
G01*
G37*
G36*
G01*
X128974001Y-81492000D02*
X128073999Y-81492000D01*
G75*
G02*
X127824000Y-81242001I0J249999D01*
G01*
X127824000Y-80591999D01*
G75*
G02*
X128073999Y-80342000I249999J0D01*
G01*
X128974001Y-80342000D01*
G75*
G02*
X129224000Y-80591999I0J-249999D01*
G01*
X129224000Y-81242001D01*
G75*
G02*
X128974001Y-81492000I-249999J0D01*
G01*
G37*
%TD*%
%TO.C,R1*%
G36*
G01*
X98355999Y-64957000D02*
X99256001Y-64957000D01*
G75*
G02*
X99506000Y-65206999I0J-249999D01*
G01*
X99506000Y-65857001D01*
G75*
G02*
X99256001Y-66107000I-249999J0D01*
G01*
X98355999Y-66107000D01*
G75*
G02*
X98106000Y-65857001I0J249999D01*
G01*
X98106000Y-65206999D01*
G75*
G02*
X98355999Y-64957000I249999J0D01*
G01*
G37*
G36*
G01*
X98355999Y-62907000D02*
X99256001Y-62907000D01*
G75*
G02*
X99506000Y-63156999I0J-249999D01*
G01*
X99506000Y-63807001D01*
G75*
G02*
X99256001Y-64057000I-249999J0D01*
G01*
X98355999Y-64057000D01*
G75*
G02*
X98106000Y-63807001I0J249999D01*
G01*
X98106000Y-63156999D01*
G75*
G02*
X98355999Y-62907000I249999J0D01*
G01*
G37*
%TD*%
D13*
%TO.C,J1*%
X94742000Y-67413000D03*
X94742000Y-61873000D03*
X94742000Y-64643000D03*
%TD*%
D14*
%TO.C,FL2*%
X116115000Y-54229000D03*
X117565000Y-54229000D03*
D15*
X116840000Y-55313000D03*
X116840000Y-53113000D03*
%TD*%
D14*
%TO.C,FL1*%
X111543000Y-54229000D03*
X112993000Y-54229000D03*
D15*
X112268000Y-55313000D03*
X112268000Y-53113000D03*
%TD*%
D16*
%TO.C,D1*%
G36*
X104260000Y-38374000D02*
G01*
X106560000Y-38374000D01*
X105960000Y-41974000D01*
X104860000Y-41974000D01*
X104260000Y-38374000D01*
G37*
G36*
X106560000Y-47774000D02*
G01*
X104260000Y-47774000D01*
X104860000Y-44174000D01*
X105960000Y-44174000D01*
X106560000Y-47774000D01*
G37*
%TD*%
%TO.C,C9*%
G36*
G01*
X119204000Y-59251001D02*
X119204000Y-58350999D01*
G75*
G02*
X119453999Y-58101000I249999J0D01*
G01*
X120104001Y-58101000D01*
G75*
G02*
X120354000Y-58350999I0J-249999D01*
G01*
X120354000Y-59251001D01*
G75*
G02*
X120104001Y-59501000I-249999J0D01*
G01*
X119453999Y-59501000D01*
G75*
G02*
X119204000Y-59251001I0J249999D01*
G01*
G37*
G36*
G01*
X117154000Y-59251001D02*
X117154000Y-58350999D01*
G75*
G02*
X117403999Y-58101000I249999J0D01*
G01*
X118054001Y-58101000D01*
G75*
G02*
X118304000Y-58350999I0J-249999D01*
G01*
X118304000Y-59251001D01*
G75*
G02*
X118054001Y-59501000I-249999J0D01*
G01*
X117403999Y-59501000D01*
G75*
G02*
X117154000Y-59251001I0J249999D01*
G01*
G37*
%TD*%
%TO.C,C8*%
G36*
G01*
X110031000Y-58350999D02*
X110031000Y-59251001D01*
G75*
G02*
X109781001Y-59501000I-249999J0D01*
G01*
X109130999Y-59501000D01*
G75*
G02*
X108881000Y-59251001I0J249999D01*
G01*
X108881000Y-58350999D01*
G75*
G02*
X109130999Y-58101000I249999J0D01*
G01*
X109781001Y-58101000D01*
G75*
G02*
X110031000Y-58350999I0J-249999D01*
G01*
G37*
G36*
G01*
X112081000Y-58350999D02*
X112081000Y-59251001D01*
G75*
G02*
X111831001Y-59501000I-249999J0D01*
G01*
X111180999Y-59501000D01*
G75*
G02*
X110931000Y-59251001I0J249999D01*
G01*
X110931000Y-58350999D01*
G75*
G02*
X111180999Y-58101000I249999J0D01*
G01*
X111831001Y-58101000D01*
G75*
G02*
X112081000Y-58350999I0J-249999D01*
G01*
G37*
%TD*%
%TO.C,C7*%
G36*
G01*
X108261999Y-65220000D02*
X109162001Y-65220000D01*
G75*
G02*
X109412000Y-65469999I0J-249999D01*
G01*
X109412000Y-66120001D01*
G75*
G02*
X109162001Y-66370000I-249999J0D01*
G01*
X108261999Y-66370000D01*
G75*
G02*
X108012000Y-66120001I0J249999D01*
G01*
X108012000Y-65469999D01*
G75*
G02*
X108261999Y-65220000I249999J0D01*
G01*
G37*
G36*
G01*
X108261999Y-63170000D02*
X109162001Y-63170000D01*
G75*
G02*
X109412000Y-63419999I0J-249999D01*
G01*
X109412000Y-64070001D01*
G75*
G02*
X109162001Y-64320000I-249999J0D01*
G01*
X108261999Y-64320000D01*
G75*
G02*
X108012000Y-64070001I0J249999D01*
G01*
X108012000Y-63419999D01*
G75*
G02*
X108261999Y-63170000I249999J0D01*
G01*
G37*
%TD*%
%TO.C,C6*%
G36*
G01*
X117426000Y-51504001D02*
X117426000Y-50603999D01*
G75*
G02*
X117675999Y-50354000I249999J0D01*
G01*
X118326001Y-50354000D01*
G75*
G02*
X118576000Y-50603999I0J-249999D01*
G01*
X118576000Y-51504001D01*
G75*
G02*
X118326001Y-51754000I-249999J0D01*
G01*
X117675999Y-51754000D01*
G75*
G02*
X117426000Y-51504001I0J249999D01*
G01*
G37*
G36*
G01*
X115376000Y-51504001D02*
X115376000Y-50603999D01*
G75*
G02*
X115625999Y-50354000I249999J0D01*
G01*
X116276001Y-50354000D01*
G75*
G02*
X116526000Y-50603999I0J-249999D01*
G01*
X116526000Y-51504001D01*
G75*
G02*
X116276001Y-51754000I-249999J0D01*
G01*
X115625999Y-51754000D01*
G75*
G02*
X115376000Y-51504001I0J249999D01*
G01*
G37*
%TD*%
%TO.C,C5*%
G36*
G01*
X110557000Y-50603999D02*
X110557000Y-51504001D01*
G75*
G02*
X110307001Y-51754000I-249999J0D01*
G01*
X109656999Y-51754000D01*
G75*
G02*
X109407000Y-51504001I0J249999D01*
G01*
X109407000Y-50603999D01*
G75*
G02*
X109656999Y-50354000I249999J0D01*
G01*
X110307001Y-50354000D01*
G75*
G02*
X110557000Y-50603999I0J-249999D01*
G01*
G37*
G36*
G01*
X112607000Y-50603999D02*
X112607000Y-51504001D01*
G75*
G02*
X112357001Y-51754000I-249999J0D01*
G01*
X111706999Y-51754000D01*
G75*
G02*
X111457000Y-51504001I0J249999D01*
G01*
X111457000Y-50603999D01*
G75*
G02*
X111706999Y-50354000I249999J0D01*
G01*
X112357001Y-50354000D01*
G75*
G02*
X112607000Y-50603999I0J-249999D01*
G01*
G37*
%TD*%
%TO.C,C4*%
G36*
G01*
X108769999Y-70563000D02*
X109670001Y-70563000D01*
G75*
G02*
X109920000Y-70812999I0J-249999D01*
G01*
X109920000Y-71463001D01*
G75*
G02*
X109670001Y-71713000I-249999J0D01*
G01*
X108769999Y-71713000D01*
G75*
G02*
X108520000Y-71463001I0J249999D01*
G01*
X108520000Y-70812999D01*
G75*
G02*
X108769999Y-70563000I249999J0D01*
G01*
G37*
G36*
G01*
X108769999Y-68513000D02*
X109670001Y-68513000D01*
G75*
G02*
X109920000Y-68762999I0J-249999D01*
G01*
X109920000Y-69413001D01*
G75*
G02*
X109670001Y-69663000I-249999J0D01*
G01*
X108769999Y-69663000D01*
G75*
G02*
X108520000Y-69413001I0J249999D01*
G01*
X108520000Y-68762999D01*
G75*
G02*
X108769999Y-68513000I249999J0D01*
G01*
G37*
%TD*%
%TO.C,C3*%
G36*
G01*
X111058000Y-44138001D02*
X111058000Y-43237999D01*
G75*
G02*
X111307999Y-42988000I249999J0D01*
G01*
X111958001Y-42988000D01*
G75*
G02*
X112208000Y-43237999I0J-249999D01*
G01*
X112208000Y-44138001D01*
G75*
G02*
X111958001Y-44388000I-249999J0D01*
G01*
X111307999Y-44388000D01*
G75*
G02*
X111058000Y-44138001I0J249999D01*
G01*
G37*
G36*
G01*
X109008000Y-44138001D02*
X109008000Y-43237999D01*
G75*
G02*
X109257999Y-42988000I249999J0D01*
G01*
X109908001Y-42988000D01*
G75*
G02*
X110158000Y-43237999I0J-249999D01*
G01*
X110158000Y-44138001D01*
G75*
G02*
X109908001Y-44388000I-249999J0D01*
G01*
X109257999Y-44388000D01*
G75*
G02*
X109008000Y-44138001I0J249999D01*
G01*
G37*
%TD*%
%TO.C,C2*%
G36*
G01*
X117299000Y-44011001D02*
X117299000Y-43110999D01*
G75*
G02*
X117548999Y-42861000I249999J0D01*
G01*
X118199001Y-42861000D01*
G75*
G02*
X118449000Y-43110999I0J-249999D01*
G01*
X118449000Y-44011001D01*
G75*
G02*
X118199001Y-44261000I-249999J0D01*
G01*
X117548999Y-44261000D01*
G75*
G02*
X117299000Y-44011001I0J249999D01*
G01*
G37*
G36*
G01*
X115249000Y-44011001D02*
X115249000Y-43110999D01*
G75*
G02*
X115498999Y-42861000I249999J0D01*
G01*
X116149001Y-42861000D01*
G75*
G02*
X116399000Y-43110999I0J-249999D01*
G01*
X116399000Y-44011001D01*
G75*
G02*
X116149001Y-44261000I-249999J0D01*
G01*
X115498999Y-44261000D01*
G75*
G02*
X115249000Y-44011001I0J249999D01*
G01*
G37*
%TD*%
%TO.C,C1*%
G36*
G01*
X118040999Y-70563000D02*
X118941001Y-70563000D01*
G75*
G02*
X119191000Y-70812999I0J-249999D01*
G01*
X119191000Y-71463001D01*
G75*
G02*
X118941001Y-71713000I-249999J0D01*
G01*
X118040999Y-71713000D01*
G75*
G02*
X117791000Y-71463001I0J249999D01*
G01*
X117791000Y-70812999D01*
G75*
G02*
X118040999Y-70563000I249999J0D01*
G01*
G37*
G36*
G01*
X118040999Y-68513000D02*
X118941001Y-68513000D01*
G75*
G02*
X119191000Y-68762999I0J-249999D01*
G01*
X119191000Y-69413001D01*
G75*
G02*
X118941001Y-69663000I-249999J0D01*
G01*
X118040999Y-69663000D01*
G75*
G02*
X117791000Y-69413001I0J249999D01*
G01*
X117791000Y-68762999D01*
G75*
G02*
X118040999Y-68513000I249999J0D01*
G01*
G37*
%TD*%
M02*
